solid OpenSCAD_Model
  facet normal 0 0 1
    outer loop
      vertex 38 1.985 2
      vertex 1.9815 2.7189 2
      vertex 1.9815 1.985 2
    endloop
  endfacet
  facet normal 0 -0 1
    outer loop
      vertex 38 1.985 2
      vertex 38 2.7189 2
      vertex 1.9815 2.7189 2
    endloop
  endfacet
  facet normal 0 0 1
    outer loop
      vertex 40 4.1271 9.72
      vertex 39 4.1271 9.72
      vertex 39 0.985 9.72
    endloop
  endfacet
  facet normal 0 0 1
    outer loop
      vertex 40 4.1271 9.72
      vertex 39 0.985 9.72
      vertex 40 -0.015 9.72
    endloop
  endfacet
  facet normal 0 0 1
    outer loop
      vertex 40 -0.015 9.72
      vertex 0.9815 0.985 9.72
      vertex -0.0185 -0.015 9.72
    endloop
  endfacet
  facet normal 0 0 1
    outer loop
      vertex 0.9815 4.9445 9.72
      vertex -0.0185 4.9445 9.72
      vertex 0.9815 0.985 9.72
    endloop
  endfacet
  facet normal 0 0 1
    outer loop
      vertex 39 0.985 9.72
      vertex 0.9815 0.985 9.72
      vertex 40 -0.015 9.72
    endloop
  endfacet
  facet normal 0 0 1
    outer loop
      vertex 0.9815 0.985 9.72
      vertex -0.0185 4.9445 9.72
      vertex -0.0185 -0.015 9.72
    endloop
  endfacet
  facet normal 1 0 0
    outer loop
      vertex 1.9815 2.7189 2
      vertex 1.9815 1.985 6.82
      vertex 1.9815 1.985 2
    endloop
  endfacet
  facet normal 1 0 0
    outer loop
      vertex 1.9815 2.7189 2
      vertex 1.9815 2.7189 1.5
      vertex 1.9815 10.4113 1.5
    endloop
  endfacet
  facet normal 1 0 -0
    outer loop
      vertex 1.9815 2.7189 2
      vertex 1.9815 10.4113 2
      vertex 1.9815 1.985 6.82
    endloop
  endfacet
  facet normal 1 0 -0
    outer loop
      vertex 1.9815 10.4113 1.5
      vertex 1.9815 10.4113 2
      vertex 1.9815 2.7189 2
    endloop
  endfacet
  facet normal 1 0 0
    outer loop
      vertex 1.9815 44.815 6.82
      vertex 1.9815 1.985 6.82
      vertex 1.9815 10.4113 2
    endloop
  endfacet
  facet normal 1 0 -0
    outer loop
      vertex 1.9815 44.815 2
      vertex 1.9815 44.815 6.82
      vertex 1.9815 10.4113 2
    endloop
  endfacet
  facet normal 0 -1 0
    outer loop
      vertex 38 44.815 2
      vertex 1.9815 44.815 6.82
      vertex 1.9815 44.815 2
    endloop
  endfacet
  facet normal 0 -1 0
    outer loop
      vertex 38 44.815 2
      vertex 38 44.815 6.82
      vertex 1.9815 44.815 6.82
    endloop
  endfacet
  facet normal 0 1 0
    outer loop
      vertex 1.9815 1.985 6.82
      vertex 38 1.985 2
      vertex 1.9815 1.985 2
    endloop
  endfacet
  facet normal -0 1 0
    outer loop
      vertex 1.9815 1.985 6.82
      vertex 38 1.985 6.82
      vertex 38 1.985 2
    endloop
  endfacet
  facet normal 0 0 1
    outer loop
      vertex 0.9815 45.815 9.72
      vertex -0.0185 46.815 9.72
      vertex -0.0185 8.9894 9.72
    endloop
  endfacet
  facet normal 0 -0 1
    outer loop
      vertex 0.9815 8.9894 9.72
      vertex 0.9815 45.815 9.72
      vertex -0.0185 8.9894 9.72
    endloop
  endfacet
  facet normal 0 0 1
    outer loop
      vertex 39 45.815 9.72
      vertex -0.0185 46.815 9.72
      vertex 0.9815 45.815 9.72
    endloop
  endfacet
  facet normal 0 0 1
    outer loop
      vertex 39 10.1612 9.72
      vertex 40 10.1612 9.72
      vertex 39 45.815 9.72
    endloop
  endfacet
  facet normal 0 -0 1
    outer loop
      vertex 40 10.1612 9.72
      vertex 40 46.815 9.72
      vertex 39 45.815 9.72
    endloop
  endfacet
  facet normal 0 0 1
    outer loop
      vertex 40 46.815 9.72
      vertex -0.0185 46.815 9.72
      vertex 39 45.815 9.72
    endloop
  endfacet
  facet normal -1 0 -0
    outer loop
      vertex -0.0185 46.815 9.72
      vertex -0.0185 46.815 0
      vertex -0.0185 8.9894 8.78073
    endloop
  endfacet
  facet normal -1 0 0
    outer loop
      vertex -0.0185 -0.015 9.72
      vertex -0.0185 4.9445 8.78073
      vertex -0.0185 -0.015 0
    endloop
  endfacet
  facet normal -1 -0 -0
    outer loop
      vertex -0.0185 4.9445 9.72
      vertex -0.0185 4.9445 8.78073
      vertex -0.0185 -0.015 9.72
    endloop
  endfacet
  facet normal -1 0 -0
    outer loop
      vertex -0.0185 8.9894 8.78073
      vertex -0.0185 46.815 0
      vertex -0.0185 -0.015 0
    endloop
  endfacet
  facet normal -1 -0 0
    outer loop
      vertex -0.0185 8.9894 8.78073
      vertex -0.0185 -0.015 0
      vertex -0.0185 4.9445 8.78073
    endloop
  endfacet
  facet normal -1 0 0
    outer loop
      vertex -0.0185 8.9894 9.72
      vertex -0.0185 46.815 9.72
      vertex -0.0185 8.9894 8.78073
    endloop
  endfacet
  facet normal 0 1 0
    outer loop
      vertex -0.0185 46.815 9.72
      vertex 40 46.815 0
      vertex -0.0185 46.815 0
    endloop
  endfacet
  facet normal -0 1 0
    outer loop
      vertex -0.0185 46.815 9.72
      vertex 40 46.815 9.72
      vertex 40 46.815 0
    endloop
  endfacet
  facet normal 1 0 -0
    outer loop
      vertex 40 46.815 0
      vertex 40 46.815 9.72
      vertex 40 10.1612 9.72
    endloop
  endfacet
  facet normal 1 0 0
    outer loop
      vertex 40 46.815 0
      vertex 40 10.1612 9.72
      vertex 40 -0.015 0
    endloop
  endfacet
  facet normal 1 -0 0
    outer loop
      vertex 40 -0.015 9.72
      vertex 40 -0.015 0
      vertex 40 4.1271 9.72
    endloop
  endfacet
  facet normal 1 0 0
    outer loop
      vertex 40 10.1612 11.6988
      vertex 40 4.1271 11.6988
      vertex 40 10.1612 9.72
    endloop
  endfacet
  facet normal 1 0 0
    outer loop
      vertex 40 4.1271 11.6988
      vertex 40 4.1271 9.72
      vertex 40 10.1612 9.72
    endloop
  endfacet
  facet normal 1 -0 0
    outer loop
      vertex 40 4.1271 9.72
      vertex 40 -0.015 0
      vertex 40 10.1612 9.72
    endloop
  endfacet
  facet normal 0 -1 0
    outer loop
      vertex 40 -0.015 0
      vertex -0.0185 -0.015 9.72
      vertex -0.0185 -0.015 0
    endloop
  endfacet
  facet normal 0 -1 0
    outer loop
      vertex 40 -0.015 0
      vertex 40 -0.015 9.72
      vertex -0.0185 -0.015 9.72
    endloop
  endfacet
  facet normal 0 0 -1
    outer loop
      vertex -0.0185 46.815 0
      vertex 6.7113 20.7455 0
      vertex -0.0185 -0.015 0
    endloop
  endfacet
  facet normal -0 -0 -1
    outer loop
      vertex 6.7113 39.7455 0
      vertex 6.7113 20.7455 0
      vertex -0.0185 46.815 0
    endloop
  endfacet
  facet normal 0 -0 -1
    outer loop
      vertex 6.7113 20.7455 0
      vertex 6.7265 20.5718 0
      vertex -0.0185 -0.015 0
    endloop
  endfacet
  facet normal 0 -0 -1
    outer loop
      vertex 6.7265 20.5718 0
      vertex 6.7716 20.4034 0
      vertex -0.0185 -0.015 0
    endloop
  endfacet
  facet normal 0 -0 -1
    outer loop
      vertex 6.7716 20.4034 0
      vertex 6.8453 20.2455 0
      vertex -0.0185 -0.015 0
    endloop
  endfacet
  facet normal 0 -0 -1
    outer loop
      vertex 6.8453 20.2455 0
      vertex 6.9452 20.1027 0
      vertex -0.0185 -0.015 0
    endloop
  endfacet
  facet normal 0 -0 -1
    outer loop
      vertex 6.9452 20.1027 0
      vertex 7.0685 19.9794 0
      vertex -0.0185 -0.015 0
    endloop
  endfacet
  facet normal 0 -0 -1
    outer loop
      vertex 40 46.815 0
      vertex 40 -0.015 0
      vertex 27.7113 20.7455 0
    endloop
  endfacet
  facet normal 0 -0 -1
    outer loop
      vertex 7.0685 19.9794 0
      vertex 7.2113 19.8794 0
      vertex -0.0185 -0.015 0
    endloop
  endfacet
  facet normal 0 -0 -1
    outer loop
      vertex 26.7113 19.7455 0
      vertex 40 -0.015 0
      vertex -0.0185 -0.015 0
    endloop
  endfacet
  facet normal -0 0 -1
    outer loop
      vertex 7.3693 19.8058 0
      vertex -0.0185 -0.015 0
      vertex 7.2113 19.8794 0
    endloop
  endfacet
  facet normal -0 0 -1
    outer loop
      vertex 7.5376 19.7607 0
      vertex -0.0185 -0.015 0
      vertex 7.3693 19.8058 0
    endloop
  endfacet
  facet normal -0 0 -1
    outer loop
      vertex 7.7113 19.7455 0
      vertex -0.0185 -0.015 0
      vertex 7.5376 19.7607 0
    endloop
  endfacet
  facet normal -0 0 -1
    outer loop
      vertex 26.7113 19.7455 0
      vertex -0.0185 -0.015 0
      vertex 7.7113 19.7455 0
    endloop
  endfacet
  facet normal 0 -0 -1
    outer loop
      vertex 26.8677 19.7578 0
      vertex 40 -0.015 0
      vertex 26.7113 19.7455 0
    endloop
  endfacet
  facet normal 0 -0 -1
    outer loop
      vertex 27.0203 19.7944 0
      vertex 40 -0.015 0
      vertex 26.8677 19.7578 0
    endloop
  endfacet
  facet normal 0 -0 -1
    outer loop
      vertex 27.1653 19.8544 0
      vertex 40 -0.015 0
      vertex 27.0203 19.7944 0
    endloop
  endfacet
  facet normal 0 -0 -1
    outer loop
      vertex 27.2991 19.9364 0
      vertex 40 -0.015 0
      vertex 27.1653 19.8544 0
    endloop
  endfacet
  facet normal 0 -0 -1
    outer loop
      vertex 27.4184 20.0383 0
      vertex 40 -0.015 0
      vertex 27.2991 19.9364 0
    endloop
  endfacet
  facet normal 0 -0 -1
    outer loop
      vertex 27.5203 20.1577 0
      vertex 40 -0.015 0
      vertex 27.4184 20.0383 0
    endloop
  endfacet
  facet normal 0 0 -1
    outer loop
      vertex 40 -0.015 0
      vertex 27.6023 20.2915 0
      vertex 27.6623 20.4364 0
    endloop
  endfacet
  facet normal 0 -0 -1
    outer loop
      vertex 27.6023 20.2915 0
      vertex 40 -0.015 0
      vertex 27.5203 20.1577 0
    endloop
  endfacet
  facet normal 0 0 -1
    outer loop
      vertex 40 -0.015 0
      vertex 27.6623 20.4364 0
      vertex 27.699 20.589 0
    endloop
  endfacet
  facet normal 0 0 -1
    outer loop
      vertex 40 -0.015 0
      vertex 27.699 20.589 0
      vertex 27.7113 20.7455 0
    endloop
  endfacet
  facet normal 0 0 -1
    outer loop
      vertex 40 46.815 0
      vertex 27.7113 20.7455 0
      vertex 27.7113 39.7455 0
    endloop
  endfacet
  facet normal 0 0 -1
    outer loop
      vertex 40 46.815 0
      vertex 27.7113 39.7455 0
      vertex 27.6961 39.9191 0
    endloop
  endfacet
  facet normal 0 0 -1
    outer loop
      vertex 40 46.815 0
      vertex 27.6961 39.9191 0
      vertex 27.651 40.0875 0
    endloop
  endfacet
  facet normal 0 0 -1
    outer loop
      vertex 40 46.815 0
      vertex 27.651 40.0875 0
      vertex 27.5773 40.2455 0
    endloop
  endfacet
  facet normal 0 0 -1
    outer loop
      vertex 40 46.815 0
      vertex 27.5773 40.2455 0
      vertex 27.4773 40.3882 0
    endloop
  endfacet
  facet normal 0 0 -1
    outer loop
      vertex 40 46.815 0
      vertex 27.4773 40.3882 0
      vertex 27.3541 40.5115 0
    endloop
  endfacet
  facet normal 0 0 -1
    outer loop
      vertex 40 46.815 0
      vertex 27.3541 40.5115 0
      vertex 27.2113 40.6115 0
    endloop
  endfacet
  facet normal 0 0 -1
    outer loop
      vertex 40 46.815 0
      vertex 27.2113 40.6115 0
      vertex 27.0533 40.6851 0
    endloop
  endfacet
  facet normal 0 0 -1
    outer loop
      vertex 40 46.815 0
      vertex 27.0533 40.6851 0
      vertex 26.8849 40.7303 0
    endloop
  endfacet
  facet normal -0 0 -1
    outer loop
      vertex 40 46.815 0
      vertex 26.7113 40.7455 0
      vertex -0.0185 46.815 0
    endloop
  endfacet
  facet normal 0 0 -1
    outer loop
      vertex 26.8849 40.7303 0
      vertex 26.7113 40.7455 0
      vertex 40 46.815 0
    endloop
  endfacet
  facet normal 0 0 -1
    outer loop
      vertex 26.7113 40.7455 0
      vertex 7.7113 40.7455 0
      vertex -0.0185 46.815 0
    endloop
  endfacet
  facet normal -0 0 -1
    outer loop
      vertex 7.7113 40.7455 0
      vertex 7.5376 40.7303 0
      vertex -0.0185 46.815 0
    endloop
  endfacet
  facet normal -0 0 -1
    outer loop
      vertex 7.5376 40.7303 0
      vertex 7.3693 40.6851 0
      vertex -0.0185 46.815 0
    endloop
  endfacet
  facet normal -0 0 -1
    outer loop
      vertex 7.3693 40.6851 0
      vertex 7.2113 40.6115 0
      vertex -0.0185 46.815 0
    endloop
  endfacet
  facet normal -0 0 -1
    outer loop
      vertex 7.2113 40.6115 0
      vertex 7.0685 40.5115 0
      vertex -0.0185 46.815 0
    endloop
  endfacet
  facet normal -0 0 -1
    outer loop
      vertex 7.0685 40.5115 0
      vertex 6.9452 40.3882 0
      vertex -0.0185 46.815 0
    endloop
  endfacet
  facet normal -0 0 -1
    outer loop
      vertex 6.9452 40.3882 0
      vertex 6.8453 40.2455 0
      vertex -0.0185 46.815 0
    endloop
  endfacet
  facet normal -0 0 -1
    outer loop
      vertex 6.8453 40.2455 0
      vertex 6.7716 40.0875 0
      vertex -0.0185 46.815 0
    endloop
  endfacet
  facet normal -0 0 -1
    outer loop
      vertex 6.7716 40.0875 0
      vertex 6.7265 39.9191 0
      vertex -0.0185 46.815 0
    endloop
  endfacet
  facet normal -0 0 -1
    outer loop
      vertex 6.7265 39.9191 0
      vertex 6.7113 39.7455 0
      vertex -0.0185 46.815 0
    endloop
  endfacet
  facet normal -1 0 0
    outer loop
      vertex 38 1.985 6.82
      vertex 38 2.7189 2
      vertex 38 1.985 2
    endloop
  endfacet
  facet normal -1 0 0
    outer loop
      vertex 38 1.985 6.82
      vertex 38 4.1271 6.82
      vertex 38 2.7189 2
    endloop
  endfacet
  facet normal -1 0 0
    outer loop
      vertex 38 4.1271 11.6988
      vertex 38 10.1612 6.82
      vertex 38 4.1271 6.82
    endloop
  endfacet
  facet normal -1 0 0
    outer loop
      vertex 38 10.4113 2
      vertex 38 2.7189 2
      vertex 38 4.1271 6.82
    endloop
  endfacet
  facet normal -1 -0 -0
    outer loop
      vertex 38 10.1612 11.6988
      vertex 38 10.1612 6.82
      vertex 38 4.1271 11.6988
    endloop
  endfacet
  facet normal -1 -0 0
    outer loop
      vertex 38 44.815 6.82
      vertex 38 10.4113 2
      vertex 38 10.1612 6.82
    endloop
  endfacet
  facet normal -1 0 0
    outer loop
      vertex 38 44.815 2
      vertex 38 10.4113 2
      vertex 38 44.815 6.82
    endloop
  endfacet
  facet normal -1 0 0
    outer loop
      vertex 38 10.4113 2
      vertex 38 4.1271 6.82
      vertex 38 10.1612 6.82
    endloop
  endfacet
  facet normal -1 0 0
    outer loop
      vertex 38 10.4113 1.5
      vertex 38 2.7189 2
      vertex 38 10.4113 2
    endloop
  endfacet
  facet normal -1 0 0
    outer loop
      vertex 38 2.7189 1.5
      vertex 38 2.7189 2
      vertex 38 10.4113 1.5
    endloop
  endfacet
  facet normal 0 0 1
    outer loop
      vertex 38 44.815 2
      vertex 1.9815 44.815 2
      vertex 26.7113 40.7455 2
    endloop
  endfacet
  facet normal 0 0 1
    outer loop
      vertex 6.7113 20.7455 2
      vertex 1.9815 44.815 2
      vertex 1.9815 10.4113 2
    endloop
  endfacet
  facet normal 0 0 1
    outer loop
      vertex 6.7113 39.7455 2
      vertex 1.9815 44.815 2
      vertex 6.7113 20.7455 2
    endloop
  endfacet
  facet normal 0 0 1
    outer loop
      vertex 6.7265 39.9191 2
      vertex 1.9815 44.815 2
      vertex 6.7113 39.7455 2
    endloop
  endfacet
  facet normal 0 0 1
    outer loop
      vertex 6.7716 40.0875 2
      vertex 1.9815 44.815 2
      vertex 6.7265 39.9191 2
    endloop
  endfacet
  facet normal 0 0 1
    outer loop
      vertex 6.8453 40.2455 2
      vertex 1.9815 44.815 2
      vertex 6.7716 40.0875 2
    endloop
  endfacet
  facet normal 0 0 1
    outer loop
      vertex 6.9452 40.3882 2
      vertex 1.9815 44.815 2
      vertex 6.8453 40.2455 2
    endloop
  endfacet
  facet normal 0 0 1
    outer loop
      vertex 7.0685 40.5115 2
      vertex 1.9815 44.815 2
      vertex 6.9452 40.3882 2
    endloop
  endfacet
  facet normal 0 0 1
    outer loop
      vertex 7.2113 40.6115 2
      vertex 1.9815 44.815 2
      vertex 7.0685 40.5115 2
    endloop
  endfacet
  facet normal 0 0 1
    outer loop
      vertex 7.3693 40.6851 2
      vertex 1.9815 44.815 2
      vertex 7.2113 40.6115 2
    endloop
  endfacet
  facet normal 0 0 1
    outer loop
      vertex 1.9815 44.815 2
      vertex 7.5376 40.7303 2
      vertex 7.7113 40.7455 2
    endloop
  endfacet
  facet normal 0 0 1
    outer loop
      vertex 7.5376 40.7303 2
      vertex 1.9815 44.815 2
      vertex 7.3693 40.6851 2
    endloop
  endfacet
  facet normal 0 0 1
    outer loop
      vertex 1.9815 44.815 2
      vertex 7.7113 40.7455 2
      vertex 26.7113 40.7455 2
    endloop
  endfacet
  facet normal 0 0 1
    outer loop
      vertex 38 44.815 2
      vertex 26.7113 40.7455 2
      vertex 26.8849 40.7303 2
    endloop
  endfacet
  facet normal 0 0 1
    outer loop
      vertex 38 44.815 2
      vertex 26.8849 40.7303 2
      vertex 27.0533 40.6851 2
    endloop
  endfacet
  facet normal 0 0 1
    outer loop
      vertex 38 44.815 2
      vertex 27.0533 40.6851 2
      vertex 27.2113 40.6115 2
    endloop
  endfacet
  facet normal 0 0 1
    outer loop
      vertex 38 44.815 2
      vertex 27.2113 40.6115 2
      vertex 27.3541 40.5115 2
    endloop
  endfacet
  facet normal 0 0 1
    outer loop
      vertex 38 44.815 2
      vertex 27.3541 40.5115 2
      vertex 27.4773 40.3882 2
    endloop
  endfacet
  facet normal 0 0 1
    outer loop
      vertex 38 44.815 2
      vertex 27.4773 40.3882 2
      vertex 27.5773 40.2455 2
    endloop
  endfacet
  facet normal 0 0 1
    outer loop
      vertex 38 44.815 2
      vertex 27.5773 40.2455 2
      vertex 27.651 40.0875 2
    endloop
  endfacet
  facet normal 0 0 1
    outer loop
      vertex 38 44.815 2
      vertex 27.7113 20.7455 2
      vertex 38 10.4113 2
    endloop
  endfacet
  facet normal -0 0 1
    outer loop
      vertex 27.651 40.0875 2
      vertex 27.6961 39.9191 2
      vertex 38 44.815 2
    endloop
  endfacet
  facet normal -0 0 1
    outer loop
      vertex 27.6961 39.9191 2
      vertex 27.7113 39.7455 2
      vertex 38 44.815 2
    endloop
  endfacet
  facet normal -0 0 1
    outer loop
      vertex 27.7113 39.7455 2
      vertex 27.7113 20.7455 2
      vertex 38 44.815 2
    endloop
  endfacet
  facet normal 0 0 1
    outer loop
      vertex 27.7113 20.7455 2
      vertex 27.699 20.589 2
      vertex 38 10.4113 2
    endloop
  endfacet
  facet normal 0 0 1
    outer loop
      vertex 27.699 20.589 2
      vertex 27.6623 20.4364 2
      vertex 38 10.4113 2
    endloop
  endfacet
  facet normal 0 0 1
    outer loop
      vertex 27.6623 20.4364 2
      vertex 27.6023 20.2915 2
      vertex 38 10.4113 2
    endloop
  endfacet
  facet normal 0 0 1
    outer loop
      vertex 27.6023 20.2915 2
      vertex 27.5203 20.1577 2
      vertex 38 10.4113 2
    endloop
  endfacet
  facet normal 0 0 1
    outer loop
      vertex 27.5203 20.1577 2
      vertex 27.4184 20.0383 2
      vertex 38 10.4113 2
    endloop
  endfacet
  facet normal 0 0 1
    outer loop
      vertex 27.4184 20.0383 2
      vertex 27.2991 19.9364 2
      vertex 38 10.4113 2
    endloop
  endfacet
  facet normal 0 0 1
    outer loop
      vertex 27.2991 19.9364 2
      vertex 27.1653 19.8544 2
      vertex 38 10.4113 2
    endloop
  endfacet
  facet normal 0 0 1
    outer loop
      vertex 6.7113 20.7455 2
      vertex 1.9815 10.4113 2
      vertex 6.7265 20.5718 2
    endloop
  endfacet
  facet normal 0 0 1
    outer loop
      vertex 27.1653 19.8544 2
      vertex 27.0203 19.7944 2
      vertex 38 10.4113 2
    endloop
  endfacet
  facet normal 0 0 1
    outer loop
      vertex 26.7113 19.7455 2
      vertex 1.9815 10.4113 2
      vertex 38 10.4113 2
    endloop
  endfacet
  facet normal -0 0 1
    outer loop
      vertex 26.8677 19.7578 2
      vertex 38 10.4113 2
      vertex 27.0203 19.7944 2
    endloop
  endfacet
  facet normal -0 0 1
    outer loop
      vertex 26.7113 19.7455 2
      vertex 38 10.4113 2
      vertex 26.8677 19.7578 2
    endloop
  endfacet
  facet normal -0 0 1
    outer loop
      vertex 7.7113 19.7455 2
      vertex 1.9815 10.4113 2
      vertex 26.7113 19.7455 2
    endloop
  endfacet
  facet normal 0 0 1
    outer loop
      vertex 7.5376 19.7607 2
      vertex 1.9815 10.4113 2
      vertex 7.7113 19.7455 2
    endloop
  endfacet
  facet normal 0 0 1
    outer loop
      vertex 7.3693 19.8058 2
      vertex 1.9815 10.4113 2
      vertex 7.5376 19.7607 2
    endloop
  endfacet
  facet normal 0 0 1
    outer loop
      vertex 7.2113 19.8794 2
      vertex 1.9815 10.4113 2
      vertex 7.3693 19.8058 2
    endloop
  endfacet
  facet normal 0 0 1
    outer loop
      vertex 7.0685 19.9794 2
      vertex 1.9815 10.4113 2
      vertex 7.2113 19.8794 2
    endloop
  endfacet
  facet normal 0 0 1
    outer loop
      vertex 6.9452 20.1027 2
      vertex 1.9815 10.4113 2
      vertex 7.0685 19.9794 2
    endloop
  endfacet
  facet normal 0 0 1
    outer loop
      vertex 6.8453 20.2455 2
      vertex 1.9815 10.4113 2
      vertex 6.9452 20.1027 2
    endloop
  endfacet
  facet normal 0 0 1
    outer loop
      vertex 6.7716 20.4034 2
      vertex 1.9815 10.4113 2
      vertex 6.8453 20.2455 2
    endloop
  endfacet
  facet normal 0 0 1
    outer loop
      vertex 6.7265 20.5718 2
      vertex 1.9815 10.4113 2
      vertex 6.7716 20.4034 2
    endloop
  endfacet
  facet normal 0 1 0
    outer loop
      vertex 40 10.1612 11.6988
      vertex 40 10.1612 9.72
      vertex 39 10.1612 9.72
    endloop
  endfacet
  facet normal 0 1 0
    outer loop
      vertex 40 10.1612 11.6988
      vertex 39 10.1612 9.72
      vertex 38 10.1612 11.6988
    endloop
  endfacet
  facet normal 0 1 0
    outer loop
      vertex 38 10.1612 11.6988
      vertex 39 10.1612 9.72
      vertex 38 10.1612 6.82
    endloop
  endfacet
  facet normal 0 1 0
    outer loop
      vertex 39 10.1612 9.72
      vertex 39 10.1612 6.82
      vertex 38 10.1612 6.82
    endloop
  endfacet
  facet normal -0 -1 0
    outer loop
      vertex 39 4.1271 9.72
      vertex 38 4.1271 11.6988
      vertex 38 4.1271 6.82
    endloop
  endfacet
  facet normal 0 -1 0
    outer loop
      vertex 39 4.1271 6.82
      vertex 39 4.1271 9.72
      vertex 38 4.1271 6.82
    endloop
  endfacet
  facet normal -0 -1 0
    outer loop
      vertex 40 4.1271 11.6988
      vertex 38 4.1271 11.6988
      vertex 39 4.1271 9.72
    endloop
  endfacet
  facet normal 0 -1 0
    outer loop
      vertex 40 4.1271 9.72
      vertex 40 4.1271 11.6988
      vertex 39 4.1271 9.72
    endloop
  endfacet
  facet normal -1 0 0
    outer loop
      vertex 39 0.985 9.72
      vertex 39 4.1271 6.82
      vertex 39 0.985 6.82
    endloop
  endfacet
  facet normal -1 0 0
    outer loop
      vertex 39 0.985 9.72
      vertex 39 4.1271 9.72
      vertex 39 4.1271 6.82
    endloop
  endfacet
  facet normal 0 1 0
    outer loop
      vertex 0.9815 0.985 9.72
      vertex 39 0.985 6.82
      vertex 0.9815 0.985 6.82
    endloop
  endfacet
  facet normal -0 1 0
    outer loop
      vertex 0.9815 0.985 9.72
      vertex 39 0.985 9.72
      vertex 39 0.985 6.82
    endloop
  endfacet
  facet normal 1 0 -0
    outer loop
      vertex 0.9815 45.815 6.82
      vertex 0.9815 45.815 9.72
      vertex 0.9815 8.9894 8.78073
    endloop
  endfacet
  facet normal 1 0 0
    outer loop
      vertex 0.9815 45.815 9.72
      vertex 0.9815 8.9894 9.72
      vertex 0.9815 8.9894 8.78073
    endloop
  endfacet
  facet normal 1 0 0
    outer loop
      vertex 0.9815 45.815 6.82
      vertex 0.9815 8.9894 8.78073
      vertex 0.9815 0.985 6.82
    endloop
  endfacet
  facet normal 1 0 0
    outer loop
      vertex 0.9815 8.9894 8.78073
      vertex 0.9815 4.9445 8.78073
      vertex 0.9815 0.985 6.82
    endloop
  endfacet
  facet normal 1 0 0
    outer loop
      vertex 0.9815 4.9445 8.78073
      vertex 0.9815 0.985 9.72
      vertex 0.9815 0.985 6.82
    endloop
  endfacet
  facet normal 1 0 0
    outer loop
      vertex 0.9815 4.9445 9.72
      vertex 0.9815 0.985 9.72
      vertex 0.9815 4.9445 8.78073
    endloop
  endfacet
  facet normal 0 -1 0
    outer loop
      vertex 39 45.815 6.82
      vertex 0.9815 45.815 9.72
      vertex 0.9815 45.815 6.82
    endloop
  endfacet
  facet normal 0 -1 0
    outer loop
      vertex 39 45.815 6.82
      vertex 39 45.815 9.72
      vertex 0.9815 45.815 9.72
    endloop
  endfacet
  facet normal -1 0 0
    outer loop
      vertex 39 10.1612 9.72
      vertex 39 45.815 6.82
      vertex 39 10.1612 6.82
    endloop
  endfacet
  facet normal -1 0 0
    outer loop
      vertex 39 10.1612 9.72
      vertex 39 45.815 9.72
      vertex 39 45.815 6.82
    endloop
  endfacet
  facet normal 0 0 1
    outer loop
      vertex 39 4.1271 6.82
      vertex 38 4.1271 6.82
      vertex 38 1.985 6.82
    endloop
  endfacet
  facet normal 0 0 1
    outer loop
      vertex 39 4.1271 6.82
      vertex 38 1.985 6.82
      vertex 39 0.985 6.82
    endloop
  endfacet
  facet normal 0 0 1
    outer loop
      vertex 1.9815 44.815 6.82
      vertex 0.9815 0.985 6.82
      vertex 1.9815 1.985 6.82
    endloop
  endfacet
  facet normal 0 0 1
    outer loop
      vertex 39 0.985 6.82
      vertex 1.9815 1.985 6.82
      vertex 0.9815 0.985 6.82
    endloop
  endfacet
  facet normal 0 0 1
    outer loop
      vertex 38 1.985 6.82
      vertex 1.9815 1.985 6.82
      vertex 39 0.985 6.82
    endloop
  endfacet
  facet normal 0 0 1
    outer loop
      vertex 1.9815 44.815 6.82
      vertex 0.9815 45.815 6.82
      vertex 0.9815 0.985 6.82
    endloop
  endfacet
  facet normal 0 0 1
    outer loop
      vertex 39 10.1612 6.82
      vertex 38 44.815 6.82
      vertex 38 10.1612 6.82
    endloop
  endfacet
  facet normal 0 0 1
    outer loop
      vertex 38 44.815 6.82
      vertex 0.9815 45.815 6.82
      vertex 1.9815 44.815 6.82
    endloop
  endfacet
  facet normal 0 -0 1
    outer loop
      vertex 39 10.1612 6.82
      vertex 39 45.815 6.82
      vertex 38 44.815 6.82
    endloop
  endfacet
  facet normal 0 0 1
    outer loop
      vertex 39 45.815 6.82
      vertex 0.9815 45.815 6.82
      vertex 38 44.815 6.82
    endloop
  endfacet
  facet normal 0.996189 -0.0872239 0
    outer loop
      vertex 6.7265 39.9191 0
      vertex 6.7113 39.7455 2
      vertex 6.7113 39.7455 0
    endloop
  endfacet
  facet normal 0.996189 -0.0872239 0
    outer loop
      vertex 6.7265 39.9191 0
      vertex 6.7265 39.9191 2
      vertex 6.7113 39.7455 2
    endloop
  endfacet
  facet normal 0.965958 -0.258698 0
    outer loop
      vertex 6.7716 40.0875 0
      vertex 6.7265 39.9191 2
      vertex 6.7265 39.9191 0
    endloop
  endfacet
  facet normal 0.965958 -0.258698 0
    outer loop
      vertex 6.7716 40.0875 0
      vertex 6.7716 40.0875 2
      vertex 6.7265 39.9191 2
    endloop
  endfacet
  facet normal 0.906256 -0.422728 0
    outer loop
      vertex 6.8453 40.2455 0
      vertex 6.7716 40.0875 2
      vertex 6.7716 40.0875 0
    endloop
  endfacet
  facet normal 0.906256 -0.422728 0
    outer loop
      vertex 6.8453 40.2455 0
      vertex 6.8453 40.2455 2
      vertex 6.7716 40.0875 2
    endloop
  endfacet
  facet normal 0.819205 -0.573501 0
    outer loop
      vertex 6.9452 40.3882 0
      vertex 6.8453 40.2455 2
      vertex 6.8453 40.2455 0
    endloop
  endfacet
  facet normal 0.819205 -0.573501 0
    outer loop
      vertex 6.9452 40.3882 0
      vertex 6.9452 40.3882 2
      vertex 6.8453 40.2455 2
    endloop
  endfacet
  facet normal 0.707107 -0.707107 0
    outer loop
      vertex 7.0685 40.5115 0
      vertex 6.9452 40.3882 2
      vertex 6.9452 40.3882 0
    endloop
  endfacet
  facet normal 0.707107 -0.707107 0
    outer loop
      vertex 7.0685 40.5115 0
      vertex 7.0685 40.5115 2
      vertex 6.9452 40.3882 2
    endloop
  endfacet
  facet normal 0.573616 -0.819124 0
    outer loop
      vertex 7.2113 40.6115 0
      vertex 7.0685 40.5115 2
      vertex 7.0685 40.5115 0
    endloop
  endfacet
  facet normal 0.573616 -0.819124 0
    outer loop
      vertex 7.2113 40.6115 0
      vertex 7.2113 40.6115 2
      vertex 7.0685 40.5115 2
    endloop
  endfacet
  facet normal 0.422257 -0.906476 0
    outer loop
      vertex 7.3693 40.6851 0
      vertex 7.2113 40.6115 2
      vertex 7.2113 40.6115 0
    endloop
  endfacet
  facet normal 0.422257 -0.906476 0
    outer loop
      vertex 7.3693 40.6851 0
      vertex 7.3693 40.6851 2
      vertex 7.2113 40.6115 2
    endloop
  endfacet
  facet normal 0.259377 -0.965776 0
    outer loop
      vertex 7.5376 40.7303 0
      vertex 7.3693 40.6851 2
      vertex 7.3693 40.6851 0
    endloop
  endfacet
  facet normal 0.259377 -0.965776 0
    outer loop
      vertex 7.5376 40.7303 0
      vertex 7.5376 40.7303 2
      vertex 7.3693 40.6851 2
    endloop
  endfacet
  facet normal 0.0871741 -0.996193 0
    outer loop
      vertex 7.7113 40.7455 0
      vertex 7.5376 40.7303 2
      vertex 7.5376 40.7303 0
    endloop
  endfacet
  facet normal 0.0871741 -0.996193 0
    outer loop
      vertex 7.7113 40.7455 0
      vertex 7.7113 40.7455 2
      vertex 7.5376 40.7303 2
    endloop
  endfacet
  facet normal 1 0 0
    outer loop
      vertex 6.7113 39.7455 0
      vertex 6.7113 20.7455 2
      vertex 6.7113 20.7455 0
    endloop
  endfacet
  facet normal 1 0 -0
    outer loop
      vertex 6.7113 39.7455 0
      vertex 6.7113 39.7455 2
      vertex 6.7113 20.7455 2
    endloop
  endfacet
  facet normal 0.0871741 0.996193 0
    outer loop
      vertex 7.5376 19.7607 2
      vertex 7.7113 19.7455 0
      vertex 7.5376 19.7607 0
    endloop
  endfacet
  facet normal 0.0871741 0.996193 0
    outer loop
      vertex 7.5376 19.7607 2
      vertex 7.7113 19.7455 2
      vertex 7.7113 19.7455 0
    endloop
  endfacet
  facet normal 0.258895 0.965906 0
    outer loop
      vertex 7.3693 19.8058 2
      vertex 7.5376 19.7607 0
      vertex 7.3693 19.8058 0
    endloop
  endfacet
  facet normal 0.258895 0.965906 0
    outer loop
      vertex 7.3693 19.8058 2
      vertex 7.5376 19.7607 2
      vertex 7.5376 19.7607 0
    endloop
  endfacet
  facet normal 0.422587 0.906322 0
    outer loop
      vertex 7.2113 19.8794 2
      vertex 7.3693 19.8058 0
      vertex 7.2113 19.8794 0
    endloop
  endfacet
  facet normal 0.422587 0.906322 0
    outer loop
      vertex 7.2113 19.8794 2
      vertex 7.3693 19.8058 2
      vertex 7.3693 19.8058 0
    endloop
  endfacet
  facet normal 0.573539 0.819178 0
    outer loop
      vertex 7.0685 19.9794 2
      vertex 7.2113 19.8794 0
      vertex 7.0685 19.9794 0
    endloop
  endfacet
  facet normal 0.573539 0.819178 0
    outer loop
      vertex 7.0685 19.9794 2
      vertex 7.2113 19.8794 2
      vertex 7.2113 19.8794 0
    endloop
  endfacet
  facet normal 0.706963 0.70725 0
    outer loop
      vertex 6.9452 20.1027 2
      vertex 7.0685 19.9794 0
      vertex 6.9452 20.1027 0
    endloop
  endfacet
  facet normal 0.706963 0.70725 0
    outer loop
      vertex 6.9452 20.1027 2
      vertex 7.0685 19.9794 2
      vertex 7.0685 19.9794 0
    endloop
  endfacet
  facet normal 0.819375 0.573258 0
    outer loop
      vertex 6.9452 20.1027 2
      vertex 6.9452 20.1027 0
      vertex 6.8453 20.2455 0
    endloop
  endfacet
  facet normal 0.819375 0.573258 0
    outer loop
      vertex 6.8453 20.2455 2
      vertex 6.9452 20.1027 2
      vertex 6.8453 20.2455 0
    endloop
  endfacet
  facet normal 0.906236 0.422772 0
    outer loop
      vertex 6.8453 20.2455 2
      vertex 6.8453 20.2455 0
      vertex 6.7716 20.4034 0
    endloop
  endfacet
  facet normal 0.906236 0.422772 0
    outer loop
      vertex 6.7716 20.4034 2
      vertex 6.8453 20.2455 2
      vertex 6.7716 20.4034 0
    endloop
  endfacet
  facet normal 0.965947 0.258741 0
    outer loop
      vertex 6.7716 20.4034 2
      vertex 6.7716 20.4034 0
      vertex 6.7265 20.5718 0
    endloop
  endfacet
  facet normal 0.965947 0.258741 0
    outer loop
      vertex 6.7265 20.5718 2
      vertex 6.7716 20.4034 2
      vertex 6.7265 20.5718 0
    endloop
  endfacet
  facet normal 0.996191 0.087199 0
    outer loop
      vertex 6.7265 20.5718 2
      vertex 6.7265 20.5718 0
      vertex 6.7113 20.7455 0
    endloop
  endfacet
  facet normal 0.996191 0.087199 0
    outer loop
      vertex 6.7113 20.7455 2
      vertex 6.7265 20.5718 2
      vertex 6.7113 20.7455 0
    endloop
  endfacet
  facet normal 0 1 0
    outer loop
      vertex 7.7113 19.7455 2
      vertex 26.7113 19.7455 0
      vertex 7.7113 19.7455 0
    endloop
  endfacet
  facet normal -0 1 0
    outer loop
      vertex 7.7113 19.7455 2
      vertex 26.7113 19.7455 2
      vertex 26.7113 19.7455 0
    endloop
  endfacet
  facet normal -0.996923 0.0783875 0
    outer loop
      vertex 27.699 20.589 2
      vertex 27.7113 20.7455 0
      vertex 27.699 20.589 0
    endloop
  endfacet
  facet normal -0.996923 0.0783875 0
    outer loop
      vertex 27.699 20.589 2
      vertex 27.7113 20.7455 2
      vertex 27.7113 20.7455 0
    endloop
  endfacet
  facet normal -0.97227 0.23386 0
    outer loop
      vertex 27.6623 20.4364 2
      vertex 27.699 20.589 0
      vertex 27.6623 20.4364 0
    endloop
  endfacet
  facet normal -0.97227 0.23386 0
    outer loop
      vertex 27.6623 20.4364 2
      vertex 27.699 20.589 2
      vertex 27.699 20.589 0
    endloop
  endfacet
  facet normal -0.923998 0.382397 0
    outer loop
      vertex 27.6023 20.2915 2
      vertex 27.6623 20.4364 0
      vertex 27.6023 20.2915 0
    endloop
  endfacet
  facet normal -0.923998 0.382397 0
    outer loop
      vertex 27.6023 20.2915 2
      vertex 27.6623 20.4364 2
      vertex 27.6623 20.4364 0
    endloop
  endfacet
  facet normal -0.852602 0.522561 0
    outer loop
      vertex 27.5203 20.1577 2
      vertex 27.6023 20.2915 0
      vertex 27.5203 20.1577 0
    endloop
  endfacet
  facet normal -0.852602 0.522561 0
    outer loop
      vertex 27.5203 20.1577 2
      vertex 27.6023 20.2915 2
      vertex 27.6023 20.2915 0
    endloop
  endfacet
  facet normal -0.760461 0.649384 0
    outer loop
      vertex 27.4184 20.0383 2
      vertex 27.5203 20.1577 0
      vertex 27.4184 20.0383 0
    endloop
  endfacet
  facet normal -0.760461 0.649384 0
    outer loop
      vertex 27.4184 20.0383 2
      vertex 27.5203 20.1577 2
      vertex 27.5203 20.1577 0
    endloop
  endfacet
  facet normal -0.649478 0.76038 0
    outer loop
      vertex 27.2991 19.9364 2
      vertex 27.4184 20.0383 0
      vertex 27.2991 19.9364 0
    endloop
  endfacet
  facet normal -0.649478 0.76038 0
    outer loop
      vertex 27.2991 19.9364 2
      vertex 27.4184 20.0383 2
      vertex 27.4184 20.0383 0
    endloop
  endfacet
  facet normal -0.522486 0.852648 0
    outer loop
      vertex 27.1653 19.8544 2
      vertex 27.2991 19.9364 0
      vertex 27.1653 19.8544 0
    endloop
  endfacet
  facet normal -0.522486 0.852648 0
    outer loop
      vertex 27.1653 19.8544 2
      vertex 27.2991 19.9364 2
      vertex 27.2991 19.9364 0
    endloop
  endfacet
  facet normal -0.382624 0.923904 0
    outer loop
      vertex 27.0203 19.7944 2
      vertex 27.1653 19.8544 0
      vertex 27.0203 19.7944 0
    endloop
  endfacet
  facet normal -0.382624 0.923904 0
    outer loop
      vertex 27.0203 19.7944 2
      vertex 27.1653 19.8544 2
      vertex 27.1653 19.8544 0
    endloop
  endfacet
  facet normal -0.233469 0.972364 0
    outer loop
      vertex 26.8677 19.7578 2
      vertex 27.0203 19.7944 0
      vertex 26.8677 19.7578 0
    endloop
  endfacet
  facet normal -0.233469 0.972364 0
    outer loop
      vertex 26.8677 19.7578 2
      vertex 27.0203 19.7944 2
      vertex 27.0203 19.7944 0
    endloop
  endfacet
  facet normal -0.0784658 0.996917 0
    outer loop
      vertex 26.7113 19.7455 2
      vertex 26.8677 19.7578 0
      vertex 26.7113 19.7455 0
    endloop
  endfacet
  facet normal -0.0784658 0.996917 0
    outer loop
      vertex 26.7113 19.7455 2
      vertex 26.8677 19.7578 2
      vertex 26.8677 19.7578 0
    endloop
  endfacet
  facet normal -1 0 0
    outer loop
      vertex 27.7113 20.7455 2
      vertex 27.7113 39.7455 0
      vertex 27.7113 20.7455 0
    endloop
  endfacet
  facet normal -1 0 0
    outer loop
      vertex 27.7113 20.7455 2
      vertex 27.7113 39.7455 2
      vertex 27.7113 39.7455 0
    endloop
  endfacet
  facet normal -0.0872239 -0.996189 0
    outer loop
      vertex 26.8849 40.7303 0
      vertex 26.7113 40.7455 2
      vertex 26.7113 40.7455 0
    endloop
  endfacet
  facet normal -0.0872239 -0.996189 0
    outer loop
      vertex 26.8849 40.7303 0
      vertex 26.8849 40.7303 2
      vertex 26.7113 40.7455 2
    endloop
  endfacet
  facet normal -0.259233 -0.965815 0
    outer loop
      vertex 27.0533 40.6851 0
      vertex 26.8849 40.7303 2
      vertex 26.8849 40.7303 0
    endloop
  endfacet
  facet normal -0.259233 -0.965815 0
    outer loop
      vertex 27.0533 40.6851 0
      vertex 27.0533 40.6851 2
      vertex 26.8849 40.7303 2
    endloop
  endfacet
  facet normal -0.422257 -0.906476 0
    outer loop
      vertex 27.2113 40.6115 0
      vertex 27.0533 40.6851 2
      vertex 27.0533 40.6851 0
    endloop
  endfacet
  facet normal -0.422257 -0.906476 0
    outer loop
      vertex 27.2113 40.6115 0
      vertex 27.2113 40.6115 2
      vertex 27.0533 40.6851 2
    endloop
  endfacet
  facet normal -0.573616 -0.819124 0
    outer loop
      vertex 27.3541 40.5115 0
      vertex 27.2113 40.6115 2
      vertex 27.2113 40.6115 0
    endloop
  endfacet
  facet normal -0.573616 -0.819124 0
    outer loop
      vertex 27.3541 40.5115 0
      vertex 27.3541 40.5115 2
      vertex 27.2113 40.6115 2
    endloop
  endfacet
  facet normal -0.707394 -0.70682 0
    outer loop
      vertex 27.4773 40.3882 2
      vertex 27.3541 40.5115 2
      vertex 27.3541 40.5115 0
    endloop
  endfacet
  facet normal -0.707394 -0.70682 0
    outer loop
      vertex 27.4773 40.3882 0
      vertex 27.4773 40.3882 2
      vertex 27.3541 40.5115 0
    endloop
  endfacet
  facet normal -0.818935 -0.573886 0
    outer loop
      vertex 27.5773 40.2455 2
      vertex 27.4773 40.3882 2
      vertex 27.4773 40.3882 0
    endloop
  endfacet
  facet normal -0.818935 -0.573886 0
    outer loop
      vertex 27.5773 40.2455 0
      vertex 27.5773 40.2455 2
      vertex 27.4773 40.3882 0
    endloop
  endfacet
  facet normal -0.906256 -0.422728 0
    outer loop
      vertex 27.651 40.0875 2
      vertex 27.5773 40.2455 2
      vertex 27.5773 40.2455 0
    endloop
  endfacet
  facet normal -0.906256 -0.422728 0
    outer loop
      vertex 27.651 40.0875 0
      vertex 27.651 40.0875 2
      vertex 27.5773 40.2455 0
    endloop
  endfacet
  facet normal -0.965958 -0.258698 0
    outer loop
      vertex 27.6961 39.9191 2
      vertex 27.651 40.0875 2
      vertex 27.651 40.0875 0
    endloop
  endfacet
  facet normal -0.965958 -0.258698 0
    outer loop
      vertex 27.6961 39.9191 0
      vertex 27.6961 39.9191 2
      vertex 27.651 40.0875 0
    endloop
  endfacet
  facet normal -0.996189 -0.0872239 0
    outer loop
      vertex 27.7113 39.7455 2
      vertex 27.6961 39.9191 2
      vertex 27.6961 39.9191 0
    endloop
  endfacet
  facet normal -0.996189 -0.0872239 0
    outer loop
      vertex 27.7113 39.7455 0
      vertex 27.7113 39.7455 2
      vertex 27.6961 39.9191 0
    endloop
  endfacet
  facet normal 0 -1 0
    outer loop
      vertex 26.7113 40.7455 0
      vertex 7.7113 40.7455 2
      vertex 7.7113 40.7455 0
    endloop
  endfacet
  facet normal 0 -1 0
    outer loop
      vertex 26.7113 40.7455 0
      vertex 26.7113 40.7455 2
      vertex 7.7113 40.7455 2
    endloop
  endfacet
  facet normal 0 1 0
    outer loop
      vertex -0.0185 4.9445 9.72
      vertex 0.9815 4.9445 8.78073
      vertex -0.0185 4.9445 8.78073
    endloop
  endfacet
  facet normal -0 1 0
    outer loop
      vertex -0.0185 4.9445 9.72
      vertex 0.9815 4.9445 9.72
      vertex 0.9815 4.9445 8.78073
    endloop
  endfacet
  facet normal 0 0 1
    outer loop
      vertex 0.9815 4.9445 8.78073
      vertex -0.0185 8.9894 8.78073
      vertex -0.0185 4.9445 8.78073
    endloop
  endfacet
  facet normal 0 -0 1
    outer loop
      vertex 0.9815 4.9445 8.78073
      vertex 0.9815 8.9894 8.78073
      vertex -0.0185 8.9894 8.78073
    endloop
  endfacet
  facet normal 0 -1 0
    outer loop
      vertex 0.9815 8.9894 8.78073
      vertex -0.0185 8.9894 9.72
      vertex -0.0185 8.9894 8.78073
    endloop
  endfacet
  facet normal 0 -1 0
    outer loop
      vertex 0.9815 8.9894 8.78073
      vertex 0.9815 8.9894 9.72
      vertex -0.0185 8.9894 9.72
    endloop
  endfacet
  facet normal 0 1 0
    outer loop
      vertex 1.9815 2.7189 2
      vertex 38 2.7189 1.5
      vertex 1.9815 2.7189 1.5
    endloop
  endfacet
  facet normal -0 1 0
    outer loop
      vertex 1.9815 2.7189 2
      vertex 38 2.7189 2
      vertex 38 2.7189 1.5
    endloop
  endfacet
  facet normal 0 -1 0
    outer loop
      vertex 38 10.4113 1.5
      vertex 1.9815 10.4113 2
      vertex 1.9815 10.4113 1.5
    endloop
  endfacet
  facet normal 0 -1 0
    outer loop
      vertex 38 10.4113 1.5
      vertex 38 10.4113 2
      vertex 1.9815 10.4113 2
    endloop
  endfacet
  facet normal 0 0 1
    outer loop
      vertex 38 2.7189 1.5
      vertex 1.9815 10.4113 1.5
      vertex 1.9815 2.7189 1.5
    endloop
  endfacet
  facet normal 0 -0 1
    outer loop
      vertex 38 2.7189 1.5
      vertex 38 10.4113 1.5
      vertex 1.9815 10.4113 1.5
    endloop
  endfacet
  facet normal 0 0 1
    outer loop
      vertex 40 4.1271 11.6988
      vertex 38 10.1612 11.6988
      vertex 38 4.1271 11.6988
    endloop
  endfacet
  facet normal 0 -0 1
    outer loop
      vertex 40 4.1271 11.6988
      vertex 40 10.1612 11.6988
      vertex 38 10.1612 11.6988
    endloop
  endfacet
endsolid OpenSCAD_Model
