solid OpenSCAD_Model
  facet normal -1.22461e-016 0 1
    outer loop
      vertex -14.25 16.5 -1.74506e-015
      vertex -14.25 -12 -1.74506e-015
      vertex -12.75 12 -1.56137e-015
    endloop
  endfacet
  facet normal -1.22461e-016 0 1
    outer loop
      vertex -9.99773 -10.4897 -1.22433e-015
      vertex -8.25 -12 -1.0103e-015
      vertex -0.25 -12 -3.06152e-017
    endloop
  endfacet
  facet normal -1.22461e-016 0 1
    outer loop
      vertex -0.25 -15.25 -3.06152e-017
      vertex -0.25 -12 -3.06152e-017
      vertex -8.25 -12 -1.0103e-015
    endloop
  endfacet
  facet normal -1.22461e-016 0 1
    outer loop
      vertex -0.25 -15.25 -3.06152e-017
      vertex -8.25 -12 -1.0103e-015
      vertex -8.25 -15.25 -1.0103e-015
    endloop
  endfacet
  facet normal -1.22461e-016 0 1
    outer loop
      vertex 14.25 16.5 1.74506e-015
      vertex 12.75 12 1.56137e-015
      vertex 14.25 -12 1.74506e-015
    endloop
  endfacet
  facet normal -1.22461e-016 0 1
    outer loop
      vertex 12.75 12 1.56137e-015
      vertex 12.75 -7.5 1.56137e-015
      vertex 14.25 -12 1.74506e-015
    endloop
  endfacet
  facet normal -1.22461e-016 0 1
    outer loop
      vertex 12.75 -7.5 1.56137e-015
      vertex 12.7091 -7.99377 1.55636e-015
      vertex 14.25 -12 1.74506e-015
    endloop
  endfacet
  facet normal -1.22461e-016 0 1
    outer loop
      vertex 12.7091 -7.99377 1.55636e-015
      vertex 12.5874 -8.47409 1.54147e-015
      vertex 14.25 -12 1.74506e-015
    endloop
  endfacet
  facet normal -1.22461e-016 0 1
    outer loop
      vertex 12.5874 -8.47409 1.54147e-015
      vertex 12.3884 -8.92784 1.51709e-015
      vertex 14.25 -12 1.74506e-015
    endloop
  endfacet
  facet normal -1.22461e-016 0 1
    outer loop
      vertex 12.3884 -8.92784 1.51709e-015
      vertex 12.1174 -9.34264 1.48391e-015
      vertex 14.25 -12 1.74506e-015
    endloop
  endfacet
  facet normal -1.22461e-016 0 1
    outer loop
      vertex 12.1174 -9.34264 1.48391e-015
      vertex 11.7818 -9.70717 1.44281e-015
      vertex 14.25 -12 1.74506e-015
    endloop
  endfacet
  facet normal -1.22461e-016 0 1
    outer loop
      vertex 11.7818 -9.70717 1.44281e-015
      vertex 11.3908 -10.0115 1.39493e-015
      vertex 14.25 -12 1.74506e-015
    endloop
  endfacet
  facet normal -1.22461e-016 0 1
    outer loop
      vertex 11.3908 -10.0115 1.39493e-015
      vertex 10.9551 -10.2473 1.34157e-015
      vertex 14.25 -12 1.74506e-015
    endloop
  endfacet
  facet normal -1.22461e-016 0 1
    outer loop
      vertex 10.9551 -10.2473 1.34157e-015
      vertex 10.4865 -10.4082 1.28418e-015
      vertex 14.25 -12 1.74506e-015
    endloop
  endfacet
  facet normal -1.22461e-016 0 1
    outer loop
      vertex 10.4865 -10.4082 1.28418e-015
      vertex 9.99773 -10.4897 1.22433e-015
      vertex 14.25 -12 1.74506e-015
    endloop
  endfacet
  facet normal -1.22461e-016 0 1
    outer loop
      vertex 9.99773 -10.4897 1.22433e-015
      vertex -0.25 -12 -3.06152e-017
      vertex 14.25 -12 1.74506e-015
    endloop
  endfacet
  facet normal -1.22461e-016 0 1
    outer loop
      vertex -10.4865 -10.4082 -1.28418e-015
      vertex -14.25 -12 -1.74506e-015
      vertex -8.25 -12 -1.0103e-015
    endloop
  endfacet
  facet normal -1.22461e-016 0 1
    outer loop
      vertex -10.4865 -10.4082 -1.28418e-015
      vertex -8.25 -12 -1.0103e-015
      vertex -9.99773 -10.4897 -1.22433e-015
    endloop
  endfacet
  facet normal -1.22461e-016 0 1
    outer loop
      vertex -10.9551 -10.2473 -1.34157e-015
      vertex -14.25 -12 -1.74506e-015
      vertex -10.4865 -10.4082 -1.28418e-015
    endloop
  endfacet
  facet normal -1.22461e-016 0 1
    outer loop
      vertex -11.3908 -10.0115 -1.39493e-015
      vertex -14.25 -12 -1.74506e-015
      vertex -10.9551 -10.2473 -1.34157e-015
    endloop
  endfacet
  facet normal -1.22461e-016 0 1
    outer loop
      vertex -11.7818 -9.70717 -1.44281e-015
      vertex -14.25 -12 -1.74506e-015
      vertex -11.3908 -10.0115 -1.39493e-015
    endloop
  endfacet
  facet normal -1.22461e-016 0 1
    outer loop
      vertex -12.1174 -9.34264 -1.48391e-015
      vertex -14.25 -12 -1.74506e-015
      vertex -11.7818 -9.70717 -1.44281e-015
    endloop
  endfacet
  facet normal -1.22461e-016 0 1
    outer loop
      vertex -12.3884 -8.92784 -1.51709e-015
      vertex -14.25 -12 -1.74506e-015
      vertex -12.1174 -9.34264 -1.48391e-015
    endloop
  endfacet
  facet normal -1.22461e-016 0 1
    outer loop
      vertex -12.5874 -8.47409 -1.54147e-015
      vertex -14.25 -12 -1.74506e-015
      vertex -12.3884 -8.92784 -1.51709e-015
    endloop
  endfacet
  facet normal -1.22461e-016 0 1
    outer loop
      vertex -12.7091 -7.99377 -1.55636e-015
      vertex -14.25 -12 -1.74506e-015
      vertex -12.5874 -8.47409 -1.54147e-015
    endloop
  endfacet
  facet normal -1.22461e-016 0 1
    outer loop
      vertex -14.25 -12 -1.74506e-015
      vertex -12.75 -7.5 -1.56137e-015
      vertex -12.75 12 -1.56137e-015
    endloop
  endfacet
  facet normal -1.22461e-016 0 1
    outer loop
      vertex -12.75 -7.5 -1.56137e-015
      vertex -14.25 -12 -1.74506e-015
      vertex -12.7091 -7.99377 -1.55636e-015
    endloop
  endfacet
  facet normal -1.22461e-016 0 1
    outer loop
      vertex -14.25 16.5 -1.74506e-015
      vertex -12.75 12 -1.56137e-015
      vertex -12.7091 12.4938 -1.55636e-015
    endloop
  endfacet
  facet normal -1.22461e-016 0 1
    outer loop
      vertex -14.25 16.5 -1.74506e-015
      vertex -12.7091 12.4938 -1.55636e-015
      vertex -12.5874 12.9741 -1.54147e-015
    endloop
  endfacet
  facet normal -1.22461e-016 0 1
    outer loop
      vertex -14.25 16.5 -1.74506e-015
      vertex -12.5874 12.9741 -1.54147e-015
      vertex -12.3884 13.4278 -1.51709e-015
    endloop
  endfacet
  facet normal -1.22461e-016 0 1
    outer loop
      vertex -14.25 16.5 -1.74506e-015
      vertex -12.3884 13.4278 -1.51709e-015
      vertex -12.1174 13.8426 -1.48391e-015
    endloop
  endfacet
  facet normal -1.22461e-016 0 1
    outer loop
      vertex -14.25 16.5 -1.74506e-015
      vertex -12.1174 13.8426 -1.48391e-015
      vertex -11.7818 14.2072 -1.44281e-015
    endloop
  endfacet
  facet normal -1.22461e-016 0 1
    outer loop
      vertex -14.25 16.5 -1.74506e-015
      vertex -11.7818 14.2072 -1.44281e-015
      vertex -11.3908 14.5115 -1.39493e-015
    endloop
  endfacet
  facet normal -1.22461e-016 0 1
    outer loop
      vertex -14.25 16.5 -1.74506e-015
      vertex -11.3908 14.5115 -1.39493e-015
      vertex -10.9551 14.7473 -1.34157e-015
    endloop
  endfacet
  facet normal -1.22461e-016 0 1
    outer loop
      vertex -14.25 16.5 -1.74506e-015
      vertex -10.9551 14.7473 -1.34157e-015
      vertex -10.4865 14.9082 -1.28418e-015
    endloop
  endfacet
  facet normal -1.22461e-016 0 1
    outer loop
      vertex -14.25 16.5 -1.74506e-015
      vertex -10.4865 14.9082 -1.28418e-015
      vertex -9.99773 14.9897 -1.22433e-015
    endloop
  endfacet
  facet normal -1.22461e-016 0 1
    outer loop
      vertex -14.25 16.5 -1.74506e-015
      vertex 9.99773 14.9897 1.22433e-015
      vertex 14.25 16.5 1.74506e-015
    endloop
  endfacet
  facet normal -1.22461e-016 0 1
    outer loop
      vertex -9.99773 14.9897 -1.22433e-015
      vertex 9.99773 14.9897 1.22433e-015
      vertex -14.25 16.5 -1.74506e-015
    endloop
  endfacet
  facet normal -1.22461e-016 0 1
    outer loop
      vertex 9.99773 14.9897 1.22433e-015
      vertex 10.4865 14.9082 1.28418e-015
      vertex 14.25 16.5 1.74506e-015
    endloop
  endfacet
  facet normal -1.22461e-016 0 1
    outer loop
      vertex 10.4865 14.9082 1.28418e-015
      vertex 10.9551 14.7473 1.34157e-015
      vertex 14.25 16.5 1.74506e-015
    endloop
  endfacet
  facet normal -1.22461e-016 0 1
    outer loop
      vertex 10.9551 14.7473 1.34157e-015
      vertex 11.3908 14.5115 1.39493e-015
      vertex 14.25 16.5 1.74506e-015
    endloop
  endfacet
  facet normal -1.22461e-016 0 1
    outer loop
      vertex 11.3908 14.5115 1.39493e-015
      vertex 11.7818 14.2072 1.44281e-015
      vertex 14.25 16.5 1.74506e-015
    endloop
  endfacet
  facet normal -1.22461e-016 0 1
    outer loop
      vertex 11.7818 14.2072 1.44281e-015
      vertex 12.1174 13.8426 1.48391e-015
      vertex 14.25 16.5 1.74506e-015
    endloop
  endfacet
  facet normal -1.22461e-016 0 1
    outer loop
      vertex 12.1174 13.8426 1.48391e-015
      vertex 12.3884 13.4278 1.51709e-015
      vertex 14.25 16.5 1.74506e-015
    endloop
  endfacet
  facet normal -1.22461e-016 0 1
    outer loop
      vertex 12.3884 13.4278 1.51709e-015
      vertex 12.5874 12.9741 1.54147e-015
      vertex 14.25 16.5 1.74506e-015
    endloop
  endfacet
  facet normal -1.22461e-016 0 1
    outer loop
      vertex 12.5874 12.9741 1.54147e-015
      vertex 12.7091 12.4938 1.55636e-015
      vertex 14.25 16.5 1.74506e-015
    endloop
  endfacet
  facet normal -1.22461e-016 0 1
    outer loop
      vertex 12.7091 12.4938 1.55636e-015
      vertex 12.75 12 1.56137e-015
      vertex 14.25 16.5 1.74506e-015
    endloop
  endfacet
  facet normal -1.22461e-016 0 1
    outer loop
      vertex -0.25 -12 -3.06152e-017
      vertex 9.99773 -10.4897 1.22433e-015
      vertex -9.99773 -10.4897 -1.22433e-015
    endloop
  endfacet
  facet normal 0 0 -1
    outer loop
      vertex 13.1791 -14.243 -4
      vertex 13.25 -13.75 -4
      vertex 14.25 -16.5 -4
    endloop
  endfacet
  facet normal 0 0 -1
    outer loop
      vertex 12.75 -7.5 -4
      vertex 14.25 16.5 -4
      vertex 14.25 -16.5 -4
    endloop
  endfacet
  facet normal 0 0 -1
    outer loop
      vertex 13.1791 -13.257 -4
      vertex 14.25 -16.5 -4
      vertex 13.25 -13.75 -4
    endloop
  endfacet
  facet normal 0 0 -1
    outer loop
      vertex 12.75 -7.5 -4
      vertex 14.25 -16.5 -4
      vertex 13.1791 -13.257 -4
    endloop
  endfacet
  facet normal 0 0 -1
    outer loop
      vertex 12.646 -12.4274 -4
      vertex 12.1174 -9.34264 -4
      vertex 12.3884 -8.92784 -4
    endloop
  endfacet
  facet normal 0 -0 -1
    outer loop
      vertex 12.75 -7.5 -4
      vertex 13.1791 -13.257 -4
      vertex 12.7091 -7.99377 -4
    endloop
  endfacet
  facet normal 0 0 -1
    outer loop
      vertex 12.646 -12.4274 -4
      vertex 12.227 -12.1582 -4
      vertex 12.1174 -9.34264 -4
    endloop
  endfacet
  facet normal 0 0 -1
    outer loop
      vertex 12.227 -12.1582 -4
      vertex 11.749 -12.0178 -4
      vertex 11.3908 -10.0115 -4
    endloop
  endfacet
  facet normal 0 0 -1
    outer loop
      vertex 11.2509 -12.0178 -4
      vertex 10.9551 -10.2473 -4
      vertex 11.749 -12.0178 -4
    endloop
  endfacet
  facet normal 8.86554e-016 1.45175e-016 -1
    outer loop
      vertex 10.773 -12.1582 -4
      vertex 10.4865 -10.4082 -4
      vertex 11.2509 -12.0178 -4
    endloop
  endfacet
  facet normal 0 0 -1
    outer loop
      vertex 10.354 -12.4274 -4
      vertex 9.99773 -10.4897 -4
      vertex 10.773 -12.1582 -4
    endloop
  endfacet
  facet normal 1.13047e-016 1.62516e-017 -1
    outer loop
      vertex 9.82088 -14.243 -4
      vertex -9.82088 -14.243 -4
      vertex 9.75 -13.75 -4
    endloop
  endfacet
  facet normal 1.07227e-016 -1.66849e-016 -1
    outer loop
      vertex 10.354 -15.0726 -4
      vertex -10.773 -15.3418 -4
      vertex -10.354 -15.0726 -4
    endloop
  endfacet
  facet normal 0 -0 -1
    outer loop
      vertex 13.1791 -14.243 -4
      vertex 14.25 -16.5 -4
      vertex 12.9722 -14.6961 -4
    endloop
  endfacet
  facet normal 9.34925e-017 2.75479e-016 -1
    outer loop
      vertex 11.2509 -15.4822 -4
      vertex 14.25 -16.5 -4
      vertex -14.25 -16.5 -4
    endloop
  endfacet
  facet normal 1.18414e-016 -2.76121e-015 -1
    outer loop
      vertex 11.2509 -15.4822 -4
      vertex -11.2509 -15.4822 -4
      vertex 10.773 -15.3418 -4
    endloop
  endfacet
  facet normal -0 -0 -1
    outer loop
      vertex 11.749 -15.4822 -4
      vertex 14.25 -16.5 -4
      vertex 11.2509 -15.4822 -4
    endloop
  endfacet
  facet normal 0 -0 -1
    outer loop
      vertex 12.227 -15.3418 -4
      vertex 14.25 -16.5 -4
      vertex 11.749 -15.4822 -4
    endloop
  endfacet
  facet normal 0 -0 -1
    outer loop
      vertex 12.646 -15.0726 -4
      vertex 14.25 -16.5 -4
      vertex 12.227 -15.3418 -4
    endloop
  endfacet
  facet normal 0 -0 -1
    outer loop
      vertex 12.9722 -14.6961 -4
      vertex 14.25 -16.5 -4
      vertex 12.646 -15.0726 -4
    endloop
  endfacet
  facet normal 0 0 -1
    outer loop
      vertex 14.25 16.5 -4
      vertex 12.75 -7.5 -4
      vertex 12.75 12 -4
    endloop
  endfacet
  facet normal 0 0 -1
    outer loop
      vertex 12.9722 -12.8039 -4
      vertex 12.646 -12.4274 -4
      vertex 12.3884 -8.92784 -4
    endloop
  endfacet
  facet normal 0 0 -1
    outer loop
      vertex 14.25 16.5 -4
      vertex 12.75 12 -4
      vertex 12.7091 12.4938 -4
    endloop
  endfacet
  facet normal 0 0 -1
    outer loop
      vertex 14.25 16.5 -4
      vertex 12.7091 12.4938 -4
      vertex 12.5874 12.9741 -4
    endloop
  endfacet
  facet normal 0 0 -1
    outer loop
      vertex 14.25 16.5 -4
      vertex 12.5874 12.9741 -4
      vertex 12.3884 13.4278 -4
    endloop
  endfacet
  facet normal 0 0 -1
    outer loop
      vertex 14.25 16.5 -4
      vertex 12.3884 13.4278 -4
      vertex 12.1174 13.8426 -4
    endloop
  endfacet
  facet normal 0 0 -1
    outer loop
      vertex 14.25 16.5 -4
      vertex 12.1174 13.8426 -4
      vertex 11.7818 14.2072 -4
    endloop
  endfacet
  facet normal 0 0 -1
    outer loop
      vertex 14.25 16.5 -4
      vertex 11.7818 14.2072 -4
      vertex 11.3908 14.5115 -4
    endloop
  endfacet
  facet normal 0 0 -1
    outer loop
      vertex 14.25 16.5 -4
      vertex 11.3908 14.5115 -4
      vertex 10.9551 14.7473 -4
    endloop
  endfacet
  facet normal 5.75948e-016 -1.08274e-015 -1
    outer loop
      vertex 14.25 16.5 -4
      vertex 10.9551 14.7473 -4
      vertex 10.4865 14.9082 -4
    endloop
  endfacet
  facet normal 3.33846e-017 2.00052e-016 -1
    outer loop
      vertex 14.25 16.5 -4
      vertex 10.4865 14.9082 -4
      vertex 9.99773 14.9897 -4
    endloop
  endfacet
  facet normal 9.34925e-017 3.08118e-017 -1
    outer loop
      vertex 14.25 16.5 -4
      vertex 9.99773 14.9897 -4
      vertex -14.25 16.5 -4
    endloop
  endfacet
  facet normal 1.11048e-016 3.12666e-016 -1
    outer loop
      vertex 9.99773 14.9897 -4
      vertex -9.99773 14.9897 -4
      vertex -14.25 16.5 -4
    endloop
  endfacet
  facet normal -0 0 -1
    outer loop
      vertex -9.99773 14.9897 -4
      vertex -10.4865 14.9082 -4
      vertex -14.25 16.5 -4
    endloop
  endfacet
  facet normal -0 0 -1
    outer loop
      vertex -10.4865 14.9082 -4
      vertex -10.9551 14.7473 -4
      vertex -14.25 16.5 -4
    endloop
  endfacet
  facet normal -0 0 -1
    outer loop
      vertex -10.9551 14.7473 -4
      vertex -11.3908 14.5115 -4
      vertex -14.25 16.5 -4
    endloop
  endfacet
  facet normal -0 0 -1
    outer loop
      vertex -11.3908 14.5115 -4
      vertex -11.7818 14.2072 -4
      vertex -14.25 16.5 -4
    endloop
  endfacet
  facet normal -0 0 -1
    outer loop
      vertex -11.7818 14.2072 -4
      vertex -12.1174 13.8426 -4
      vertex -14.25 16.5 -4
    endloop
  endfacet
  facet normal -0 0 -1
    outer loop
      vertex -12.1174 13.8426 -4
      vertex -12.3884 13.4278 -4
      vertex -14.25 16.5 -4
    endloop
  endfacet
  facet normal -0 0 -1
    outer loop
      vertex -12.3884 13.4278 -4
      vertex -12.5874 12.9741 -4
      vertex -14.25 16.5 -4
    endloop
  endfacet
  facet normal -0 0 -1
    outer loop
      vertex -12.5874 12.9741 -4
      vertex -12.7091 12.4938 -4
      vertex -14.25 16.5 -4
    endloop
  endfacet
  facet normal -0 0 -1
    outer loop
      vertex -12.7091 12.4938 -4
      vertex -12.75 12 -4
      vertex -14.25 16.5 -4
    endloop
  endfacet
  facet normal -0 0 -1
    outer loop
      vertex -12.75 -7.5 -4
      vertex -14.25 -16.5 -4
      vertex -14.25 16.5 -4
    endloop
  endfacet
  facet normal 0 0 -1
    outer loop
      vertex -12.75 -7.5 -4
      vertex -14.25 16.5 -4
      vertex -12.75 12 -4
    endloop
  endfacet
  facet normal -0 0 -1
    outer loop
      vertex -13.1791 -13.257 -4
      vertex -14.25 -16.5 -4
      vertex -12.75 -7.5 -4
    endloop
  endfacet
  facet normal 1.11048e-016 -7.09688e-018 -1
    outer loop
      vertex 9.82088 -13.257 -4
      vertex -9.99773 -10.4897 -4
      vertex 9.99773 -10.4897 -4
    endloop
  endfacet
  facet normal -0 0 -1
    outer loop
      vertex 10.0278 -12.8039 -4
      vertex 9.82088 -13.257 -4
      vertex 9.99773 -10.4897 -4
    endloop
  endfacet
  facet normal 1.13047e-016 -1.62516e-017 -1
    outer loop
      vertex -9.82088 -13.257 -4
      vertex 9.82088 -13.257 -4
      vertex 9.75 -13.75 -4
    endloop
  endfacet
  facet normal 1.13047e-016 7.22468e-018 -1
    outer loop
      vertex -9.99773 -10.4897 -4
      vertex 9.82088 -13.257 -4
      vertex -9.82088 -13.257 -4
    endloop
  endfacet
  facet normal 0 0 -1
    outer loop
      vertex 10.0278 -12.8039 -4
      vertex 9.99773 -10.4897 -4
      vertex 10.354 -12.4274 -4
    endloop
  endfacet
  facet normal 0 -0 -1
    outer loop
      vertex 10.4865 -10.4082 -4
      vertex 10.773 -12.1582 -4
      vertex 9.99773 -10.4897 -4
    endloop
  endfacet
  facet normal 8.96224e-016 1.49767e-016 -1
    outer loop
      vertex 10.9551 -10.2473 -4
      vertex 11.2509 -12.0178 -4
      vertex 10.4865 -10.4082 -4
    endloop
  endfacet
  facet normal 0 -0 -1
    outer loop
      vertex 11.3908 -10.0115 -4
      vertex 11.749 -12.0178 -4
      vertex 10.9551 -10.2473 -4
    endloop
  endfacet
  facet normal 0 -0 -1
    outer loop
      vertex 11.7818 -9.70717 -4
      vertex 12.227 -12.1582 -4
      vertex 11.3908 -10.0115 -4
    endloop
  endfacet
  facet normal 0 -0 -1
    outer loop
      vertex 12.1174 -9.34264 -4
      vertex 12.227 -12.1582 -4
      vertex 11.7818 -9.70717 -4
    endloop
  endfacet
  facet normal 0 0 -1
    outer loop
      vertex 12.9722 -12.8039 -4
      vertex 12.3884 -8.92784 -4
      vertex 12.5874 -8.47409 -4
    endloop
  endfacet
  facet normal 0 0 -1
    outer loop
      vertex 12.9722 -12.8039 -4
      vertex 12.5874 -8.47409 -4
      vertex 13.1791 -13.257 -4
    endloop
  endfacet
  facet normal 0 -0 -1
    outer loop
      vertex 12.7091 -7.99377 -4
      vertex 13.1791 -13.257 -4
      vertex 12.5874 -8.47409 -4
    endloop
  endfacet
  facet normal 1.13047e-016 -5.16277e-017 -1
    outer loop
      vertex -10.0278 -14.6961 -4
      vertex -9.82088 -14.243 -4
      vertex 9.82088 -14.243 -4
    endloop
  endfacet
  facet normal 0 -0 -1
    outer loop
      vertex -9.99773 -10.4897 -4
      vertex -9.82088 -13.257 -4
      vertex -10.0278 -12.8039 -4
    endloop
  endfacet
  facet normal 1.13869e-016 1.63697e-017 -1
    outer loop
      vertex 9.75 -13.75 -4
      vertex -9.75 -13.75 -4
      vertex -9.82088 -13.257 -4
    endloop
  endfacet
  facet normal 1.13869e-016 -1.63697e-017 -1
    outer loop
      vertex -9.75 -13.75 -4
      vertex 9.75 -13.75 -4
      vertex -9.82088 -14.243 -4
    endloop
  endfacet
  facet normal -0 0 -1
    outer loop
      vertex -9.99773 -10.4897 -4
      vertex -10.773 -12.1582 -4
      vertex -10.4865 -10.4082 -4
    endloop
  endfacet
  facet normal 0 0 -1
    outer loop
      vertex -11.2509 -12.0178 -4
      vertex -10.9551 -10.2473 -4
      vertex -10.4865 -10.4082 -4
    endloop
  endfacet
  facet normal -0 0 -1
    outer loop
      vertex -10.9551 -10.2473 -4
      vertex -11.749 -12.0178 -4
      vertex -11.3908 -10.0115 -4
    endloop
  endfacet
  facet normal 0 0 -1
    outer loop
      vertex -10.0278 -12.8039 -4
      vertex -10.354 -12.4274 -4
      vertex -9.99773 -10.4897 -4
    endloop
  endfacet
  facet normal 0 0 -1
    outer loop
      vertex -12.227 -12.1582 -4
      vertex -11.7818 -9.70717 -4
      vertex -11.3908 -10.0115 -4
    endloop
  endfacet
  facet normal 0 0 -1
    outer loop
      vertex -10.354 -12.4274 -4
      vertex -10.773 -12.1582 -4
      vertex -9.99773 -10.4897 -4
    endloop
  endfacet
  facet normal 0 0 -1
    outer loop
      vertex -10.773 -12.1582 -4
      vertex -11.2509 -12.0178 -4
      vertex -10.4865 -10.4082 -4
    endloop
  endfacet
  facet normal 0 0 -1
    outer loop
      vertex -12.227 -12.1582 -4
      vertex -12.1174 -9.34264 -4
      vertex -11.7818 -9.70717 -4
    endloop
  endfacet
  facet normal 0 0 -1
    outer loop
      vertex -11.2509 -12.0178 -4
      vertex -11.749 -12.0178 -4
      vertex -10.9551 -10.2473 -4
    endloop
  endfacet
  facet normal 0 0 -1
    outer loop
      vertex -12.646 -12.4274 -4
      vertex -12.3884 -8.92784 -4
      vertex -12.1174 -9.34264 -4
    endloop
  endfacet
  facet normal -0 0 -1
    outer loop
      vertex -11.749 -12.0178 -4
      vertex -12.227 -12.1582 -4
      vertex -11.3908 -10.0115 -4
    endloop
  endfacet
  facet normal 0 0 -1
    outer loop
      vertex -12.9722 -12.8039 -4
      vertex -12.5874 -8.47409 -4
      vertex -12.3884 -8.92784 -4
    endloop
  endfacet
  facet normal -0 0 -1
    outer loop
      vertex -12.227 -12.1582 -4
      vertex -12.646 -12.4274 -4
      vertex -12.1174 -9.34264 -4
    endloop
  endfacet
  facet normal 0 0 -1
    outer loop
      vertex -13.1791 -13.257 -4
      vertex -12.7091 -7.99377 -4
      vertex -12.5874 -8.47409 -4
    endloop
  endfacet
  facet normal -0 0 -1
    outer loop
      vertex -12.646 -12.4274 -4
      vertex -12.9722 -12.8039 -4
      vertex -12.3884 -8.92784 -4
    endloop
  endfacet
  facet normal 1.18414e-016 -3.48911e-016 -1
    outer loop
      vertex 11.2509 -15.4822 -4
      vertex -14.25 -16.5 -4
      vertex -11.2509 -15.4822 -4
    endloop
  endfacet
  facet normal -0 0 -1
    outer loop
      vertex -12.9722 -12.8039 -4
      vertex -13.1791 -13.257 -4
      vertex -12.5874 -8.47409 -4
    endloop
  endfacet
  facet normal 0 0 -1
    outer loop
      vertex -13.1791 -13.257 -4
      vertex -12.75 -7.5 -4
      vertex -12.7091 -7.99377 -4
    endloop
  endfacet
  facet normal -0 0 -1
    outer loop
      vertex -13.25 -13.75 -4
      vertex -14.25 -16.5 -4
      vertex -13.1791 -13.257 -4
    endloop
  endfacet
  facet normal -0 0 -1
    outer loop
      vertex -13.1791 -14.243 -4
      vertex -14.25 -16.5 -4
      vertex -13.25 -13.75 -4
    endloop
  endfacet
  facet normal -0 0 -1
    outer loop
      vertex -12.9722 -14.6961 -4
      vertex -14.25 -16.5 -4
      vertex -13.1791 -14.243 -4
    endloop
  endfacet
  facet normal -0 0 -1
    outer loop
      vertex -12.646 -15.0726 -4
      vertex -14.25 -16.5 -4
      vertex -12.9722 -14.6961 -4
    endloop
  endfacet
  facet normal -0 0 -1
    outer loop
      vertex -12.227 -15.3418 -4
      vertex -14.25 -16.5 -4
      vertex -12.646 -15.0726 -4
    endloop
  endfacet
  facet normal -0 0 -1
    outer loop
      vertex -11.749 -15.4822 -4
      vertex -14.25 -16.5 -4
      vertex -12.227 -15.3418 -4
    endloop
  endfacet
  facet normal 1.03056e-016 1.60359e-016 -1
    outer loop
      vertex 10.773 -15.3418 -4
      vertex -10.773 -15.3418 -4
      vertex 10.354 -15.0726 -4
    endloop
  endfacet
  facet normal -0 0 -1
    outer loop
      vertex -11.2509 -15.4822 -4
      vertex -14.25 -16.5 -4
      vertex -11.749 -15.4822 -4
    endloop
  endfacet
  facet normal 1.03056e-016 -3.50975e-016 -1
    outer loop
      vertex -11.2509 -15.4822 -4
      vertex -10.773 -15.3418 -4
      vertex 10.773 -15.3418 -4
    endloop
  endfacet
  facet normal 1.07227e-016 9.29138e-017 -1
    outer loop
      vertex -10.354 -15.0726 -4
      vertex 10.0278 -14.6961 -4
      vertex 10.354 -15.0726 -4
    endloop
  endfacet
  facet normal 1.10714e-016 -9.59361e-017 -1
    outer loop
      vertex 10.0278 -14.6961 -4
      vertex -10.354 -15.0726 -4
      vertex -10.0278 -14.6961 -4
    endloop
  endfacet
  facet normal 1.10714e-016 5.05624e-017 -1
    outer loop
      vertex 10.0278 -14.6961 -4
      vertex -10.0278 -14.6961 -4
      vertex 9.82088 -14.243 -4
    endloop
  endfacet
  facet normal 0 1 -0
    outer loop
      vertex -14.25 16.5 -4
      vertex -14.25 16.5 -1.74506e-015
      vertex 14.25 16.5 1.74506e-015
    endloop
  endfacet
  facet normal 0 1 -0
    outer loop
      vertex 14.25 16.5 -4
      vertex -14.25 16.5 -4
      vertex 14.25 16.5 1.74506e-015
    endloop
  endfacet
  facet normal 1 0 7.10543e-016
    outer loop
      vertex 14.25 -12 1.74506e-015
      vertex 14.25 -12 2.5
      vertex 14.25 -16.5 2.5
    endloop
  endfacet
  facet normal 1 0 0
    outer loop
      vertex 14.25 -16.5 -4
      vertex 14.25 16.5 -4
      vertex 14.25 -12 1.74506e-015
    endloop
  endfacet
  facet normal 1 0 -0
    outer loop
      vertex 14.25 16.5 -4
      vertex 14.25 16.5 1.74506e-015
      vertex 14.25 -12 1.74506e-015
    endloop
  endfacet
  facet normal 1 -2.42921e-016 2.73286e-016
    outer loop
      vertex 14.25 -16.5 -4
      vertex 14.25 -12 1.74506e-015
      vertex 14.25 -16.5 2.5
    endloop
  endfacet
  facet normal 0 -1 0
    outer loop
      vertex -14.25 -16.5 2.5
      vertex 14.25 -16.5 -4
      vertex 14.25 -16.5 2.5
    endloop
  endfacet
  facet normal 0 -1 0
    outer loop
      vertex -14.25 -16.5 2.5
      vertex -14.25 -16.5 -4
      vertex 14.25 -16.5 -4
    endloop
  endfacet
  facet normal -1 -1.51825e-016 -2.73286e-016
    outer loop
      vertex -14.25 -12 -1.74506e-015
      vertex -14.25 -16.5 -4
      vertex -14.25 -16.5 2.5
    endloop
  endfacet
  facet normal -1 -0 -0
    outer loop
      vertex -14.25 -12 2.5
      vertex -14.25 -12 -1.74506e-015
      vertex -14.25 -16.5 2.5
    endloop
  endfacet
  facet normal -1 -0 -4.44089e-016
    outer loop
      vertex -14.25 16.5 -4
      vertex -14.25 -16.5 -4
      vertex -14.25 -12 -1.74506e-015
    endloop
  endfacet
  facet normal -1 -0 -4.44089e-016
    outer loop
      vertex -14.25 16.5 -1.74506e-015
      vertex -14.25 16.5 -4
      vertex -14.25 -12 -1.74506e-015
    endloop
  endfacet
  facet normal -0.164604 0.98636 0
    outer loop
      vertex 9.99773 -10.4897 -4
      vertex 9.99773 -10.4897 1.22433e-015
      vertex 10.4865 -10.4082 1.28418e-015
    endloop
  endfacet
  facet normal -0.164604 0.98636 0
    outer loop
      vertex 10.4865 -10.4082 -4
      vertex 9.99773 -10.4897 -4
      vertex 10.4865 -10.4082 1.28418e-015
    endloop
  endfacet
  facet normal -0.324687 0.945821 0
    outer loop
      vertex 10.4865 -10.4082 -4
      vertex 10.4865 -10.4082 1.28418e-015
      vertex 10.9551 -10.2473 1.34157e-015
    endloop
  endfacet
  facet normal -0.324687 0.945821 0
    outer loop
      vertex 10.9551 -10.2473 -4
      vertex 10.4865 -10.4082 -4
      vertex 10.9551 -10.2473 1.34157e-015
    endloop
  endfacet
  facet normal -0.475952 0.879471 0
    outer loop
      vertex 10.9551 -10.2473 -4
      vertex 10.9551 -10.2473 1.34157e-015
      vertex 11.3908 -10.0115 1.39493e-015
    endloop
  endfacet
  facet normal -0.475952 0.879471 0
    outer loop
      vertex 11.3908 -10.0115 -4
      vertex 10.9551 -10.2473 -4
      vertex 11.3908 -10.0115 1.39493e-015
    endloop
  endfacet
  facet normal -0.614213 0.78914 0
    outer loop
      vertex 11.3908 -10.0115 -4
      vertex 11.3908 -10.0115 1.39493e-015
      vertex 11.7818 -9.70717 1.44281e-015
    endloop
  endfacet
  facet normal -0.614213 0.78914 0
    outer loop
      vertex 11.7818 -9.70717 -4
      vertex 11.3908 -10.0115 -4
      vertex 11.7818 -9.70717 1.44281e-015
    endloop
  endfacet
  facet normal -0.735713 0.677293 0
    outer loop
      vertex 12.1174 -9.34264 -4
      vertex 11.7818 -9.70717 1.44281e-015
      vertex 12.1174 -9.34264 1.48391e-015
    endloop
  endfacet
  facet normal -0.735713 0.677293 0
    outer loop
      vertex 12.1174 -9.34264 -4
      vertex 11.7818 -9.70717 -4
      vertex 11.7818 -9.70717 1.44281e-015
    endloop
  endfacet
  facet normal -0.837169 0.546944 0
    outer loop
      vertex 12.3884 -8.92784 -4
      vertex 12.1174 -9.34264 1.48391e-015
      vertex 12.3884 -8.92784 1.51709e-015
    endloop
  endfacet
  facet normal -0.837169 0.546944 0
    outer loop
      vertex 12.3884 -8.92784 -4
      vertex 12.1174 -9.34264 -4
      vertex 12.1174 -9.34264 1.48391e-015
    endloop
  endfacet
  facet normal -0.915772 0.401699 0
    outer loop
      vertex 12.5874 -8.47409 -4
      vertex 12.3884 -8.92784 1.51709e-015
      vertex 12.5874 -8.47409 1.54147e-015
    endloop
  endfacet
  facet normal -0.915772 0.401699 0
    outer loop
      vertex 12.5874 -8.47409 -4
      vertex 12.3884 -8.92784 -4
      vertex 12.3884 -8.92784 1.51709e-015
    endloop
  endfacet
  facet normal -0.969403 0.245476 0
    outer loop
      vertex 12.7091 -7.99377 -4
      vertex 12.5874 -8.47409 1.54147e-015
      vertex 12.7091 -7.99377 1.55636e-015
    endloop
  endfacet
  facet normal -0.969403 0.245476 0
    outer loop
      vertex 12.7091 -7.99377 -4
      vertex 12.5874 -8.47409 -4
      vertex 12.5874 -8.47409 1.54147e-015
    endloop
  endfacet
  facet normal -0.996583 0.0825969 0
    outer loop
      vertex 12.75 -7.5 -4
      vertex 12.7091 -7.99377 1.55636e-015
      vertex 12.75 -7.5 1.56137e-015
    endloop
  endfacet
  facet normal -0.996583 0.0825969 0
    outer loop
      vertex 12.75 -7.5 -4
      vertex 12.7091 -7.99377 -4
      vertex 12.7091 -7.99377 1.55636e-015
    endloop
  endfacet
  facet normal -1 0 0
    outer loop
      vertex 12.75 12 -4
      vertex 12.75 -7.5 -4
      vertex 12.75 -7.5 1.56137e-015
    endloop
  endfacet
  facet normal -1 -0 -0
    outer loop
      vertex 12.75 12 1.56137e-015
      vertex 12.75 12 -4
      vertex 12.75 -7.5 1.56137e-015
    endloop
  endfacet
  facet normal -0.996583 -0.0825969 0
    outer loop
      vertex 12.7091 12.4938 1.55636e-015
      vertex 12.75 12 -4
      vertex 12.75 12 1.56137e-015
    endloop
  endfacet
  facet normal -0.996583 -0.0825969 -0
    outer loop
      vertex 12.7091 12.4938 1.55636e-015
      vertex 12.7091 12.4938 -4
      vertex 12.75 12 -4
    endloop
  endfacet
  facet normal -0.969403 -0.245476 0
    outer loop
      vertex 12.5874 12.9741 1.54147e-015
      vertex 12.7091 12.4938 -4
      vertex 12.7091 12.4938 1.55636e-015
    endloop
  endfacet
  facet normal -0.969403 -0.245476 -0
    outer loop
      vertex 12.5874 12.9741 1.54147e-015
      vertex 12.5874 12.9741 -4
      vertex 12.7091 12.4938 -4
    endloop
  endfacet
  facet normal -0.915772 -0.401699 0
    outer loop
      vertex 12.3884 13.4278 1.51709e-015
      vertex 12.5874 12.9741 -4
      vertex 12.5874 12.9741 1.54147e-015
    endloop
  endfacet
  facet normal -0.915772 -0.401699 -0
    outer loop
      vertex 12.3884 13.4278 1.51709e-015
      vertex 12.3884 13.4278 -4
      vertex 12.5874 12.9741 -4
    endloop
  endfacet
  facet normal -0.837169 -0.546944 0
    outer loop
      vertex 12.1174 13.8426 1.48391e-015
      vertex 12.3884 13.4278 -4
      vertex 12.3884 13.4278 1.51709e-015
    endloop
  endfacet
  facet normal -0.837169 -0.546944 -0
    outer loop
      vertex 12.1174 13.8426 1.48391e-015
      vertex 12.1174 13.8426 -4
      vertex 12.3884 13.4278 -4
    endloop
  endfacet
  facet normal -0.735713 -0.677293 0
    outer loop
      vertex 11.7818 14.2072 1.44281e-015
      vertex 12.1174 13.8426 -4
      vertex 12.1174 13.8426 1.48391e-015
    endloop
  endfacet
  facet normal -0.735713 -0.677293 -0
    outer loop
      vertex 11.7818 14.2072 1.44281e-015
      vertex 11.7818 14.2072 -4
      vertex 12.1174 13.8426 -4
    endloop
  endfacet
  facet normal -0.614213 -0.78914 0
    outer loop
      vertex 11.3908 14.5115 1.39493e-015
      vertex 11.7818 14.2072 -4
      vertex 11.7818 14.2072 1.44281e-015
    endloop
  endfacet
  facet normal -0.614213 -0.78914 -0
    outer loop
      vertex 11.3908 14.5115 1.39493e-015
      vertex 11.3908 14.5115 -4
      vertex 11.7818 14.2072 -4
    endloop
  endfacet
  facet normal -0.475952 -0.879471 0
    outer loop
      vertex 10.9551 14.7473 1.34157e-015
      vertex 11.3908 14.5115 -4
      vertex 11.3908 14.5115 1.39493e-015
    endloop
  endfacet
  facet normal -0.475952 -0.879471 -0
    outer loop
      vertex 10.9551 14.7473 1.34157e-015
      vertex 10.9551 14.7473 -4
      vertex 11.3908 14.5115 -4
    endloop
  endfacet
  facet normal -0.324687 -0.945821 0
    outer loop
      vertex 10.4865 14.9082 1.28418e-015
      vertex 10.9551 14.7473 -4
      vertex 10.9551 14.7473 1.34157e-015
    endloop
  endfacet
  facet normal -0.324687 -0.945821 -0
    outer loop
      vertex 10.4865 14.9082 1.28418e-015
      vertex 10.4865 14.9082 -4
      vertex 10.9551 14.7473 -4
    endloop
  endfacet
  facet normal -0.164604 -0.98636 0
    outer loop
      vertex 9.99773 14.9897 1.22433e-015
      vertex 10.4865 14.9082 -4
      vertex 10.4865 14.9082 1.28418e-015
    endloop
  endfacet
  facet normal -0.164604 -0.98636 -0
    outer loop
      vertex 9.99773 14.9897 1.22433e-015
      vertex 9.99773 14.9897 -4
      vertex 10.4865 14.9082 -4
    endloop
  endfacet
  facet normal 0 -1 0
    outer loop
      vertex -9.99773 14.9897 -1.22433e-015
      vertex 9.99773 14.9897 -4
      vertex 9.99773 14.9897 1.22433e-015
    endloop
  endfacet
  facet normal 0 -1 0
    outer loop
      vertex -9.99773 14.9897 -1.22433e-015
      vertex -9.99773 14.9897 -4
      vertex 9.99773 14.9897 -4
    endloop
  endfacet
  facet normal 0.164604 -0.98636 7.30987e-017
    outer loop
      vertex -10.4865 14.9082 -1.28418e-015
      vertex -9.99773 14.9897 -4
      vertex -9.99773 14.9897 -1.22433e-015
    endloop
  endfacet
  facet normal 0.164604 -0.98636 7.30987e-017
    outer loop
      vertex -10.4865 14.9082 -1.28418e-015
      vertex -10.4865 14.9082 -4
      vertex -9.99773 14.9897 -4
    endloop
  endfacet
  facet normal 0.324687 -0.945821 1.4419e-016
    outer loop
      vertex -10.9551 14.7473 -1.34157e-015
      vertex -10.4865 14.9082 -4
      vertex -10.4865 14.9082 -1.28418e-015
    endloop
  endfacet
  facet normal 0.324687 -0.945821 1.4419e-016
    outer loop
      vertex -10.9551 14.7473 -1.34157e-015
      vertex -10.9551 14.7473 -4
      vertex -10.4865 14.9082 -4
    endloop
  endfacet
  facet normal 0.475952 -0.879471 2.11365e-016
    outer loop
      vertex -11.3908 14.5115 -1.39493e-015
      vertex -10.9551 14.7473 -4
      vertex -10.9551 14.7473 -1.34157e-015
    endloop
  endfacet
  facet normal 0.475952 -0.879471 2.11365e-016
    outer loop
      vertex -11.3908 14.5115 -1.39493e-015
      vertex -11.3908 14.5115 -4
      vertex -10.9551 14.7473 -4
    endloop
  endfacet
  facet normal 0.614213 -0.78914 2.72766e-016
    outer loop
      vertex -11.7818 14.2072 -1.44281e-015
      vertex -11.3908 14.5115 -4
      vertex -11.3908 14.5115 -1.39493e-015
    endloop
  endfacet
  facet normal 0.614213 -0.78914 2.72766e-016
    outer loop
      vertex -11.7818 14.2072 -1.44281e-015
      vertex -11.7818 14.2072 -4
      vertex -11.3908 14.5115 -4
    endloop
  endfacet
  facet normal 0.735713 -0.677293 3.26722e-016
    outer loop
      vertex -12.1174 13.8426 -1.48391e-015
      vertex -11.7818 14.2072 -4
      vertex -11.7818 14.2072 -1.44281e-015
    endloop
  endfacet
  facet normal 0.735713 -0.677293 3.26722e-016
    outer loop
      vertex -12.1174 13.8426 -1.48391e-015
      vertex -12.1174 13.8426 -4
      vertex -11.7818 14.2072 -4
    endloop
  endfacet
  facet normal 0.837169 -0.546944 3.71778e-016
    outer loop
      vertex -12.3884 13.4278 -1.51709e-015
      vertex -12.1174 13.8426 -4
      vertex -12.1174 13.8426 -1.48391e-015
    endloop
  endfacet
  facet normal 0.837169 -0.546944 3.71778e-016
    outer loop
      vertex -12.3884 13.4278 -1.51709e-015
      vertex -12.3884 13.4278 -4
      vertex -12.1174 13.8426 -4
    endloop
  endfacet
  facet normal 0.915772 -0.401699 4.06684e-016
    outer loop
      vertex -12.5874 12.9741 -1.54147e-015
      vertex -12.3884 13.4278 -4
      vertex -12.3884 13.4278 -1.51709e-015
    endloop
  endfacet
  facet normal 0.915772 -0.401699 4.06684e-016
    outer loop
      vertex -12.5874 12.9741 -1.54147e-015
      vertex -12.5874 12.9741 -4
      vertex -12.3884 13.4278 -4
    endloop
  endfacet
  facet normal 0.969403 -0.245476 4.30501e-016
    outer loop
      vertex -12.7091 12.4938 -1.55636e-015
      vertex -12.5874 12.9741 -4
      vertex -12.5874 12.9741 -1.54147e-015
    endloop
  endfacet
  facet normal 0.969403 -0.245476 4.30501e-016
    outer loop
      vertex -12.7091 12.4938 -1.55636e-015
      vertex -12.7091 12.4938 -4
      vertex -12.5874 12.9741 -4
    endloop
  endfacet
  facet normal 0.996583 -0.0825969 4.42572e-016
    outer loop
      vertex -12.75 12 -1.56137e-015
      vertex -12.7091 12.4938 -4
      vertex -12.7091 12.4938 -1.55636e-015
    endloop
  endfacet
  facet normal 0.996583 -0.0825969 4.42572e-016
    outer loop
      vertex -12.75 12 -1.56137e-015
      vertex -12.75 12 -4
      vertex -12.7091 12.4938 -4
    endloop
  endfacet
  facet normal 1 0 4.44089e-016
    outer loop
      vertex -12.75 12 -4
      vertex -12.75 12 -1.56137e-015
      vertex -12.75 -7.5 -1.56137e-015
    endloop
  endfacet
  facet normal 1 -0 4.44089e-016
    outer loop
      vertex -12.75 -7.5 -4
      vertex -12.75 12 -4
      vertex -12.75 -7.5 -1.56137e-015
    endloop
  endfacet
  facet normal 0.996583 0.0825969 4.42572e-016
    outer loop
      vertex -12.7091 -7.99377 -4
      vertex -12.75 -7.5 -1.56137e-015
      vertex -12.7091 -7.99377 -1.55636e-015
    endloop
  endfacet
  facet normal 0.996583 0.0825969 4.42572e-016
    outer loop
      vertex -12.7091 -7.99377 -4
      vertex -12.75 -7.5 -4
      vertex -12.75 -7.5 -1.56137e-015
    endloop
  endfacet
  facet normal 0.969403 0.245476 4.30501e-016
    outer loop
      vertex -12.5874 -8.47409 -4
      vertex -12.7091 -7.99377 -1.55636e-015
      vertex -12.5874 -8.47409 -1.54147e-015
    endloop
  endfacet
  facet normal 0.969403 0.245476 4.30501e-016
    outer loop
      vertex -12.5874 -8.47409 -4
      vertex -12.7091 -7.99377 -4
      vertex -12.7091 -7.99377 -1.55636e-015
    endloop
  endfacet
  facet normal 0.915772 0.401699 4.06684e-016
    outer loop
      vertex -12.3884 -8.92784 -4
      vertex -12.5874 -8.47409 -1.54147e-015
      vertex -12.3884 -8.92784 -1.51709e-015
    endloop
  endfacet
  facet normal 0.915772 0.401699 4.06684e-016
    outer loop
      vertex -12.3884 -8.92784 -4
      vertex -12.5874 -8.47409 -4
      vertex -12.5874 -8.47409 -1.54147e-015
    endloop
  endfacet
  facet normal 0.837169 0.546944 3.71778e-016
    outer loop
      vertex -12.1174 -9.34264 -4
      vertex -12.3884 -8.92784 -1.51709e-015
      vertex -12.1174 -9.34264 -1.48391e-015
    endloop
  endfacet
  facet normal 0.837169 0.546944 3.71778e-016
    outer loop
      vertex -12.1174 -9.34264 -4
      vertex -12.3884 -8.92784 -4
      vertex -12.3884 -8.92784 -1.51709e-015
    endloop
  endfacet
  facet normal 0.735713 0.677293 3.26722e-016
    outer loop
      vertex -11.7818 -9.70717 -4
      vertex -12.1174 -9.34264 -1.48391e-015
      vertex -11.7818 -9.70717 -1.44281e-015
    endloop
  endfacet
  facet normal 0.735713 0.677293 3.26722e-016
    outer loop
      vertex -11.7818 -9.70717 -4
      vertex -12.1174 -9.34264 -4
      vertex -12.1174 -9.34264 -1.48391e-015
    endloop
  endfacet
  facet normal 0.614213 0.78914 2.72766e-016
    outer loop
      vertex -11.7818 -9.70717 -4
      vertex -11.7818 -9.70717 -1.44281e-015
      vertex -11.3908 -10.0115 -1.39493e-015
    endloop
  endfacet
  facet normal 0.614213 0.78914 2.72766e-016
    outer loop
      vertex -11.3908 -10.0115 -4
      vertex -11.7818 -9.70717 -4
      vertex -11.3908 -10.0115 -1.39493e-015
    endloop
  endfacet
  facet normal 0.475952 0.879471 2.11365e-016
    outer loop
      vertex -11.3908 -10.0115 -4
      vertex -11.3908 -10.0115 -1.39493e-015
      vertex -10.9551 -10.2473 -1.34157e-015
    endloop
  endfacet
  facet normal 0.475952 0.879471 2.11365e-016
    outer loop
      vertex -10.9551 -10.2473 -4
      vertex -11.3908 -10.0115 -4
      vertex -10.9551 -10.2473 -1.34157e-015
    endloop
  endfacet
  facet normal 0.324687 0.945821 1.4419e-016
    outer loop
      vertex -10.9551 -10.2473 -4
      vertex -10.9551 -10.2473 -1.34157e-015
      vertex -10.4865 -10.4082 -1.28418e-015
    endloop
  endfacet
  facet normal 0.324687 0.945821 1.4419e-016
    outer loop
      vertex -10.4865 -10.4082 -4
      vertex -10.9551 -10.2473 -4
      vertex -10.4865 -10.4082 -1.28418e-015
    endloop
  endfacet
  facet normal 0.164604 0.98636 7.30987e-017
    outer loop
      vertex -10.4865 -10.4082 -4
      vertex -10.4865 -10.4082 -1.28418e-015
      vertex -9.99773 -10.4897 -1.22433e-015
    endloop
  endfacet
  facet normal 0.164604 0.98636 7.30987e-017
    outer loop
      vertex -9.99773 -10.4897 -4
      vertex -10.4865 -10.4082 -4
      vertex -9.99773 -10.4897 -1.22433e-015
    endloop
  endfacet
  facet normal 0 1 -0
    outer loop
      vertex -9.99773 -10.4897 -4
      vertex -9.99773 -10.4897 -1.22433e-015
      vertex 9.99773 -10.4897 1.22433e-015
    endloop
  endfacet
  facet normal 0 1 -0
    outer loop
      vertex 9.99773 -10.4897 -4
      vertex -9.99773 -10.4897 -4
      vertex 9.99773 -10.4897 1.22433e-015
    endloop
  endfacet
  facet normal -0.281733 0.959493 -7.69937e-017
    outer loop
      vertex 11.749 -15.4822 -4
      vertex 11.749 -15.4822 2.5
      vertex 12.227 -15.3418 2.5
    endloop
  endfacet
  facet normal -0.281733 0.959493 -7.69937e-017
    outer loop
      vertex 12.227 -15.3418 -4
      vertex 11.749 -15.4822 -4
      vertex 12.227 -15.3418 2.5
    endloop
  endfacet
  facet normal -0.540638 0.841255 -1.47749e-016
    outer loop
      vertex 12.227 -15.3418 -4
      vertex 12.227 -15.3418 2.5
      vertex 12.646 -15.0726 2.5
    endloop
  endfacet
  facet normal -0.540638 0.841255 -1.47749e-016
    outer loop
      vertex 12.646 -15.0726 -4
      vertex 12.227 -15.3418 -4
      vertex 12.646 -15.0726 2.5
    endloop
  endfacet
  facet normal -0.755745 0.654866 -2.06534e-016
    outer loop
      vertex 12.9722 -14.6961 -4
      vertex 12.646 -15.0726 2.5
      vertex 12.9722 -14.6961 2.5
    endloop
  endfacet
  facet normal -0.755745 0.654866 -2.06534e-016
    outer loop
      vertex 12.9722 -14.6961 -4
      vertex 12.646 -15.0726 -4
      vertex 12.646 -15.0726 2.5
    endloop
  endfacet
  facet normal -0.90963 0.41542 -2.48589e-016
    outer loop
      vertex 13.1791 -14.243 -4
      vertex 12.9722 -14.6961 2.5
      vertex 13.1791 -14.243 2.5
    endloop
  endfacet
  facet normal -0.90963 0.41542 -2.48589e-016
    outer loop
      vertex 13.1791 -14.243 -4
      vertex 12.9722 -14.6961 -4
      vertex 12.9722 -14.6961 2.5
    endloop
  endfacet
  facet normal -0.98982 0.142326 -2.70504e-016
    outer loop
      vertex 13.25 -13.75 -4
      vertex 13.1791 -14.243 2.5
      vertex 13.25 -13.75 2.5
    endloop
  endfacet
  facet normal -0.98982 0.142326 -2.70504e-016
    outer loop
      vertex 13.25 -13.75 -4
      vertex 13.1791 -14.243 -4
      vertex 13.1791 -14.243 2.5
    endloop
  endfacet
  facet normal -0.98982 -0.142326 -2.70504e-016
    outer loop
      vertex 13.1791 -13.257 2.5
      vertex 13.25 -13.75 -4
      vertex 13.25 -13.75 2.5
    endloop
  endfacet
  facet normal -0.98982 -0.142326 -2.70504e-016
    outer loop
      vertex 13.1791 -13.257 2.5
      vertex 13.1791 -13.257 -4
      vertex 13.25 -13.75 -4
    endloop
  endfacet
  facet normal -0.90963 -0.41542 -2.48589e-016
    outer loop
      vertex 12.9722 -12.8039 2.5
      vertex 13.1791 -13.257 -4
      vertex 13.1791 -13.257 2.5
    endloop
  endfacet
  facet normal -0.90963 -0.41542 -2.48589e-016
    outer loop
      vertex 12.9722 -12.8039 2.5
      vertex 12.9722 -12.8039 -4
      vertex 13.1791 -13.257 -4
    endloop
  endfacet
  facet normal -0.755745 -0.654866 -2.06534e-016
    outer loop
      vertex 12.646 -12.4274 2.5
      vertex 12.9722 -12.8039 -4
      vertex 12.9722 -12.8039 2.5
    endloop
  endfacet
  facet normal -0.755745 -0.654866 -2.06534e-016
    outer loop
      vertex 12.646 -12.4274 2.5
      vertex 12.646 -12.4274 -4
      vertex 12.9722 -12.8039 -4
    endloop
  endfacet
  facet normal -0.540638 -0.841255 -1.47749e-016
    outer loop
      vertex 12.227 -12.1582 2.5
      vertex 12.646 -12.4274 -4
      vertex 12.646 -12.4274 2.5
    endloop
  endfacet
  facet normal -0.540638 -0.841255 -1.47749e-016
    outer loop
      vertex 12.227 -12.1582 2.5
      vertex 12.227 -12.1582 -4
      vertex 12.646 -12.4274 -4
    endloop
  endfacet
  facet normal -0.281733 -0.959493 -7.69937e-017
    outer loop
      vertex 11.749 -12.0178 2.5
      vertex 12.227 -12.1582 -4
      vertex 12.227 -12.1582 2.5
    endloop
  endfacet
  facet normal -0.281733 -0.959493 -7.69937e-017
    outer loop
      vertex 11.749 -12.0178 2.5
      vertex 11.749 -12.0178 -4
      vertex 12.227 -12.1582 -4
    endloop
  endfacet
  facet normal 0 -1 0
    outer loop
      vertex 11.2509 -12.0178 2.5
      vertex 11.749 -12.0178 -4
      vertex 11.749 -12.0178 2.5
    endloop
  endfacet
  facet normal 0 -1 0
    outer loop
      vertex 11.2509 -12.0178 2.5
      vertex 11.2509 -12.0178 -4
      vertex 11.749 -12.0178 -4
    endloop
  endfacet
  facet normal 0.281733 -0.959493 7.69937e-017
    outer loop
      vertex 10.773 -12.1582 2.5
      vertex 11.2509 -12.0178 -4
      vertex 11.2509 -12.0178 2.5
    endloop
  endfacet
  facet normal 0.281733 -0.959493 7.69937e-017
    outer loop
      vertex 10.773 -12.1582 2.5
      vertex 10.773 -12.1582 -4
      vertex 11.2509 -12.0178 -4
    endloop
  endfacet
  facet normal 0.540638 -0.841255 1.47749e-016
    outer loop
      vertex 10.354 -12.4274 2.5
      vertex 10.773 -12.1582 -4
      vertex 10.773 -12.1582 2.5
    endloop
  endfacet
  facet normal 0.540638 -0.841255 1.47749e-016
    outer loop
      vertex 10.354 -12.4274 2.5
      vertex 10.354 -12.4274 -4
      vertex 10.773 -12.1582 -4
    endloop
  endfacet
  facet normal 0.755745 -0.654866 2.06534e-016
    outer loop
      vertex 10.0278 -12.8039 2.5
      vertex 10.354 -12.4274 -4
      vertex 10.354 -12.4274 2.5
    endloop
  endfacet
  facet normal 0.755745 -0.654866 2.06534e-016
    outer loop
      vertex 10.0278 -12.8039 2.5
      vertex 10.0278 -12.8039 -4
      vertex 10.354 -12.4274 -4
    endloop
  endfacet
  facet normal 0.90963 -0.41542 2.48589e-016
    outer loop
      vertex 9.82088 -13.257 2.5
      vertex 10.0278 -12.8039 -4
      vertex 10.0278 -12.8039 2.5
    endloop
  endfacet
  facet normal 0.90963 -0.41542 2.48589e-016
    outer loop
      vertex 9.82088 -13.257 2.5
      vertex 9.82088 -13.257 -4
      vertex 10.0278 -12.8039 -4
    endloop
  endfacet
  facet normal 0.989824 -0.142296 2.70505e-016
    outer loop
      vertex 9.75 -13.75 2.5
      vertex 9.82088 -13.257 -4
      vertex 9.82088 -13.257 2.5
    endloop
  endfacet
  facet normal 0.989824 -0.142296 2.70505e-016
    outer loop
      vertex 9.75 -13.75 2.5
      vertex 9.75 -13.75 -4
      vertex 9.82088 -13.257 -4
    endloop
  endfacet
  facet normal 0.989824 0.142296 2.70505e-016
    outer loop
      vertex 9.82088 -14.243 -4
      vertex 9.75 -13.75 2.5
      vertex 9.82088 -14.243 2.5
    endloop
  endfacet
  facet normal 0.989824 0.142296 2.70505e-016
    outer loop
      vertex 9.82088 -14.243 -4
      vertex 9.75 -13.75 -4
      vertex 9.75 -13.75 2.5
    endloop
  endfacet
  facet normal 0.90963 0.41542 2.48589e-016
    outer loop
      vertex 10.0278 -14.6961 -4
      vertex 9.82088 -14.243 2.5
      vertex 10.0278 -14.6961 2.5
    endloop
  endfacet
  facet normal 0.90963 0.41542 2.48589e-016
    outer loop
      vertex 10.0278 -14.6961 -4
      vertex 9.82088 -14.243 -4
      vertex 9.82088 -14.243 2.5
    endloop
  endfacet
  facet normal 0.755745 0.654866 2.06534e-016
    outer loop
      vertex 10.354 -15.0726 -4
      vertex 10.0278 -14.6961 2.5
      vertex 10.354 -15.0726 2.5
    endloop
  endfacet
  facet normal 0.755745 0.654866 2.06534e-016
    outer loop
      vertex 10.354 -15.0726 -4
      vertex 10.0278 -14.6961 -4
      vertex 10.0278 -14.6961 2.5
    endloop
  endfacet
  facet normal 0.540638 0.841255 1.47749e-016
    outer loop
      vertex 10.354 -15.0726 -4
      vertex 10.354 -15.0726 2.5
      vertex 10.773 -15.3418 2.5
    endloop
  endfacet
  facet normal 0.540638 0.841255 1.47749e-016
    outer loop
      vertex 10.773 -15.3418 -4
      vertex 10.354 -15.0726 -4
      vertex 10.773 -15.3418 2.5
    endloop
  endfacet
  facet normal 0.281733 0.959493 7.69937e-017
    outer loop
      vertex 10.773 -15.3418 -4
      vertex 10.773 -15.3418 2.5
      vertex 11.2509 -15.4822 2.5
    endloop
  endfacet
  facet normal 0.281733 0.959493 7.69937e-017
    outer loop
      vertex 11.2509 -15.4822 -4
      vertex 10.773 -15.3418 -4
      vertex 11.2509 -15.4822 2.5
    endloop
  endfacet
  facet normal 0 1 -0
    outer loop
      vertex 11.2509 -15.4822 -4
      vertex 11.2509 -15.4822 2.5
      vertex 11.749 -15.4822 2.5
    endloop
  endfacet
  facet normal 0 1 0
    outer loop
      vertex 11.749 -15.4822 -4
      vertex 11.2509 -15.4822 -4
      vertex 11.749 -15.4822 2.5
    endloop
  endfacet
  facet normal -0.281733 0.959493 -7.69937e-017
    outer loop
      vertex -11.2509 -15.4822 -4
      vertex -11.2509 -15.4822 2.5
      vertex -10.773 -15.3418 2.5
    endloop
  endfacet
  facet normal -0.281733 0.959493 -7.69937e-017
    outer loop
      vertex -10.773 -15.3418 -4
      vertex -11.2509 -15.4822 -4
      vertex -10.773 -15.3418 2.5
    endloop
  endfacet
  facet normal -0.540638 0.841255 -1.47749e-016
    outer loop
      vertex -10.773 -15.3418 -4
      vertex -10.773 -15.3418 2.5
      vertex -10.354 -15.0726 2.5
    endloop
  endfacet
  facet normal -0.540638 0.841255 -1.47749e-016
    outer loop
      vertex -10.354 -15.0726 -4
      vertex -10.773 -15.3418 -4
      vertex -10.354 -15.0726 2.5
    endloop
  endfacet
  facet normal -0.755745 0.654866 -2.06534e-016
    outer loop
      vertex -10.0278 -14.6961 -4
      vertex -10.354 -15.0726 2.5
      vertex -10.0278 -14.6961 2.5
    endloop
  endfacet
  facet normal -0.755745 0.654866 -2.06534e-016
    outer loop
      vertex -10.0278 -14.6961 -4
      vertex -10.354 -15.0726 -4
      vertex -10.354 -15.0726 2.5
    endloop
  endfacet
  facet normal -0.90963 0.41542 -2.48589e-016
    outer loop
      vertex -9.82088 -14.243 -4
      vertex -10.0278 -14.6961 2.5
      vertex -9.82088 -14.243 2.5
    endloop
  endfacet
  facet normal -0.90963 0.41542 -2.48589e-016
    outer loop
      vertex -9.82088 -14.243 -4
      vertex -10.0278 -14.6961 -4
      vertex -10.0278 -14.6961 2.5
    endloop
  endfacet
  facet normal -0.989824 0.142296 -2.70505e-016
    outer loop
      vertex -9.75 -13.75 -4
      vertex -9.82088 -14.243 2.5
      vertex -9.75 -13.75 2.5
    endloop
  endfacet
  facet normal -0.989824 0.142296 -2.70505e-016
    outer loop
      vertex -9.75 -13.75 -4
      vertex -9.82088 -14.243 -4
      vertex -9.82088 -14.243 2.5
    endloop
  endfacet
  facet normal -0.989824 -0.142296 -2.70505e-016
    outer loop
      vertex -9.82088 -13.257 2.5
      vertex -9.75 -13.75 -4
      vertex -9.75 -13.75 2.5
    endloop
  endfacet
  facet normal -0.989824 -0.142296 -2.70505e-016
    outer loop
      vertex -9.82088 -13.257 2.5
      vertex -9.82088 -13.257 -4
      vertex -9.75 -13.75 -4
    endloop
  endfacet
  facet normal -0.90963 -0.41542 -2.48589e-016
    outer loop
      vertex -10.0278 -12.8039 2.5
      vertex -9.82088 -13.257 -4
      vertex -9.82088 -13.257 2.5
    endloop
  endfacet
  facet normal -0.90963 -0.41542 -2.48589e-016
    outer loop
      vertex -10.0278 -12.8039 2.5
      vertex -10.0278 -12.8039 -4
      vertex -9.82088 -13.257 -4
    endloop
  endfacet
  facet normal -0.755745 -0.654866 -2.06534e-016
    outer loop
      vertex -10.354 -12.4274 2.5
      vertex -10.0278 -12.8039 -4
      vertex -10.0278 -12.8039 2.5
    endloop
  endfacet
  facet normal -0.755745 -0.654866 -2.06534e-016
    outer loop
      vertex -10.354 -12.4274 2.5
      vertex -10.354 -12.4274 -4
      vertex -10.0278 -12.8039 -4
    endloop
  endfacet
  facet normal -0.540638 -0.841255 -1.47749e-016
    outer loop
      vertex -10.773 -12.1582 2.5
      vertex -10.354 -12.4274 -4
      vertex -10.354 -12.4274 2.5
    endloop
  endfacet
  facet normal -0.540638 -0.841255 -1.47749e-016
    outer loop
      vertex -10.773 -12.1582 2.5
      vertex -10.773 -12.1582 -4
      vertex -10.354 -12.4274 -4
    endloop
  endfacet
  facet normal -0.281733 -0.959493 -7.69937e-017
    outer loop
      vertex -11.2509 -12.0178 2.5
      vertex -10.773 -12.1582 -4
      vertex -10.773 -12.1582 2.5
    endloop
  endfacet
  facet normal -0.281733 -0.959493 -7.69937e-017
    outer loop
      vertex -11.2509 -12.0178 2.5
      vertex -11.2509 -12.0178 -4
      vertex -10.773 -12.1582 -4
    endloop
  endfacet
  facet normal 0 -1 0
    outer loop
      vertex -11.749 -12.0178 2.5
      vertex -11.2509 -12.0178 -4
      vertex -11.2509 -12.0178 2.5
    endloop
  endfacet
  facet normal 0 -1 0
    outer loop
      vertex -11.749 -12.0178 2.5
      vertex -11.749 -12.0178 -4
      vertex -11.2509 -12.0178 -4
    endloop
  endfacet
  facet normal 0.281733 -0.959493 7.69937e-017
    outer loop
      vertex -12.227 -12.1582 2.5
      vertex -11.749 -12.0178 -4
      vertex -11.749 -12.0178 2.5
    endloop
  endfacet
  facet normal 0.281733 -0.959493 7.69937e-017
    outer loop
      vertex -12.227 -12.1582 2.5
      vertex -12.227 -12.1582 -4
      vertex -11.749 -12.0178 -4
    endloop
  endfacet
  facet normal 0.540638 -0.841255 1.47749e-016
    outer loop
      vertex -12.646 -12.4274 2.5
      vertex -12.227 -12.1582 -4
      vertex -12.227 -12.1582 2.5
    endloop
  endfacet
  facet normal 0.540638 -0.841255 1.47749e-016
    outer loop
      vertex -12.646 -12.4274 2.5
      vertex -12.646 -12.4274 -4
      vertex -12.227 -12.1582 -4
    endloop
  endfacet
  facet normal 0.755745 -0.654866 2.06534e-016
    outer loop
      vertex -12.9722 -12.8039 2.5
      vertex -12.646 -12.4274 -4
      vertex -12.646 -12.4274 2.5
    endloop
  endfacet
  facet normal 0.755745 -0.654866 2.06534e-016
    outer loop
      vertex -12.9722 -12.8039 2.5
      vertex -12.9722 -12.8039 -4
      vertex -12.646 -12.4274 -4
    endloop
  endfacet
  facet normal 0.90963 -0.41542 2.48589e-016
    outer loop
      vertex -13.1791 -13.257 2.5
      vertex -12.9722 -12.8039 -4
      vertex -12.9722 -12.8039 2.5
    endloop
  endfacet
  facet normal 0.90963 -0.41542 2.48589e-016
    outer loop
      vertex -13.1791 -13.257 2.5
      vertex -13.1791 -13.257 -4
      vertex -12.9722 -12.8039 -4
    endloop
  endfacet
  facet normal 0.98982 -0.142326 2.70504e-016
    outer loop
      vertex -13.25 -13.75 2.5
      vertex -13.1791 -13.257 -4
      vertex -13.1791 -13.257 2.5
    endloop
  endfacet
  facet normal 0.98982 -0.142326 2.70504e-016
    outer loop
      vertex -13.25 -13.75 2.5
      vertex -13.25 -13.75 -4
      vertex -13.1791 -13.257 -4
    endloop
  endfacet
  facet normal 0.98982 0.142326 2.70504e-016
    outer loop
      vertex -13.1791 -14.243 -4
      vertex -13.25 -13.75 2.5
      vertex -13.1791 -14.243 2.5
    endloop
  endfacet
  facet normal 0.98982 0.142326 2.70504e-016
    outer loop
      vertex -13.1791 -14.243 -4
      vertex -13.25 -13.75 -4
      vertex -13.25 -13.75 2.5
    endloop
  endfacet
  facet normal 0.90963 0.41542 2.48589e-016
    outer loop
      vertex -12.9722 -14.6961 -4
      vertex -13.1791 -14.243 2.5
      vertex -12.9722 -14.6961 2.5
    endloop
  endfacet
  facet normal 0.90963 0.41542 2.48589e-016
    outer loop
      vertex -12.9722 -14.6961 -4
      vertex -13.1791 -14.243 -4
      vertex -13.1791 -14.243 2.5
    endloop
  endfacet
  facet normal 0.755745 0.654866 2.06534e-016
    outer loop
      vertex -12.646 -15.0726 -4
      vertex -12.9722 -14.6961 2.5
      vertex -12.646 -15.0726 2.5
    endloop
  endfacet
  facet normal 0.755745 0.654866 2.06534e-016
    outer loop
      vertex -12.646 -15.0726 -4
      vertex -12.9722 -14.6961 -4
      vertex -12.9722 -14.6961 2.5
    endloop
  endfacet
  facet normal 0.540638 0.841255 1.47749e-016
    outer loop
      vertex -12.646 -15.0726 -4
      vertex -12.646 -15.0726 2.5
      vertex -12.227 -15.3418 2.5
    endloop
  endfacet
  facet normal 0.540638 0.841255 1.47749e-016
    outer loop
      vertex -12.227 -15.3418 -4
      vertex -12.646 -15.0726 -4
      vertex -12.227 -15.3418 2.5
    endloop
  endfacet
  facet normal 0.281733 0.959493 7.69937e-017
    outer loop
      vertex -12.227 -15.3418 -4
      vertex -12.227 -15.3418 2.5
      vertex -11.749 -15.4822 2.5
    endloop
  endfacet
  facet normal 0.281733 0.959493 7.69937e-017
    outer loop
      vertex -11.749 -15.4822 -4
      vertex -12.227 -15.3418 -4
      vertex -11.749 -15.4822 2.5
    endloop
  endfacet
  facet normal 0 1 -0
    outer loop
      vertex -11.749 -15.4822 -4
      vertex -11.749 -15.4822 2.5
      vertex -11.2509 -15.4822 2.5
    endloop
  endfacet
  facet normal 0 1 0
    outer loop
      vertex -11.2509 -15.4822 -4
      vertex -11.749 -15.4822 -4
      vertex -11.2509 -15.4822 2.5
    endloop
  endfacet
  facet normal -1.09075e-016 1.55821e-016 1
    outer loop
      vertex -0.25 -15.25 2.5
      vertex -14.25 -16.5 2.5
      vertex 14.25 -16.5 2.5
    endloop
  endfacet
  facet normal -1.11022e-016 1.77636e-016 1
    outer loop
      vertex -8.25 -15.25 2.5
      vertex -14.25 -16.5 2.5
      vertex -0.25 -15.25 2.5
    endloop
  endfacet
  facet normal 0 0 1
    outer loop
      vertex 14.25 -12 2.5
      vertex 13.25 -13.75 2.5
      vertex 14.25 -16.5 2.5
    endloop
  endfacet
  facet normal 0 0 1
    outer loop
      vertex 13.25 -13.75 2.5
      vertex 13.1791 -14.243 2.5
      vertex 14.25 -16.5 2.5
    endloop
  endfacet
  facet normal 0 0 1
    outer loop
      vertex 13.1791 -14.243 2.5
      vertex 12.9722 -14.6961 2.5
      vertex 14.25 -16.5 2.5
    endloop
  endfacet
  facet normal 0 0 1
    outer loop
      vertex 12.9722 -14.6961 2.5
      vertex 12.646 -15.0726 2.5
      vertex 14.25 -16.5 2.5
    endloop
  endfacet
  facet normal 0 0 1
    outer loop
      vertex 12.646 -15.0726 2.5
      vertex 12.227 -15.3418 2.5
      vertex 14.25 -16.5 2.5
    endloop
  endfacet
  facet normal 0 0 1
    outer loop
      vertex 12.227 -15.3418 2.5
      vertex 11.749 -15.4822 2.5
      vertex 14.25 -16.5 2.5
    endloop
  endfacet
  facet normal -1.33227e-016 0 1
    outer loop
      vertex -0.25 -12 2.5
      vertex -0.25 -15.25 2.5
      vertex 9.75 -13.75 2.5
    endloop
  endfacet
  facet normal 0 0 1
    outer loop
      vertex 11.749 -15.4822 2.5
      vertex 11.2509 -15.4822 2.5
      vertex 14.25 -16.5 2.5
    endloop
  endfacet
  facet normal -1.64222e-016 -4.83886e-016 1
    outer loop
      vertex 11.2509 -15.4822 2.5
      vertex -0.25 -15.25 2.5
      vertex 14.25 -16.5 2.5
    endloop
  endfacet
  facet normal -1.2245e-016 -1.90537e-016 1
    outer loop
      vertex -0.25 -15.25 2.5
      vertex 10.773 -15.3418 2.5
      vertex 10.354 -15.0726 2.5
    endloop
  endfacet
  facet normal -9.72559e-017 2.83327e-015 1
    outer loop
      vertex 10.773 -15.3418 2.5
      vertex -0.25 -15.25 2.5
      vertex 11.2509 -15.4822 2.5
    endloop
  endfacet
  facet normal -1.23843e-016 -1.07312e-016 1
    outer loop
      vertex -0.25 -15.25 2.5
      vertex 10.354 -15.0726 2.5
      vertex 10.0278 -14.6961 2.5
    endloop
  endfacet
  facet normal -1.26512e-016 -5.7777e-017 1
    outer loop
      vertex -0.25 -15.25 2.5
      vertex 10.0278 -14.6961 2.5
      vertex 9.82088 -14.243 2.5
    endloop
  endfacet
  facet normal -1.30415e-016 -1.87483e-017 1
    outer loop
      vertex -0.25 -15.25 2.5
      vertex 9.82088 -14.243 2.5
      vertex 9.75 -13.75 2.5
    endloop
  endfacet
  facet normal -1.29957e-016 1.86825e-017 1
    outer loop
      vertex -0.25 -12 2.5
      vertex 9.75 -13.75 2.5
      vertex 9.82088 -13.257 2.5
    endloop
  endfacet
  facet normal -1.25155e-016 5.71573e-017 1
    outer loop
      vertex -0.25 -12 2.5
      vertex 9.82088 -13.257 2.5
      vertex 10.0278 -12.8039 2.5
    endloop
  endfacet
  facet normal -1.21398e-016 1.05194e-016 1
    outer loop
      vertex -0.25 -12 2.5
      vertex 10.0278 -12.8039 2.5
      vertex 10.354 -12.4274 2.5
    endloop
  endfacet
  facet normal -1.18223e-016 1.8396e-016 1
    outer loop
      vertex -0.25 -12 2.5
      vertex 10.354 -12.4274 2.5
      vertex 10.773 -12.1582 2.5
    endloop
  endfacet
  facet normal -1.5852e-016 -2.62462e-015 1
    outer loop
      vertex -0.25 -12 2.5
      vertex 10.773 -12.1582 2.5
      vertex 11.2509 -12.0178 2.5
    endloop
  endfacet
  facet normal -1.22507e-016 2.0615e-014 1
    outer loop
      vertex -0.25 -12 2.5
      vertex 11.2509 -12.0178 2.5
      vertex 14.25 -12 2.5
    endloop
  endfacet
  facet normal 0 0 1
    outer loop
      vertex 11.2509 -12.0178 2.5
      vertex 11.749 -12.0178 2.5
      vertex 14.25 -12 2.5
    endloop
  endfacet
  facet normal -0 0 1
    outer loop
      vertex 11.749 -12.0178 2.5
      vertex 12.227 -12.1582 2.5
      vertex 14.25 -12 2.5
    endloop
  endfacet
  facet normal -0 0 1
    outer loop
      vertex 12.227 -12.1582 2.5
      vertex 12.646 -12.4274 2.5
      vertex 14.25 -12 2.5
    endloop
  endfacet
  facet normal -0 0 1
    outer loop
      vertex 12.646 -12.4274 2.5
      vertex 12.9722 -12.8039 2.5
      vertex 14.25 -12 2.5
    endloop
  endfacet
  facet normal -0 0 1
    outer loop
      vertex 12.9722 -12.8039 2.5
      vertex 13.1791 -13.257 2.5
      vertex 14.25 -12 2.5
    endloop
  endfacet
  facet normal -0 0 1
    outer loop
      vertex 13.1791 -13.257 2.5
      vertex 13.25 -13.75 2.5
      vertex 14.25 -12 2.5
    endloop
  endfacet
  facet normal 0 0 1
    outer loop
      vertex -8.25 -12 2.5
      vertex -9.75 -13.75 2.5
      vertex -8.25 -15.25 2.5
    endloop
  endfacet
  facet normal 0 0 1
    outer loop
      vertex -9.75 -13.75 2.5
      vertex -9.82088 -14.243 2.5
      vertex -8.25 -15.25 2.5
    endloop
  endfacet
  facet normal 0 0 1
    outer loop
      vertex -9.82088 -14.243 2.5
      vertex -10.0278 -14.6961 2.5
      vertex -8.25 -15.25 2.5
    endloop
  endfacet
  facet normal 0 0 1
    outer loop
      vertex -10.0278 -14.6961 2.5
      vertex -10.354 -15.0726 2.5
      vertex -8.25 -15.25 2.5
    endloop
  endfacet
  facet normal 0 0 1
    outer loop
      vertex -14.25 -12 2.5
      vertex -14.25 -16.5 2.5
      vertex -13.25 -13.75 2.5
    endloop
  endfacet
  facet normal 0 0 1
    outer loop
      vertex -10.354 -15.0726 2.5
      vertex -10.773 -15.3418 2.5
      vertex -8.25 -15.25 2.5
    endloop
  endfacet
  facet normal -1.9168e-016 5.64793e-016 1
    outer loop
      vertex -11.2509 -15.4822 2.5
      vertex -14.25 -16.5 2.5
      vertex -8.25 -15.25 2.5
    endloop
  endfacet
  facet normal 1.31496e-016 -3.61232e-015 1
    outer loop
      vertex -11.2509 -15.4822 2.5
      vertex -8.25 -15.25 2.5
      vertex -10.773 -15.3418 2.5
    endloop
  endfacet
  facet normal -0 0 1
    outer loop
      vertex -11.749 -15.4822 2.5
      vertex -14.25 -16.5 2.5
      vertex -11.2509 -15.4822 2.5
    endloop
  endfacet
  facet normal 0 0 1
    outer loop
      vertex -12.227 -15.3418 2.5
      vertex -14.25 -16.5 2.5
      vertex -11.749 -15.4822 2.5
    endloop
  endfacet
  facet normal 0 0 1
    outer loop
      vertex -12.646 -15.0726 2.5
      vertex -14.25 -16.5 2.5
      vertex -12.227 -15.3418 2.5
    endloop
  endfacet
  facet normal 0 0 1
    outer loop
      vertex -14.25 -16.5 2.5
      vertex -12.9722 -14.6961 2.5
      vertex -13.1791 -14.243 2.5
    endloop
  endfacet
  facet normal 0 0 1
    outer loop
      vertex -12.9722 -14.6961 2.5
      vertex -14.25 -16.5 2.5
      vertex -12.646 -15.0726 2.5
    endloop
  endfacet
  facet normal 0 0 1
    outer loop
      vertex -14.25 -16.5 2.5
      vertex -13.1791 -14.243 2.5
      vertex -13.25 -13.75 2.5
    endloop
  endfacet
  facet normal 0 0 1
    outer loop
      vertex -14.25 -12 2.5
      vertex -13.25 -13.75 2.5
      vertex -13.1791 -13.257 2.5
    endloop
  endfacet
  facet normal 0 0 1
    outer loop
      vertex -14.25 -12 2.5
      vertex -13.1791 -13.257 2.5
      vertex -12.9722 -12.8039 2.5
    endloop
  endfacet
  facet normal 0 0 1
    outer loop
      vertex -14.25 -12 2.5
      vertex -12.9722 -12.8039 2.5
      vertex -12.646 -12.4274 2.5
    endloop
  endfacet
  facet normal 0 0 1
    outer loop
      vertex -14.25 -12 2.5
      vertex -12.646 -12.4274 2.5
      vertex -12.227 -12.1582 2.5
    endloop
  endfacet
  facet normal 0 0 1
    outer loop
      vertex -14.25 -12 2.5
      vertex -12.227 -12.1582 2.5
      vertex -11.749 -12.0178 2.5
    endloop
  endfacet
  facet normal -7.40149e-017 -1.24549e-014 1
    outer loop
      vertex -14.25 -12 2.5
      vertex -11.2509 -12.0178 2.5
      vertex -8.25 -12 2.5
    endloop
  endfacet
  facet normal 0 -0 1
    outer loop
      vertex -11.749 -12.0178 2.5
      vertex -11.2509 -12.0178 2.5
      vertex -14.25 -12 2.5
    endloop
  endfacet
  facet normal -1.6347e-016 2.60776e-015 1
    outer loop
      vertex -11.2509 -12.0178 2.5
      vertex -10.773 -12.1582 2.5
      vertex -8.25 -12 2.5
    endloop
  endfacet
  facet normal -0 0 1
    outer loop
      vertex -10.773 -12.1582 2.5
      vertex -10.354 -12.4274 2.5
      vertex -8.25 -12 2.5
    endloop
  endfacet
  facet normal -0 0 1
    outer loop
      vertex -10.354 -12.4274 2.5
      vertex -10.0278 -12.8039 2.5
      vertex -8.25 -12 2.5
    endloop
  endfacet
  facet normal -0 0 1
    outer loop
      vertex -10.0278 -12.8039 2.5
      vertex -9.82088 -13.257 2.5
      vertex -8.25 -12 2.5
    endloop
  endfacet
  facet normal -0 0 1
    outer loop
      vertex -9.82088 -13.257 2.5
      vertex -9.75 -13.75 2.5
      vertex -8.25 -12 2.5
    endloop
  endfacet
  facet normal 0 1 0
    outer loop
      vertex -14.25 -12 -1.74506e-015
      vertex -14.25 -12 2.5
      vertex -8.25 -12 2.5
    endloop
  endfacet
  facet normal 0 1 -0
    outer loop
      vertex -8.25 -12 -1.0103e-015
      vertex -14.25 -12 -1.74506e-015
      vertex -8.25 -12 2.5
    endloop
  endfacet
  facet normal 1 0 -0
    outer loop
      vertex -8.25 -12 -1.0103e-015
      vertex -8.25 -12 2.5
      vertex -8.25 -15.25 2.5
    endloop
  endfacet
  facet normal 1 0 0
    outer loop
      vertex -8.25 -15.25 -1.0103e-015
      vertex -8.25 -12 -1.0103e-015
      vertex -8.25 -15.25 2.5
    endloop
  endfacet
  facet normal 0 1 0
    outer loop
      vertex -8.25 -15.25 -1.0103e-015
      vertex -8.25 -15.25 2.5
      vertex -0.25 -15.25 2.5
    endloop
  endfacet
  facet normal 0 1 0
    outer loop
      vertex -0.25 -15.25 -3.06152e-017
      vertex -8.25 -15.25 -1.0103e-015
      vertex -0.25 -15.25 2.5
    endloop
  endfacet
  facet normal -1 -0 -1.11022e-016
    outer loop
      vertex -0.25 -12 -3.06152e-017
      vertex -0.25 -15.25 -3.06152e-017
      vertex -0.25 -15.25 2.5
    endloop
  endfacet
  facet normal -1 -0 -1.11022e-016
    outer loop
      vertex -0.25 -12 2.5
      vertex -0.25 -12 -3.06152e-017
      vertex -0.25 -15.25 2.5
    endloop
  endfacet
  facet normal 0 1 -0
    outer loop
      vertex -0.25 -12 -3.06152e-017
      vertex -0.25 -12 2.5
      vertex 14.25 -12 2.5
    endloop
  endfacet
  facet normal 0 1 0
    outer loop
      vertex 14.25 -12 1.74506e-015
      vertex -0.25 -12 -3.06152e-017
      vertex 14.25 -12 2.5
    endloop
  endfacet
endsolid OpenSCAD_Model
