solid OpenSCAD_Model
  facet normal 0 0 -1
    outer loop
      vertex 0 48.2 0
      vertex 19.8 0 0
      vertex 0 0 0
    endloop
  endfacet
  facet normal 0 0 -1
    outer loop
      vertex 0 48.2 0
      vertex 19.8 48.2 0
      vertex 19.8 0 0
    endloop
  endfacet
  facet normal 0 0 -1
    outer loop
      vertex 19.8 58.2 0
      vertex 26.8 48.2 0
      vertex 19.8 48.2 0
    endloop
  endfacet
  facet normal 0 0 -1
    outer loop
      vertex 26.8 0 0
      vertex 19.8 0 0
      vertex 19.8 48.2 0
    endloop
  endfacet
  facet normal -0 -0 -1
    outer loop
      vertex 26.8 58.2 0
      vertex 26.8 48.2 0
      vertex 19.8 58.2 0
    endloop
  endfacet
  facet normal -0 -0 -1
    outer loop
      vertex 29.8 48.2 0
      vertex 29.8 0 0
      vertex 26.8 48.2 0
    endloop
  endfacet
  facet normal 0 0 -1
    outer loop
      vertex 29.8 0 0
      vertex 26.8 0 0
      vertex 26.8 48.2 0
    endloop
  endfacet
  facet normal 0 0 -1
    outer loop
      vertex 26.8 0 0
      vertex 19.8 48.2 0
      vertex 26.8 48.2 0
    endloop
  endfacet
  facet normal 0 0 -1
    outer loop
      vertex 26.8 -10 0
      vertex 19.8 0 0
      vertex 26.8 0 0
    endloop
  endfacet
  facet normal 0 0 -1
    outer loop
      vertex 19.8 -10 0
      vertex 19.8 0 0
      vertex 26.8 -10 0
    endloop
  endfacet
  facet normal 0 0 1
    outer loop
      vertex 24.7 15 2
      vertex 14.2 46.6 2
      vertex 14.2 1.59999 2
    endloop
  endfacet
  facet normal 0 0 1
    outer loop
      vertex 16.7 1.59999 2
      vertex 16.7 0 2
      vertex 19.8 0 2
    endloop
  endfacet
  facet normal -0 0 1
    outer loop
      vertex 19.8 0 2
      vertex 19.8 -8.39999 2
      vertex 23.7 0 2
    endloop
  endfacet
  facet normal 0 -0 1
    outer loop
      vertex 23.7 0 2
      vertex 23.7 1.59999 2
      vertex 19.8 0 2
    endloop
  endfacet
  facet normal 0 -0 1
    outer loop
      vertex 26.8 -8.39999 2
      vertex 26.8 0 2
      vertex 23.7 0 2
    endloop
  endfacet
  facet normal 0 0 1
    outer loop
      vertex 26.8 -8.39999 2
      vertex 23.7 0 2
      vertex 19.8 -8.39999 2
    endloop
  endfacet
  facet normal 0 0 1
    outer loop
      vertex 23.7 1.59999 2
      vertex 16.7 1.59999 2
      vertex 19.8 0 2
    endloop
  endfacet
  facet normal 0 -0 1
    outer loop
      vertex 16.7 1.59999 2
      vertex 24.7 15 2
      vertex 14.2 1.59999 2
    endloop
  endfacet
  facet normal 0 -0 1
    outer loop
      vertex 23.7 1.59999 2
      vertex 24.7 15 2
      vertex 16.7 1.59999 2
    endloop
  endfacet
  facet normal 0 -0 1
    outer loop
      vertex 24.7 1.59999 2
      vertex 24.7 15 2
      vertex 23.7 1.59999 2
    endloop
  endfacet
  facet normal 0 -0 1
    outer loop
      vertex 28.2 15 2
      vertex 28.2 41.6 2
      vertex 24.7 15 2
    endloop
  endfacet
  facet normal 0 0 1
    outer loop
      vertex 28.2 41.6 2
      vertex 23.2 41.6 2
      vertex 24.7 15 2
    endloop
  endfacet
  facet normal 0 0 1
    outer loop
      vertex 23.2 41.6 2
      vertex 14.2 46.6 2
      vertex 24.7 15 2
    endloop
  endfacet
  facet normal 0 0 1
    outer loop
      vertex 23.2 46.6 2
      vertex 22.2 46.6 2
      vertex 23.2 41.6 2
    endloop
  endfacet
  facet normal 0 0 1
    outer loop
      vertex 15.2 46.6 2
      vertex 14.2 46.6 2
      vertex 23.2 41.6 2
    endloop
  endfacet
  facet normal 0 -0 1
    outer loop
      vertex 26.8 48.2 2
      vertex 26.8 56.6 2
      vertex 22.2 48.2 2
    endloop
  endfacet
  facet normal -0 0 1
    outer loop
      vertex 19.8 56.6 2
      vertex 22.2 48.2 2
      vertex 26.8 56.6 2
    endloop
  endfacet
  facet normal 0 0 1
    outer loop
      vertex 19.8 56.6 2
      vertex 19.8 48.2 2
      vertex 22.2 48.2 2
    endloop
  endfacet
  facet normal -0 0 1
    outer loop
      vertex 19.8 48.2 2
      vertex 22.2 46.6 2
      vertex 22.2 48.2 2
    endloop
  endfacet
  facet normal -0 0 1
    outer loop
      vertex 15.2 48.2 2
      vertex 15.2 46.6 2
      vertex 19.8 48.2 2
    endloop
  endfacet
  facet normal 0 0 1
    outer loop
      vertex 19.8 48.2 2
      vertex 15.2 46.6 2
      vertex 22.2 46.6 2
    endloop
  endfacet
  facet normal -0 0 1
    outer loop
      vertex 15.2 46.6 2
      vertex 23.2 41.6 2
      vertex 22.2 46.6 2
    endloop
  endfacet
  facet normal 0 0 1
    outer loop
      vertex 4.59999 1.59999 2
      vertex 1.59999 6.59999 2
      vertex 1.59999 1.59999 2
    endloop
  endfacet
  facet normal 0 0 1
    outer loop
      vertex 4.59999 1.59999 2
      vertex 4.59999 0 2
      vertex 9.59999 0 2
    endloop
  endfacet
  facet normal 0 -0 1
    outer loop
      vertex 9.59999 0 2
      vertex 9.59999 1.59999 2
      vertex 4.59999 1.59999 2
    endloop
  endfacet
  facet normal 0 0 1
    outer loop
      vertex 4.09999 46.6 2
      vertex 1.59999 40.6 2
      vertex 5.59999 40.6 2
    endloop
  endfacet
  facet normal 0 0 1
    outer loop
      vertex 7.09999 46.6 2
      vertex 4.09999 48.2 2
      vertex 4.09999 46.6 2
    endloop
  endfacet
  facet normal 0 0 1
    outer loop
      vertex 7.09999 48.2 2
      vertex 4.09999 48.2 2
      vertex 7.09999 46.6 2
    endloop
  endfacet
  facet normal -0 0 1
    outer loop
      vertex 7.09999 46.6 2
      vertex 5.59999 40.6 2
      vertex 12.6 46.6 2
    endloop
  endfacet
  facet normal 0 0 1
    outer loop
      vertex 4.09999 46.6 2
      vertex 1.59999 46.6 2
      vertex 1.59999 40.6 2
    endloop
  endfacet
  facet normal -0 0 1
    outer loop
      vertex 4.09999 46.6 2
      vertex 5.59999 40.6 2
      vertex 7.09999 46.6 2
    endloop
  endfacet
  facet normal 0 0 1
    outer loop
      vertex 12.6 46.6 2
      vertex 5.59999 21.6 2
      vertex 12.6 1.59999 2
    endloop
  endfacet
  facet normal -0 0 1
    outer loop
      vertex 5.59999 40.6 2
      vertex 5.59999 21.6 2
      vertex 12.6 46.6 2
    endloop
  endfacet
  facet normal 0 0 1
    outer loop
      vertex 12.6 1.59999 2
      vertex 5.6 15.6 2
      vertex 5.6 6.6 2
    endloop
  endfacet
  facet normal 0 0 1
    outer loop
      vertex 1.59999 15.6 2
      vertex 1.6 15.6 2
      vertex 1.59999 21.6 2
    endloop
  endfacet
  facet normal 0 -0 1
    outer loop
      vertex 9.59999 1.59999 2
      vertex 12.6 1.59999 2
      vertex 5.6 6.6 2
    endloop
  endfacet
  facet normal -0 0 1
    outer loop
      vertex 1.59999 21.6 2
      vertex 1.6 15.6 2
      vertex 5.59999 21.6 2
    endloop
  endfacet
  facet normal 0 0 1
    outer loop
      vertex 1.6 15.6 2
      vertex 5.6 15.6 2
      vertex 5.59999 21.6 2
    endloop
  endfacet
  facet normal -0 -0 1
    outer loop
      vertex 5.6 15.6 2
      vertex 12.6 1.59999 2
      vertex 5.59999 21.6 2
    endloop
  endfacet
  facet normal 0 0 1
    outer loop
      vertex 9.59999 1.59999 2
      vertex 5.59999 6.59999 2
      vertex 4.59999 1.59999 2
    endloop
  endfacet
  facet normal 0 0 1
    outer loop
      vertex 5.6 6.6 2
      vertex 5.59999 6.6 2
      vertex 5.59999 6.59999 2
    endloop
  endfacet
  facet normal 0 0 1
    outer loop
      vertex 5.6 6.6 2
      vertex 5.59999 6.59999 2
      vertex 9.59999 1.59999 2
    endloop
  endfacet
  facet normal 0 0 1
    outer loop
      vertex 5.59999 6.59999 2
      vertex 1.59999 6.59999 2
      vertex 4.59999 1.59999 2
    endloop
  endfacet
  facet normal 0 -1 0
    outer loop
      vertex 19.8 0 0
      vertex 9.59999 0 2
      vertex 0 0 0
    endloop
  endfacet
  facet normal -0 -1 -0
    outer loop
      vertex 19.8 0 2
      vertex 16.7 0 2
      vertex 19.8 0 0
    endloop
  endfacet
  facet normal -0 -1 -0
    outer loop
      vertex 16.7 0 20
      vertex 9.59999 0 20
      vertex 16.7 0 2
    endloop
  endfacet
  facet normal 0 -1 0
    outer loop
      vertex 0 0 20
      vertex 0 0 0
      vertex 4.59999 0 2
    endloop
  endfacet
  facet normal 0 -1 0
    outer loop
      vertex 9.59999 0 20
      vertex 9.59999 0 2
      vertex 16.7 0 2
    endloop
  endfacet
  facet normal 0 -1 0
    outer loop
      vertex 9.59999 0 2
      vertex 19.8 0 0
      vertex 16.7 0 2
    endloop
  endfacet
  facet normal 0 -1 0
    outer loop
      vertex 0 0 20
      vertex 4.59999 0 2
      vertex 4.59999 0 20
    endloop
  endfacet
  facet normal 0 -1 -0
    outer loop
      vertex 4.59999 0 2
      vertex 0 0 0
      vertex 9.59999 0 2
    endloop
  endfacet
  facet normal -1 -0 -0
    outer loop
      vertex 19.8 0 2
      vertex 19.8 0 0
      vertex 19.8 -8.39999 2
    endloop
  endfacet
  facet normal -1 0 0
    outer loop
      vertex 19.8 -10 4
      vertex 19.8 -8.39999 2
      vertex 19.8 -10 0
    endloop
  endfacet
  facet normal -1 -0 -0
    outer loop
      vertex 19.8 -8.39999 4
      vertex 19.8 -8.39999 2
      vertex 19.8 -10 4
    endloop
  endfacet
  facet normal -1 0 -0
    outer loop
      vertex 19.8 -8.39999 2
      vertex 19.8 0 0
      vertex 19.8 -10 0
    endloop
  endfacet
  facet normal 0 -1 0
    outer loop
      vertex 26.8 -10 0
      vertex 19.8 -10 4
      vertex 19.8 -10 0
    endloop
  endfacet
  facet normal 0 -1 0
    outer loop
      vertex 26.8 -10 0
      vertex 26.8 -10 4
      vertex 19.8 -10 4
    endloop
  endfacet
  facet normal 1 0 0
    outer loop
      vertex 26.8 -8.39999 4
      vertex 26.8 -10 4
      vertex 26.8 -8.39999 2
    endloop
  endfacet
  facet normal 1 0 0
    outer loop
      vertex 26.8 0 0
      vertex 26.8 -8.39999 2
      vertex 26.8 -10 0
    endloop
  endfacet
  facet normal 1 0 0
    outer loop
      vertex 26.8 0 2
      vertex 26.8 -8.39999 2
      vertex 26.8 0 0
    endloop
  endfacet
  facet normal 1 0 0
    outer loop
      vertex 26.8 -8.39999 2
      vertex 26.8 -10 4
      vertex 26.8 -10 0
    endloop
  endfacet
  facet normal 0 -1 0
    outer loop
      vertex 26.8 0 2
      vertex 23.7 0 20
      vertex 23.7 0 2
    endloop
  endfacet
  facet normal 0 -1 0
    outer loop
      vertex 26.8 0 2
      vertex 26.8 0 0
      vertex 29.8 0 0
    endloop
  endfacet
  facet normal 0 -1 0
    outer loop
      vertex 26.8 0 2
      vertex 29.8 0 20
      vertex 23.7 0 20
    endloop
  endfacet
  facet normal 0 -1 0
    outer loop
      vertex 29.8 0 0
      vertex 29.8 0 20
      vertex 26.8 0 2
    endloop
  endfacet
  facet normal 1 0 0
    outer loop
      vertex 29.8 48.2 0
      vertex 29.8 0 20
      vertex 29.8 0 0
    endloop
  endfacet
  facet normal 1 0 -0
    outer loop
      vertex 29.8 48.2 0
      vertex 29.8 48.2 20
      vertex 29.8 0 20
    endloop
  endfacet
  facet normal 0 1 0
    outer loop
      vertex 22.2 48.2 20
      vertex 26.8 48.2 2
      vertex 22.2 48.2 2
    endloop
  endfacet
  facet normal -0 1 0
    outer loop
      vertex 22.2 48.2 20
      vertex 29.8 48.2 20
      vertex 26.8 48.2 2
    endloop
  endfacet
  facet normal 0 1 0
    outer loop
      vertex 29.8 48.2 20
      vertex 29.8 48.2 0
      vertex 26.8 48.2 2
    endloop
  endfacet
  facet normal 0 1 0
    outer loop
      vertex 26.8 48.2 0
      vertex 26.8 48.2 2
      vertex 29.8 48.2 0
    endloop
  endfacet
  facet normal 1 0 0
    outer loop
      vertex 26.8 58.2 4
      vertex 26.8 56.6 4
      vertex 26.8 56.6 2
    endloop
  endfacet
  facet normal 1 0 0
    outer loop
      vertex 26.8 58.2 4
      vertex 26.8 56.6 2
      vertex 26.8 58.2 0
    endloop
  endfacet
  facet normal 1 0 0
    outer loop
      vertex 26.8 58.2 0
      vertex 26.8 56.6 2
      vertex 26.8 48.2 0
    endloop
  endfacet
  facet normal 1 0 0
    outer loop
      vertex 26.8 56.6 2
      vertex 26.8 48.2 2
      vertex 26.8 48.2 0
    endloop
  endfacet
  facet normal 0 1 0
    outer loop
      vertex 19.8 58.2 4
      vertex 26.8 58.2 0
      vertex 19.8 58.2 0
    endloop
  endfacet
  facet normal -0 1 0
    outer loop
      vertex 19.8 58.2 4
      vertex 26.8 58.2 4
      vertex 26.8 58.2 0
    endloop
  endfacet
  facet normal -1 0 -0
    outer loop
      vertex 19.8 56.6 2
      vertex 19.8 58.2 0
      vertex 19.8 48.2 0
    endloop
  endfacet
  facet normal -1 0 0
    outer loop
      vertex 19.8 48.2 2
      vertex 19.8 56.6 2
      vertex 19.8 48.2 0
    endloop
  endfacet
  facet normal -1 0 -0
    outer loop
      vertex 19.8 58.2 4
      vertex 19.8 58.2 0
      vertex 19.8 56.6 2
    endloop
  endfacet
  facet normal -1 0 0
    outer loop
      vertex 19.8 56.6 4
      vertex 19.8 58.2 4
      vertex 19.8 56.6 2
    endloop
  endfacet
  facet normal 0 1 0
    outer loop
      vertex 19.8 48.2 2
      vertex 19.8 48.2 0
      vertex 15.2 48.2 2
    endloop
  endfacet
  facet normal 0 1 0
    outer loop
      vertex 0 48.2 20
      vertex 4.09999 48.2 2
      vertex 0 48.2 0
    endloop
  endfacet
  facet normal 0 1 0
    outer loop
      vertex 4.09999 48.2 20
      vertex 4.09999 48.2 2
      vertex 0 48.2 20
    endloop
  endfacet
  facet normal 0 1 0
    outer loop
      vertex 7.09999 48.2 2
      vertex 19.8 48.2 0
      vertex 0 48.2 0
    endloop
  endfacet
  facet normal 0 1 0
    outer loop
      vertex 7.09999 48.2 2
      vertex 0 48.2 0
      vertex 4.09999 48.2 2
    endloop
  endfacet
  facet normal 0 1 0
    outer loop
      vertex 7.09999 48.2 20
      vertex 15.2 48.2 2
      vertex 7.09999 48.2 2
    endloop
  endfacet
  facet normal 0 1 0
    outer loop
      vertex 15.2 48.2 20
      vertex 15.2 48.2 2
      vertex 7.09999 48.2 20
    endloop
  endfacet
  facet normal 0 1 0
    outer loop
      vertex 15.2 48.2 2
      vertex 19.8 48.2 0
      vertex 7.09999 48.2 2
    endloop
  endfacet
  facet normal -1 0 0
    outer loop
      vertex 0 0 20
      vertex 0 48.2 0
      vertex 0 0 0
    endloop
  endfacet
  facet normal -1 0 0
    outer loop
      vertex 0 0 20
      vertex 0 48.2 20
      vertex 0 48.2 0
    endloop
  endfacet
  facet normal 0 0 1
    outer loop
      vertex 26.8 56.6 4
      vertex 19.8 58.2 4
      vertex 19.8 56.6 4
    endloop
  endfacet
  facet normal 0 -0 1
    outer loop
      vertex 26.8 56.6 4
      vertex 26.8 58.2 4
      vertex 19.8 58.2 4
    endloop
  endfacet
  facet normal 0 0 1
    outer loop
      vertex 26.8 -10 4
      vertex 19.8 -8.39999 4
      vertex 19.8 -10 4
    endloop
  endfacet
  facet normal 0 -0 1
    outer loop
      vertex 26.8 -10 4
      vertex 26.8 -8.39999 4
      vertex 19.8 -8.39999 4
    endloop
  endfacet
  facet normal 0 -1 0
    outer loop
      vertex 26.8 56.6 2
      vertex 19.8 56.6 4
      vertex 19.8 56.6 2
    endloop
  endfacet
  facet normal 0 -1 0
    outer loop
      vertex 26.8 56.6 2
      vertex 26.8 56.6 4
      vertex 19.8 56.6 4
    endloop
  endfacet
  facet normal 0 1 0
    outer loop
      vertex 19.8 -8.39999 4
      vertex 26.8 -8.39999 2
      vertex 19.8 -8.39999 2
    endloop
  endfacet
  facet normal -0 1 0
    outer loop
      vertex 19.8 -8.39999 4
      vertex 26.8 -8.39999 4
      vertex 26.8 -8.39999 2
    endloop
  endfacet
  facet normal 0 0 1
    outer loop
      vertex 1.59999 46.6 20
      vertex 0 0 20
      vertex 1.59999 1.59999 20
    endloop
  endfacet
  facet normal 0 0 1
    outer loop
      vertex 4.59999 0 20
      vertex 1.59999 1.59999 20
      vertex 0 0 20
    endloop
  endfacet
  facet normal 0 0 1
    outer loop
      vertex 4.59999 1.59999 20
      vertex 1.59999 1.59999 20
      vertex 4.59999 0 20
    endloop
  endfacet
  facet normal 0 0 1
    outer loop
      vertex 1.59999 46.6 20
      vertex 0 48.2 20
      vertex 0 0 20
    endloop
  endfacet
  facet normal 0 0 1
    outer loop
      vertex 4.09999 48.2 20
      vertex 0 48.2 20
      vertex 1.59999 46.6 20
    endloop
  endfacet
  facet normal 0 -0 1
    outer loop
      vertex 4.09999 46.6 20
      vertex 4.09999 48.2 20
      vertex 1.59999 46.6 20
    endloop
  endfacet
  facet normal 0 0 1
    outer loop
      vertex 12.6 46.6 20
      vertex 7.09999 48.2 20
      vertex 7.09999 46.6 20
    endloop
  endfacet
  facet normal -0 0 1
    outer loop
      vertex 12.6 1.59999 20
      vertex 16.7 0 20
      vertex 14.2 1.59999 20
    endloop
  endfacet
  facet normal 0 0 1
    outer loop
      vertex 12.6 1.59999 20
      vertex 9.59999 1.59999 20
      vertex 9.59999 0 20
    endloop
  endfacet
  facet normal 0 0 1
    outer loop
      vertex 12.6 1.59999 20
      vertex 9.59999 0 20
      vertex 16.7 0 20
    endloop
  endfacet
  facet normal 0 -0 1
    outer loop
      vertex 16.7 0 20
      vertex 16.7 1.59999 20
      vertex 14.2 1.59999 20
    endloop
  endfacet
  facet normal 0 0 1
    outer loop
      vertex 12.6 1.59999 20
      vertex 14.2 1.59999 20
      vertex 12.6 46.6 20
    endloop
  endfacet
  facet normal 0 -0 1
    outer loop
      vertex 14.2 1.59999 20
      vertex 14.2 46.6 20
      vertex 12.6 46.6 20
    endloop
  endfacet
  facet normal 0 -0 1
    outer loop
      vertex 12.6 46.6 20
      vertex 15.2 48.2 20
      vertex 7.09999 48.2 20
    endloop
  endfacet
  facet normal 0 -0 1
    outer loop
      vertex 14.2 46.6 20
      vertex 15.2 48.2 20
      vertex 12.6 46.6 20
    endloop
  endfacet
  facet normal 0 0 1
    outer loop
      vertex 15.2 48.2 20
      vertex 14.2 46.6 20
      vertex 15.2 46.6 20
    endloop
  endfacet
  facet normal 0 0 1
    outer loop
      vertex 28.2 46.6 20
      vertex 22.2 48.2 20
      vertex 22.2 46.6 20
    endloop
  endfacet
  facet normal -0 0 1
    outer loop
      vertex 28.2 46.6 20
      vertex 29.8 0 20
      vertex 29.8 48.2 20
    endloop
  endfacet
  facet normal 0 0 1
    outer loop
      vertex 28.2 1.59999 20
      vertex 23.7 1.59999 20
      vertex 23.7 0 20
    endloop
  endfacet
  facet normal 0 0 1
    outer loop
      vertex 28.2 1.59999 20
      vertex 23.7 0 20
      vertex 29.8 0 20
    endloop
  endfacet
  facet normal -0 0 1
    outer loop
      vertex 28.2 1.59999 20
      vertex 29.8 0 20
      vertex 28.2 46.6 20
    endloop
  endfacet
  facet normal 0 -0 1
    outer loop
      vertex 28.2 46.6 20
      vertex 29.8 48.2 20
      vertex 22.2 48.2 20
    endloop
  endfacet
  facet normal 0 1 0
    outer loop
      vertex 1.59999 1.59999 20
      vertex 4.59999 1.59999 2
      vertex 1.59999 1.59999 2
    endloop
  endfacet
  facet normal -0 1 0
    outer loop
      vertex 1.59999 1.59999 20
      vertex 4.59999 1.59999 20
      vertex 4.59999 1.59999 2
    endloop
  endfacet
  facet normal 1 0 0
    outer loop
      vertex 1.59999 6.59999 12
      vertex 1.59999 1.59999 20
      vertex 1.59999 1.59999 2
    endloop
  endfacet
  facet normal 1 0 -0
    outer loop
      vertex 1.59999 6.59999 2
      vertex 1.59999 6.59999 12
      vertex 1.59999 1.59999 2
    endloop
  endfacet
  facet normal 1 0 0
    outer loop
      vertex 1.59999 15.6 12
      vertex 1.59999 1.59999 20
      vertex 1.59999 6.59999 12
    endloop
  endfacet
  facet normal 1 0 0
    outer loop
      vertex 1.59999 15.6 2
      vertex 1.59999 21.6 2
      vertex 1.59999 15.6 12
    endloop
  endfacet
  facet normal 1 0 -0
    outer loop
      vertex 1.59999 21.6 2
      vertex 1.59999 21.6 12
      vertex 1.59999 15.6 12
    endloop
  endfacet
  facet normal 1 0 0
    outer loop
      vertex 1.59999 21.6 12
      vertex 1.59999 1.59999 20
      vertex 1.59999 15.6 12
    endloop
  endfacet
  facet normal 1 0 0
    outer loop
      vertex 1.59999 46.6 20
      vertex 1.59999 1.59999 20
      vertex 1.59999 21.6 12
    endloop
  endfacet
  facet normal 1 0 0
    outer loop
      vertex 1.59999 40.6 2
      vertex 1.59999 46.6 2
      vertex 1.59999 40.6 12
    endloop
  endfacet
  facet normal 1 0 -0
    outer loop
      vertex 1.59999 46.6 2
      vertex 1.59999 46.6 20
      vertex 1.59999 40.6 12
    endloop
  endfacet
  facet normal 1 0 0
    outer loop
      vertex 1.59999 46.6 20
      vertex 1.59999 21.6 12
      vertex 1.59999 40.6 12
    endloop
  endfacet
  facet normal 0 -1 0
    outer loop
      vertex 4.09999 46.6 2
      vertex 1.59999 46.6 20
      vertex 1.59999 46.6 2
    endloop
  endfacet
  facet normal 0 -1 0
    outer loop
      vertex 4.09999 46.6 2
      vertex 4.09999 46.6 20
      vertex 1.59999 46.6 20
    endloop
  endfacet
  facet normal 1 0 0
    outer loop
      vertex 4.09999 48.2 2
      vertex 4.09999 46.6 20
      vertex 4.09999 46.6 2
    endloop
  endfacet
  facet normal 1 0 -0
    outer loop
      vertex 4.09999 48.2 2
      vertex 4.09999 48.2 20
      vertex 4.09999 46.6 20
    endloop
  endfacet
  facet normal 1 0 0
    outer loop
      vertex 4.59999 1.59999 2
      vertex 4.59999 0 20
      vertex 4.59999 0 2
    endloop
  endfacet
  facet normal 1 0 -0
    outer loop
      vertex 4.59999 1.59999 2
      vertex 4.59999 1.59999 20
      vertex 4.59999 0 20
    endloop
  endfacet
  facet normal 0 1 0
    outer loop
      vertex 14.2 1.59999 20
      vertex 16.7 1.59999 2
      vertex 14.2 1.59999 2
    endloop
  endfacet
  facet normal -0 1 0
    outer loop
      vertex 14.2 1.59999 20
      vertex 16.7 1.59999 20
      vertex 16.7 1.59999 2
    endloop
  endfacet
  facet normal 1 0 0
    outer loop
      vertex 14.2 46.6 2
      vertex 14.2 1.59999 20
      vertex 14.2 1.59999 2
    endloop
  endfacet
  facet normal 1 0 -0
    outer loop
      vertex 14.2 46.6 2
      vertex 14.2 46.6 20
      vertex 14.2 1.59999 20
    endloop
  endfacet
  facet normal 0 -1 0
    outer loop
      vertex 15.2 46.6 2
      vertex 14.2 46.6 20
      vertex 14.2 46.6 2
    endloop
  endfacet
  facet normal 0 -1 0
    outer loop
      vertex 15.2 46.6 2
      vertex 15.2 46.6 20
      vertex 14.2 46.6 20
    endloop
  endfacet
  facet normal 1 0 0
    outer loop
      vertex 15.2 48.2 2
      vertex 15.2 46.6 20
      vertex 15.2 46.6 2
    endloop
  endfacet
  facet normal 1 0 -0
    outer loop
      vertex 15.2 48.2 2
      vertex 15.2 48.2 20
      vertex 15.2 46.6 20
    endloop
  endfacet
  facet normal -1 0 0
    outer loop
      vertex 7.09999 46.6 20
      vertex 7.09999 48.2 2
      vertex 7.09999 46.6 2
    endloop
  endfacet
  facet normal -1 0 0
    outer loop
      vertex 7.09999 46.6 20
      vertex 7.09999 48.2 20
      vertex 7.09999 48.2 2
    endloop
  endfacet
  facet normal 0 -1 0
    outer loop
      vertex 12.6 46.6 2
      vertex 7.09999 46.6 20
      vertex 7.09999 46.6 2
    endloop
  endfacet
  facet normal 0 -1 0
    outer loop
      vertex 12.6 46.6 2
      vertex 12.6 46.6 20
      vertex 7.09999 46.6 20
    endloop
  endfacet
  facet normal -1 0 0
    outer loop
      vertex 12.6 1.59999 20
      vertex 12.6 46.6 2
      vertex 12.6 1.59999 2
    endloop
  endfacet
  facet normal -1 0 0
    outer loop
      vertex 12.6 1.59999 20
      vertex 12.6 46.6 20
      vertex 12.6 46.6 2
    endloop
  endfacet
  facet normal 0 1 0
    outer loop
      vertex 9.59999 1.59999 20
      vertex 12.6 1.59999 2
      vertex 9.59999 1.59999 2
    endloop
  endfacet
  facet normal -0 1 0
    outer loop
      vertex 9.59999 1.59999 20
      vertex 12.6 1.59999 20
      vertex 12.6 1.59999 2
    endloop
  endfacet
  facet normal -1 0 0
    outer loop
      vertex 9.59999 0 20
      vertex 9.59999 1.59999 2
      vertex 9.59999 0 2
    endloop
  endfacet
  facet normal -1 0 0
    outer loop
      vertex 9.59999 0 20
      vertex 9.59999 1.59999 20
      vertex 9.59999 1.59999 2
    endloop
  endfacet
  facet normal 1 0 0
    outer loop
      vertex 16.7 1.59999 2
      vertex 16.7 0 20
      vertex 16.7 0 2
    endloop
  endfacet
  facet normal 1 0 -0
    outer loop
      vertex 16.7 1.59999 2
      vertex 16.7 1.59999 20
      vertex 16.7 0 20
    endloop
  endfacet
  facet normal -1 0 0
    outer loop
      vertex 22.2 46.6 20
      vertex 22.2 48.2 2
      vertex 22.2 46.6 2
    endloop
  endfacet
  facet normal -1 0 0
    outer loop
      vertex 22.2 46.6 20
      vertex 22.2 48.2 20
      vertex 22.2 48.2 2
    endloop
  endfacet
  facet normal -0 -1 0
    outer loop
      vertex 23.2 46.6 12
      vertex 22.2 46.6 20
      vertex 22.2 46.6 2
    endloop
  endfacet
  facet normal 0 -1 0
    outer loop
      vertex 23.2 46.6 2
      vertex 23.2 46.6 12
      vertex 22.2 46.6 2
    endloop
  endfacet
  facet normal -0 -1 0
    outer loop
      vertex 28.2 46.6 20
      vertex 22.2 46.6 20
      vertex 23.2 46.6 12
    endloop
  endfacet
  facet normal 0 -1 0
    outer loop
      vertex 28.2 46.6 12
      vertex 28.2 46.6 20
      vertex 23.2 46.6 12
    endloop
  endfacet
  facet normal -1 0 0
    outer loop
      vertex 28.2 1.59999 20
      vertex 28.2 15 12
      vertex 28.2 1.59999 12
    endloop
  endfacet
  facet normal -1 0 0
    outer loop
      vertex 28.2 1.59999 20
      vertex 28.2 46.6 20
      vertex 28.2 15 12
    endloop
  endfacet
  facet normal -1 0 -0
    outer loop
      vertex 28.2 46.6 20
      vertex 28.2 46.6 12
      vertex 28.2 41.6 12
    endloop
  endfacet
  facet normal -1 0 0
    outer loop
      vertex 28.2 46.6 20
      vertex 28.2 41.6 12
      vertex 28.2 15 12
    endloop
  endfacet
  facet normal -1 0 0
    outer loop
      vertex 28.2 41.6 2
      vertex 28.2 15 12
      vertex 28.2 41.6 12
    endloop
  endfacet
  facet normal -1 0 0
    outer loop
      vertex 28.2 15 2
      vertex 28.2 15 12
      vertex 28.2 41.6 2
    endloop
  endfacet
  facet normal 0 1 0
    outer loop
      vertex 28.2 1.59999 20
      vertex 28.2 1.59999 12
      vertex 24.7 1.59999 12
    endloop
  endfacet
  facet normal 0 1 0
    outer loop
      vertex 28.2 1.59999 20
      vertex 24.7 1.59999 12
      vertex 23.7 1.59999 20
    endloop
  endfacet
  facet normal 0 1 0
    outer loop
      vertex 23.7 1.59999 20
      vertex 24.7 1.59999 12
      vertex 23.7 1.59999 2
    endloop
  endfacet
  facet normal 0 1 0
    outer loop
      vertex 24.7 1.59999 12
      vertex 24.7 1.59999 2
      vertex 23.7 1.59999 2
    endloop
  endfacet
  facet normal -1 0 0
    outer loop
      vertex 23.7 0 20
      vertex 23.7 1.59999 2
      vertex 23.7 0 2
    endloop
  endfacet
  facet normal -1 0 0
    outer loop
      vertex 23.7 0 20
      vertex 23.7 1.59999 20
      vertex 23.7 1.59999 2
    endloop
  endfacet
  facet normal 0 0 1
    outer loop
      vertex 28.2 41.6 12
      vertex 23.2 46.6 12
      vertex 23.2 41.6 12
    endloop
  endfacet
  facet normal 0 -0 1
    outer loop
      vertex 28.2 41.6 12
      vertex 28.2 46.6 12
      vertex 23.2 46.6 12
    endloop
  endfacet
  facet normal 0 0 1
    outer loop
      vertex 5.59999 21.6 12
      vertex 1.59999 40.6 12
      vertex 1.59999 21.6 12
    endloop
  endfacet
  facet normal 0 -0 1
    outer loop
      vertex 5.59999 21.6 12
      vertex 5.59999 40.6 12
      vertex 1.59999 40.6 12
    endloop
  endfacet
  facet normal 0 0 1
    outer loop
      vertex 1.6 15.6 12
      vertex 1.59999 15.6 12
      vertex 1.6 6.6 12
    endloop
  endfacet
  facet normal 0 0 1
    outer loop
      vertex 5.59999 6.59999 12
      vertex 1.6 6.6 12
      vertex 1.59999 6.59999 12
    endloop
  endfacet
  facet normal 0 0 1
    outer loop
      vertex 5.59999 6.6 12
      vertex 1.6 6.6 12
      vertex 5.59999 6.59999 12
    endloop
  endfacet
  facet normal 0 0 1
    outer loop
      vertex 1.6 6.6 12
      vertex 1.59999 15.6 12
      vertex 1.59999 6.59999 12
    endloop
  endfacet
  facet normal 0 0 1
    outer loop
      vertex 2.18408 9.99641 12
      vertex 1.72045 11.3469 12
      vertex 1.72045 10.8531 12
    endloop
  endfacet
  facet normal -0 -0 1
    outer loop
      vertex 1.88078 10.3861 12
      vertex 2.18408 9.99641 12
      vertex 1.72045 10.8531 12
    endloop
  endfacet
  facet normal 0 -0 1
    outer loop
      vertex 2.18408 9.99641 12
      vertex 2.18408 12.2036 12
      vertex 1.72045 11.3469 12
    endloop
  endfacet
  facet normal -0 -0 1
    outer loop
      vertex 2.59745 9.72633 12
      vertex 3.56822 9.6459 12
      vertex 2.18408 9.99641 12
    endloop
  endfacet
  facet normal 0 -0 1
    outer loop
      vertex 3.07612 9.60511 12
      vertex 3.56822 9.6459 12
      vertex 2.59745 9.72633 12
    endloop
  endfacet
  facet normal 0 0 1
    outer loop
      vertex 3.56822 9.6459 12
      vertex 2.18408 12.2036 12
      vertex 2.18408 9.99641 12
    endloop
  endfacet
  facet normal 0 -0 1
    outer loop
      vertex 4.02041 9.84425 12
      vertex 4.02041 12.3557 12
      vertex 3.56822 9.6459 12
    endloop
  endfacet
  facet normal 0 -0 1
    outer loop
      vertex 4.38371 10.1787 12
      vertex 4.69999 11.1 12
      vertex 4.02041 9.84425 12
    endloop
  endfacet
  facet normal 0 -0 1
    outer loop
      vertex 4.61872 10.6129 12
      vertex 4.69999 11.1 12
      vertex 4.38371 10.1787 12
    endloop
  endfacet
  facet normal 0 0 1
    outer loop
      vertex 4.69999 11.1 12
      vertex 4.02041 12.3557 12
      vertex 4.02041 9.84425 12
    endloop
  endfacet
  facet normal 0 0 1
    outer loop
      vertex 4.61872 11.587 12
      vertex 4.38371 12.0213 12
      vertex 4.69999 11.1 12
    endloop
  endfacet
  facet normal 0 0 1
    outer loop
      vertex 4.38371 12.0213 12
      vertex 4.02041 12.3557 12
      vertex 4.69999 11.1 12
    endloop
  endfacet
  facet normal 0 0 1
    outer loop
      vertex 4.02041 12.3557 12
      vertex 3.56822 12.5541 12
      vertex 3.56822 9.6459 12
    endloop
  endfacet
  facet normal 0 0 1
    outer loop
      vertex 3.56822 12.5541 12
      vertex 2.18408 12.2036 12
      vertex 3.56822 9.6459 12
    endloop
  endfacet
  facet normal 0 0 1
    outer loop
      vertex 3.07612 12.5949 12
      vertex 2.59745 12.4737 12
      vertex 3.56822 12.5541 12
    endloop
  endfacet
  facet normal -0 0 1
    outer loop
      vertex 2.59745 12.4737 12
      vertex 2.18408 12.2036 12
      vertex 3.56822 12.5541 12
    endloop
  endfacet
  facet normal 0 0 1
    outer loop
      vertex 2.18408 12.2036 12
      vertex 1.88078 11.8139 12
      vertex 1.72045 11.3469 12
    endloop
  endfacet
  facet normal 0 0 1
    outer loop
      vertex 28.2 1.59999 12
      vertex 24.7 15 12
      vertex 24.7 1.59999 12
    endloop
  endfacet
  facet normal 0 -0 1
    outer loop
      vertex 28.2 1.59999 12
      vertex 28.2 15 12
      vertex 24.7 15 12
    endloop
  endfacet
  facet normal -1 0 0
    outer loop
      vertex 23.2 41.6 12
      vertex 23.2 46.6 2
      vertex 23.2 41.6 2
    endloop
  endfacet
  facet normal -1 0 0
    outer loop
      vertex 23.2 41.6 12
      vertex 23.2 46.6 12
      vertex 23.2 46.6 2
    endloop
  endfacet
  facet normal 0 -1 0
    outer loop
      vertex 28.2 41.6 2
      vertex 23.2 41.6 12
      vertex 23.2 41.6 2
    endloop
  endfacet
  facet normal 0 -1 0
    outer loop
      vertex 28.2 41.6 2
      vertex 28.2 41.6 12
      vertex 23.2 41.6 12
    endloop
  endfacet
  facet normal 0 1 0
    outer loop
      vertex 1.59999 40.6 12
      vertex 5.59999 40.6 2
      vertex 1.59999 40.6 2
    endloop
  endfacet
  facet normal -0 1 0
    outer loop
      vertex 1.59999 40.6 12
      vertex 5.59999 40.6 12
      vertex 5.59999 40.6 2
    endloop
  endfacet
  facet normal 0 -1 0
    outer loop
      vertex 5.59999 21.6 2
      vertex 1.59999 21.6 12
      vertex 1.59999 21.6 2
    endloop
  endfacet
  facet normal 0 -1 0
    outer loop
      vertex 5.59999 21.6 2
      vertex 5.59999 21.6 12
      vertex 1.59999 21.6 12
    endloop
  endfacet
  facet normal 1 0 0
    outer loop
      vertex 5.59999 40.6 2
      vertex 5.59999 21.6 12
      vertex 5.59999 21.6 2
    endloop
  endfacet
  facet normal 1 0 -0
    outer loop
      vertex 5.59999 40.6 2
      vertex 5.59999 40.6 12
      vertex 5.59999 21.6 12
    endloop
  endfacet
  facet normal 0 1 0
    outer loop
      vertex 1.59999 15.6 12
      vertex 1.6 15.6 2
      vertex 1.59999 15.6 2
    endloop
  endfacet
  facet normal -0 1 0
    outer loop
      vertex 1.59999 15.6 12
      vertex 1.6 15.6 12
      vertex 1.6 15.6 2
    endloop
  endfacet
  facet normal 0 -1 0
    outer loop
      vertex 5.59999 6.59999 2
      vertex 1.59999 6.59999 12
      vertex 1.59999 6.59999 2
    endloop
  endfacet
  facet normal 0 -1 0
    outer loop
      vertex 5.59999 6.59999 2
      vertex 5.59999 6.59999 12
      vertex 1.59999 6.59999 12
    endloop
  endfacet
  facet normal 1 0 0
    outer loop
      vertex 5.59999 6.6 2
      vertex 5.59999 6.59999 12
      vertex 5.59999 6.59999 2
    endloop
  endfacet
  facet normal 1 0 -0
    outer loop
      vertex 5.59999 6.6 2
      vertex 5.59999 6.6 12
      vertex 5.59999 6.59999 12
    endloop
  endfacet
  facet normal 0 1 0
    outer loop
      vertex 24.7 15 12
      vertex 28.2 15 2
      vertex 24.7 15 2
    endloop
  endfacet
  facet normal -0 1 0
    outer loop
      vertex 24.7 15 12
      vertex 28.2 15 12
      vertex 28.2 15 2
    endloop
  endfacet
  facet normal -1 0 0
    outer loop
      vertex 24.7 1.59999 12
      vertex 24.7 15 2
      vertex 24.7 1.59999 2
    endloop
  endfacet
  facet normal -1 0 0
    outer loop
      vertex 24.7 1.59999 12
      vertex 24.7 15 12
      vertex 24.7 15 2
    endloop
  endfacet
  facet normal 0 0 1
    outer loop
      vertex 5.6 15.6 20
      vertex 1.6 15.6 20
      vertex 3.56822 12.5541 20
    endloop
  endfacet
  facet normal 0 0 1
    outer loop
      vertex 1.72045 11.3469 20
      vertex 1.6 15.6 20
      vertex 1.6 6.6 20
    endloop
  endfacet
  facet normal 0 0 1
    outer loop
      vertex 1.72045 11.3469 20
      vertex 1.6 6.6 20
      vertex 1.72045 10.8531 20
    endloop
  endfacet
  facet normal 0 0 1
    outer loop
      vertex 1.88078 11.8139 20
      vertex 1.6 15.6 20
      vertex 1.72045 11.3469 20
    endloop
  endfacet
  facet normal 0 0 1
    outer loop
      vertex 1.6 15.6 20
      vertex 2.18408 12.2036 20
      vertex 2.59745 12.4737 20
    endloop
  endfacet
  facet normal 0 0 1
    outer loop
      vertex 2.18408 12.2036 20
      vertex 1.6 15.6 20
      vertex 1.88078 11.8139 20
    endloop
  endfacet
  facet normal 0 0 1
    outer loop
      vertex 1.6 15.6 20
      vertex 2.59745 12.4737 20
      vertex 3.07612 12.5949 20
    endloop
  endfacet
  facet normal 0 0 1
    outer loop
      vertex 1.6 15.6 20
      vertex 3.07612 12.5949 20
      vertex 3.56822 12.5541 20
    endloop
  endfacet
  facet normal 0 0 1
    outer loop
      vertex 5.6 15.6 20
      vertex 3.56822 12.5541 20
      vertex 4.02041 12.3557 20
    endloop
  endfacet
  facet normal 0 0 1
    outer loop
      vertex 5.6 15.6 20
      vertex 4.02041 12.3557 20
      vertex 4.38371 12.0213 20
    endloop
  endfacet
  facet normal 0 0 1
    outer loop
      vertex 5.6 15.6 20
      vertex 4.38371 12.0213 20
      vertex 4.61872 11.587 20
    endloop
  endfacet
  facet normal 0 0 1
    outer loop
      vertex 5.6 15.6 20
      vertex 4.69999 11.1 20
      vertex 5.6 6.6 20
    endloop
  endfacet
  facet normal -0 0 1
    outer loop
      vertex 4.61872 11.587 20
      vertex 4.69999 11.1 20
      vertex 5.6 15.6 20
    endloop
  endfacet
  facet normal 0 0 1
    outer loop
      vertex 4.69999 11.1 20
      vertex 4.61872 10.6129 20
      vertex 5.6 6.6 20
    endloop
  endfacet
  facet normal 0 0 1
    outer loop
      vertex 1.72045 10.8531 20
      vertex 1.6 6.6 20
      vertex 1.88078 10.3861 20
    endloop
  endfacet
  facet normal 0 0 1
    outer loop
      vertex 4.61872 10.6129 20
      vertex 4.38371 10.1787 20
      vertex 5.6 6.6 20
    endloop
  endfacet
  facet normal 0 0 1
    outer loop
      vertex 3.56822 9.6459 20
      vertex 1.6 6.6 20
      vertex 5.6 6.6 20
    endloop
  endfacet
  facet normal -0 0 1
    outer loop
      vertex 4.02041 9.84425 20
      vertex 5.6 6.6 20
      vertex 4.38371 10.1787 20
    endloop
  endfacet
  facet normal -0 0 1
    outer loop
      vertex 3.56822 9.6459 20
      vertex 5.6 6.6 20
      vertex 4.02041 9.84425 20
    endloop
  endfacet
  facet normal -0 0 1
    outer loop
      vertex 3.07612 9.60511 20
      vertex 1.6 6.6 20
      vertex 3.56822 9.6459 20
    endloop
  endfacet
  facet normal 0 0 1
    outer loop
      vertex 2.59745 9.72633 20
      vertex 1.6 6.6 20
      vertex 3.07612 9.60511 20
    endloop
  endfacet
  facet normal 0 0 1
    outer loop
      vertex 2.18408 9.99641 20
      vertex 1.6 6.6 20
      vertex 2.59745 9.72633 20
    endloop
  endfacet
  facet normal 0 0 1
    outer loop
      vertex 1.88078 10.3861 20
      vertex 1.6 6.6 20
      vertex 2.18408 9.99641 20
    endloop
  endfacet
  facet normal 0 1 0
    outer loop
      vertex 1.6 15.6 20
      vertex 5.6 15.6 2
      vertex 1.6 15.6 2
    endloop
  endfacet
  facet normal -0 1 0
    outer loop
      vertex 1.6 15.6 20
      vertex 5.6 15.6 20
      vertex 5.6 15.6 2
    endloop
  endfacet
  facet normal -1 0 0
    outer loop
      vertex 1.6 6.6 20
      vertex 1.6 15.6 12
      vertex 1.6 6.6 12
    endloop
  endfacet
  facet normal -1 0 0
    outer loop
      vertex 1.6 6.6 20
      vertex 1.6 15.6 20
      vertex 1.6 15.6 12
    endloop
  endfacet
  facet normal -1 0 -0
    outer loop
      vertex 1.6 15.6 20
      vertex 1.6 15.6 2
      vertex 1.6 15.6 12
    endloop
  endfacet
  facet normal 0 -1 0
    outer loop
      vertex 5.59999 6.6 12
      vertex 1.6 6.6 20
      vertex 1.6 6.6 12
    endloop
  endfacet
  facet normal 0 -1 0
    outer loop
      vertex 5.59999 6.6 12
      vertex 5.59999 6.6 2
      vertex 5.6 6.6 2
    endloop
  endfacet
  facet normal 0 -1 0
    outer loop
      vertex 5.59999 6.6 12
      vertex 5.6 6.6 2
      vertex 5.6 6.6 20
    endloop
  endfacet
  facet normal 0 -1 0
    outer loop
      vertex 5.59999 6.6 12
      vertex 5.6 6.6 20
      vertex 1.6 6.6 20
    endloop
  endfacet
  facet normal 1 0 0
    outer loop
      vertex 5.6 15.6 2
      vertex 5.6 6.6 20
      vertex 5.6 6.6 2
    endloop
  endfacet
  facet normal 1 0 -0
    outer loop
      vertex 5.6 15.6 2
      vertex 5.6 15.6 20
      vertex 5.6 6.6 20
    endloop
  endfacet
  facet normal 0.54696 0.837158 0
    outer loop
      vertex 2.18408 9.99641 20
      vertex 2.59745 9.72633 12
      vertex 2.18408 9.99641 12
    endloop
  endfacet
  facet normal 0.54696 0.837158 0
    outer loop
      vertex 2.18408 9.99641 20
      vertex 2.59745 9.72633 20
      vertex 2.59745 9.72633 12
    endloop
  endfacet
  facet normal 0.789129 0.614227 0
    outer loop
      vertex 2.18408 9.99641 20
      vertex 2.18408 9.99641 12
      vertex 1.88078 10.3861 12
    endloop
  endfacet
  facet normal 0.789129 0.614227 0
    outer loop
      vertex 1.88078 10.3861 20
      vertex 2.18408 9.99641 20
      vertex 1.88078 10.3861 12
    endloop
  endfacet
  facet normal 0.945821 0.324689 0
    outer loop
      vertex 1.88078 10.3861 20
      vertex 1.88078 10.3861 12
      vertex 1.72045 10.8531 12
    endloop
  endfacet
  facet normal 0.945821 0.324689 0
    outer loop
      vertex 1.72045 10.8531 20
      vertex 1.88078 10.3861 20
      vertex 1.72045 10.8531 12
    endloop
  endfacet
  facet normal 1 0 0
    outer loop
      vertex 1.72045 11.3469 12
      vertex 1.72045 10.8531 20
      vertex 1.72045 10.8531 12
    endloop
  endfacet
  facet normal 1 0 -0
    outer loop
      vertex 1.72045 11.3469 12
      vertex 1.72045 11.3469 20
      vertex 1.72045 10.8531 20
    endloop
  endfacet
  facet normal 0.945821 -0.324689 0
    outer loop
      vertex 1.88078 11.8139 12
      vertex 1.72045 11.3469 20
      vertex 1.72045 11.3469 12
    endloop
  endfacet
  facet normal 0.945821 -0.324689 0
    outer loop
      vertex 1.88078 11.8139 12
      vertex 1.88078 11.8139 20
      vertex 1.72045 11.3469 20
    endloop
  endfacet
  facet normal 0.789129 -0.614227 0
    outer loop
      vertex 2.18408 12.2036 12
      vertex 1.88078 11.8139 20
      vertex 1.88078 11.8139 12
    endloop
  endfacet
  facet normal 0.789129 -0.614227 0
    outer loop
      vertex 2.18408 12.2036 12
      vertex 2.18408 12.2036 20
      vertex 1.88078 11.8139 20
    endloop
  endfacet
  facet normal 0.54696 -0.837158 0
    outer loop
      vertex 2.59745 12.4737 12
      vertex 2.18408 12.2036 20
      vertex 2.18408 12.2036 12
    endloop
  endfacet
  facet normal 0.54696 -0.837158 0
    outer loop
      vertex 2.59745 12.4737 12
      vertex 2.59745 12.4737 20
      vertex 2.18408 12.2036 20
    endloop
  endfacet
  facet normal 0.245487 -0.9694 0
    outer loop
      vertex 3.07612 12.5949 12
      vertex 2.59745 12.4737 20
      vertex 2.59745 12.4737 12
    endloop
  endfacet
  facet normal 0.245487 -0.9694 0
    outer loop
      vertex 3.07612 12.5949 12
      vertex 3.07612 12.5949 20
      vertex 2.59745 12.4737 20
    endloop
  endfacet
  facet normal -0.0826005 -0.996583 0
    outer loop
      vertex 3.56822 12.5541 12
      vertex 3.07612 12.5949 20
      vertex 3.07612 12.5949 12
    endloop
  endfacet
  facet normal -0.0826005 -0.996583 0
    outer loop
      vertex 3.56822 12.5541 12
      vertex 3.56822 12.5541 20
      vertex 3.07612 12.5949 20
    endloop
  endfacet
  facet normal -0.401692 -0.915775 0
    outer loop
      vertex 4.02041 12.3557 12
      vertex 3.56822 12.5541 20
      vertex 3.56822 12.5541 12
    endloop
  endfacet
  facet normal -0.401692 -0.915775 0
    outer loop
      vertex 4.02041 12.3557 12
      vertex 4.02041 12.3557 20
      vertex 3.56822 12.5541 20
    endloop
  endfacet
  facet normal -0.677269 -0.735735 0
    outer loop
      vertex 4.38371 12.0213 12
      vertex 4.02041 12.3557 20
      vertex 4.02041 12.3557 12
    endloop
  endfacet
  facet normal -0.677269 -0.735735 0
    outer loop
      vertex 4.38371 12.0213 12
      vertex 4.38371 12.0213 20
      vertex 4.02041 12.3557 20
    endloop
  endfacet
  facet normal -0.879471 -0.475953 0
    outer loop
      vertex 4.61872 11.587 20
      vertex 4.38371 12.0213 20
      vertex 4.38371 12.0213 12
    endloop
  endfacet
  facet normal -0.879471 -0.475953 0
    outer loop
      vertex 4.61872 11.587 12
      vertex 4.61872 11.587 20
      vertex 4.38371 12.0213 12
    endloop
  endfacet
  facet normal -0.986363 -0.164584 0
    outer loop
      vertex 4.69999 11.1 20
      vertex 4.61872 11.587 20
      vertex 4.61872 11.587 12
    endloop
  endfacet
  facet normal -0.986363 -0.164584 0
    outer loop
      vertex 4.69999 11.1 12
      vertex 4.69999 11.1 20
      vertex 4.61872 11.587 12
    endloop
  endfacet
  facet normal -0.986364 0.164579 0
    outer loop
      vertex 4.61872 10.6129 20
      vertex 4.69999 11.1 12
      vertex 4.61872 10.6129 12
    endloop
  endfacet
  facet normal -0.986364 0.164579 0
    outer loop
      vertex 4.61872 10.6129 20
      vertex 4.69999 11.1 20
      vertex 4.69999 11.1 12
    endloop
  endfacet
  facet normal -0.879471 0.475953 0
    outer loop
      vertex 4.38371 10.1787 20
      vertex 4.61872 10.6129 12
      vertex 4.38371 10.1787 12
    endloop
  endfacet
  facet normal -0.879471 0.475953 0
    outer loop
      vertex 4.38371 10.1787 20
      vertex 4.61872 10.6129 20
      vertex 4.61872 10.6129 12
    endloop
  endfacet
  facet normal -0.677269 0.735735 0
    outer loop
      vertex 4.02041 9.84425 20
      vertex 4.38371 10.1787 12
      vertex 4.02041 9.84425 12
    endloop
  endfacet
  facet normal -0.677269 0.735735 0
    outer loop
      vertex 4.02041 9.84425 20
      vertex 4.38371 10.1787 20
      vertex 4.38371 10.1787 12
    endloop
  endfacet
  facet normal -0.401692 0.915775 0
    outer loop
      vertex 3.56822 9.6459 20
      vertex 4.02041 9.84425 12
      vertex 3.56822 9.6459 12
    endloop
  endfacet
  facet normal -0.401692 0.915775 0
    outer loop
      vertex 3.56822 9.6459 20
      vertex 4.02041 9.84425 20
      vertex 4.02041 9.84425 12
    endloop
  endfacet
  facet normal -0.0826005 0.996583 0
    outer loop
      vertex 3.07612 9.60511 20
      vertex 3.56822 9.6459 12
      vertex 3.07612 9.60511 12
    endloop
  endfacet
  facet normal -0.0826005 0.996583 0
    outer loop
      vertex 3.07612 9.60511 20
      vertex 3.56822 9.6459 20
      vertex 3.56822 9.6459 12
    endloop
  endfacet
  facet normal 0.245487 0.9694 0
    outer loop
      vertex 2.59745 9.72633 20
      vertex 3.07612 9.60511 12
      vertex 2.59745 9.72633 12
    endloop
  endfacet
  facet normal 0.245487 0.9694 0
    outer loop
      vertex 2.59745 9.72633 20
      vertex 3.07612 9.60511 20
      vertex 3.07612 9.60511 12
    endloop
  endfacet
endsolid OpenSCAD_Model
