solid OpenSCAD_Model
  facet normal 0 1.22461e-016 1
    outer loop
      vertex -39.2 -0.799988 9.7967e-017
      vertex -36.727 -10.3081 1.26234e-015
      vertex -36.2491 -10.1678 1.24516e-015
    endloop
  endfacet
  facet normal 0 1.22461e-016 1
    outer loop
      vertex -9.40001 -0.799988 9.7967e-017
      vertex -13 -3.39999 4.16365e-016
      vertex -13 -5.39999 6.61287e-016
    endloop
  endfacet
  facet normal 0 1.22461e-016 1
    outer loop
      vertex -22.5 0 0
      vertex -22.5 -0.799988 9.7967e-017
      vertex -15.5 -0.799988 9.7967e-017
    endloop
  endfacet
  facet normal -0 1.22461e-016 1
    outer loop
      vertex -22.5 0 0
      vertex -15.5 -0.799988 9.7967e-017
      vertex -15.5 0 0
    endloop
  endfacet
  facet normal 0 1.22461e-016 1
    outer loop
      vertex -39.2 -49 6.00057e-015
      vertex -37.75 -11.9 1.45728e-015
      vertex -39.2 -0.799988 9.7967e-017
    endloop
  endfacet
  facet normal 0 1.22461e-016 1
    outer loop
      vertex -37.75 -11.9 1.45728e-015
      vertex -37.6791 -11.407 1.3969e-015
      vertex -39.2 -0.799988 9.7967e-017
    endloop
  endfacet
  facet normal 0 1.22461e-016 1
    outer loop
      vertex -37.6791 -11.407 1.3969e-015
      vertex -37.4722 -10.9539 1.34142e-015
      vertex -39.2 -0.799988 9.7967e-017
    endloop
  endfacet
  facet normal 0 1.22461e-016 1
    outer loop
      vertex -24 -7.39999 9.06208e-016
      vertex -34.854 -10.5774 1.29532e-015
      vertex -34.5278 -10.9539 1.34142e-015
    endloop
  endfacet
  facet normal 0 1.22461e-016 1
    outer loop
      vertex -37.4722 -10.9539 1.34142e-015
      vertex -37.146 -10.5774 1.29532e-015
      vertex -39.2 -0.799988 9.7967e-017
    endloop
  endfacet
  facet normal 0 1.22461e-016 1
    outer loop
      vertex -24 -13.4 1.64097e-015
      vertex -34.25 -11.9 1.45728e-015
      vertex -34.3209 -12.393 1.51766e-015
    endloop
  endfacet
  facet normal 0 1.22461e-016 1
    outer loop
      vertex -36.727 -10.3081 1.26234e-015
      vertex -39.2 -0.799988 9.7967e-017
      vertex -37.146 -10.5774 1.29532e-015
    endloop
  endfacet
  facet normal 0 1.22461e-016 1
    outer loop
      vertex -39.2 -0.799988 9.7967e-017
      vertex -36.2491 -10.1678 1.24516e-015
      vertex -35.751 -10.1678 1.24516e-015
    endloop
  endfacet
  facet normal 0 1.22461e-016 1
    outer loop
      vertex -39.2 -0.799988 9.7967e-017
      vertex -35.751 -10.1678 1.24516e-015
      vertex -35.273 -10.3081 1.26234e-015
    endloop
  endfacet
  facet normal 0 1.22461e-016 1
    outer loop
      vertex -39.2 -0.799988 9.7967e-017
      vertex -35.273 -10.3081 1.26234e-015
      vertex -24 -3.39999 4.16365e-016
    endloop
  endfacet
  facet normal 0 1.22461e-016 1
    outer loop
      vertex -35.273 -10.3081 1.26234e-015
      vertex -34.854 -10.5774 1.29532e-015
      vertex -24 -3.39999 4.16365e-016
    endloop
  endfacet
  facet normal 0 1.22461e-016 1
    outer loop
      vertex -24 -7.39999 9.06208e-016
      vertex -24 -5.39999 6.61287e-016
      vertex -34.854 -10.5774 1.29532e-015
    endloop
  endfacet
  facet normal 0 1.22461e-016 1
    outer loop
      vertex -37.75 -11.9 1.45728e-015
      vertex -39.2 -49 6.00057e-015
      vertex -37.6791 -12.393 1.51766e-015
    endloop
  endfacet
  facet normal 0 1.22461e-016 1
    outer loop
      vertex -24 -11.4 1.39605e-015
      vertex -24 -9.39999 1.15113e-015
      vertex -34.3209 -11.407 1.3969e-015
    endloop
  endfacet
  facet normal 0 1.22461e-016 1
    outer loop
      vertex -34.5278 -10.9539 1.34142e-015
      vertex -34.3209 -11.407 1.3969e-015
      vertex -24 -9.39999 1.15113e-015
    endloop
  endfacet
  facet normal 0 1.22461e-016 1
    outer loop
      vertex -34.3209 -11.407 1.3969e-015
      vertex -34.25 -11.9 1.45728e-015
      vertex -24 -11.4 1.39605e-015
    endloop
  endfacet
  facet normal 0 1.22461e-016 1
    outer loop
      vertex -27.6 -19.4 2.37574e-015
      vertex -34.3209 -12.393 1.51766e-015
      vertex -34.5278 -12.8461 1.57314e-015
    endloop
  endfacet
  facet normal 0 1.22461e-016 1
    outer loop
      vertex -27.6 -19.4 2.37574e-015
      vertex -34.854 -13.2225 1.61924e-015
      vertex -36.6 -19.4 2.37574e-015
    endloop
  endfacet
  facet normal 0 1.22461e-016 1
    outer loop
      vertex -34.5278 -12.8461 1.57314e-015
      vertex -34.854 -13.2225 1.61924e-015
      vertex -27.6 -19.4 2.37574e-015
    endloop
  endfacet
  facet normal 0 1.22461e-016 1
    outer loop
      vertex -37.6791 -12.393 1.51766e-015
      vertex -36.6 -23.4 2.86558e-015
      vertex -36.6 -21.4 2.62066e-015
    endloop
  endfacet
  facet normal 0 1.22461e-016 1
    outer loop
      vertex -37.6791 -12.393 1.51766e-015
      vertex -36.6 -21.4 2.62066e-015
      vertex -36.6 -19.4 2.37574e-015
    endloop
  endfacet
  facet normal 0 1.22461e-016 1
    outer loop
      vertex -37.146 -13.2225 1.61924e-015
      vertex -36.6 -19.4 2.37574e-015
      vertex -36.727 -13.4919 1.65222e-015
    endloop
  endfacet
  facet normal 0 1.22461e-016 1
    outer loop
      vertex -37.4722 -12.8461 1.57314e-015
      vertex -36.6 -19.4 2.37574e-015
      vertex -37.146 -13.2225 1.61924e-015
    endloop
  endfacet
  facet normal 0 1.22461e-016 1
    outer loop
      vertex -37.6791 -12.393 1.51766e-015
      vertex -36.6 -19.4 2.37574e-015
      vertex -37.4722 -12.8461 1.57314e-015
    endloop
  endfacet
  facet normal 0 1.22461e-016 1
    outer loop
      vertex -36.6 -19.4 2.37574e-015
      vertex -35.273 -13.4919 1.65222e-015
      vertex -35.751 -13.6322 1.66941e-015
    endloop
  endfacet
  facet normal 0 1.22461e-016 1
    outer loop
      vertex -34.854 -13.2225 1.61924e-015
      vertex -35.273 -13.4919 1.65222e-015
      vertex -36.6 -19.4 2.37574e-015
    endloop
  endfacet
  facet normal 0 1.22461e-016 1
    outer loop
      vertex -36.727 -13.4919 1.65222e-015
      vertex -36.6 -19.4 2.37574e-015
      vertex -36.2491 -13.6322 1.66941e-015
    endloop
  endfacet
  facet normal 0 1.22461e-016 1
    outer loop
      vertex -36.6 -19.4 2.37574e-015
      vertex -35.751 -13.6322 1.66941e-015
      vertex -36.2491 -13.6322 1.66941e-015
    endloop
  endfacet
  facet normal 0 1.22461e-016 1
    outer loop
      vertex -24 -9.39999 1.15113e-015
      vertex -24 -7.39999 9.06208e-016
      vertex -34.5278 -10.9539 1.34142e-015
    endloop
  endfacet
  facet normal 0 1.22461e-016 1
    outer loop
      vertex -37.6791 -12.393 1.51766e-015
      vertex -36.6 -27.4 3.35542e-015
      vertex -36.6 -25.4 3.1105e-015
    endloop
  endfacet
  facet normal 0 1.22461e-016 1
    outer loop
      vertex -37.6791 -12.393 1.51766e-015
      vertex -36.6 -25.4 3.1105e-015
      vertex -36.6 -23.4 2.86558e-015
    endloop
  endfacet
  facet normal -0 1.22461e-016 1
    outer loop
      vertex -36.6 -21.4 2.62066e-015
      vertex -27.6 -23.4 2.86558e-015
      vertex -27.6 -21.4 2.62066e-015
    endloop
  endfacet
  facet normal -0 1.22461e-016 1
    outer loop
      vertex -36.6 -23.4 2.86558e-015
      vertex -27.6 -23.4 2.86558e-015
      vertex -36.6 -21.4 2.62066e-015
    endloop
  endfacet
  facet normal 0 1.22461e-016 1
    outer loop
      vertex -37.6791 -12.393 1.51766e-015
      vertex -39.2 -49 6.00057e-015
      vertex -36.6 -27.4 3.35542e-015
    endloop
  endfacet
  facet normal 0 1.22461e-016 1
    outer loop
      vertex -34.3209 -12.393 1.51766e-015
      vertex -27.6 -19.4 2.37574e-015
      vertex -24 -13.4 1.64097e-015
    endloop
  endfacet
  facet normal 0 1.22461e-016 1
    outer loop
      vertex -39.2 -49 6.00057e-015
      vertex -36.6 -29.4 3.60034e-015
      vertex -36.6 -27.4 3.35542e-015
    endloop
  endfacet
  facet normal -0 1.22461e-016 1
    outer loop
      vertex -36.6 -25.4 3.1105e-015
      vertex -27.6 -27.4 3.35542e-015
      vertex -27.6 -25.4 3.1105e-015
    endloop
  endfacet
  facet normal -0 1.22461e-016 1
    outer loop
      vertex -36.6 -27.4 3.35542e-015
      vertex -27.6 -27.4 3.35542e-015
      vertex -36.6 -25.4 3.1105e-015
    endloop
  endfacet
  facet normal 0 1.22461e-016 1
    outer loop
      vertex -36.6 -29.4 3.60034e-015
      vertex -39.2 -49 6.00057e-015
      vertex -36.6 -31.4 3.84526e-015
    endloop
  endfacet
  facet normal -0 1.22461e-016 1
    outer loop
      vertex -27.6 -21.4 2.62066e-015
      vertex -27.6 -23.4 2.86558e-015
      vertex -20 -21.4 2.62066e-015
    endloop
  endfacet
  facet normal 0 1.22461e-016 1
    outer loop
      vertex -39.2 -49 6.00057e-015
      vertex -36.6 -33.4 4.09018e-015
      vertex -36.6 -31.4 3.84526e-015
    endloop
  endfacet
  facet normal -0 1.22461e-016 1
    outer loop
      vertex -36.6 -29.4 3.60034e-015
      vertex -27.6 -31.4 3.84526e-015
      vertex -27.6 -29.4 3.60034e-015
    endloop
  endfacet
  facet normal -0 1.22461e-016 1
    outer loop
      vertex -36.6 -31.4 3.84526e-015
      vertex -27.6 -31.4 3.84526e-015
      vertex -36.6 -29.4 3.60034e-015
    endloop
  endfacet
  facet normal 0 1.22461e-016 1
    outer loop
      vertex -27.6 -23.4 2.86558e-015
      vertex -27.6 -25.4 3.1105e-015
      vertex -20 -21.4 2.62066e-015
    endloop
  endfacet
  facet normal 0 1.22461e-016 1
    outer loop
      vertex -36.6 -33.4 4.09018e-015
      vertex -39.2 -49 6.00057e-015
      vertex -36.6 -35.4 4.33511e-015
    endloop
  endfacet
  facet normal -0 1.22461e-016 1
    outer loop
      vertex -27.6 -31.4 3.84526e-015
      vertex -24 -31.4 3.84526e-015
      vertex -27.6 -29.4 3.60034e-015
    endloop
  endfacet
  facet normal 0 1.22461e-016 1
    outer loop
      vertex -39.2 -49 6.00057e-015
      vertex -36.6 -37.4 4.58003e-015
      vertex -36.6 -35.4 4.33511e-015
    endloop
  endfacet
  facet normal -0 1.22461e-016 1
    outer loop
      vertex -36.6 -33.4 4.09018e-015
      vertex -27.6 -35.4 4.33511e-015
      vertex -27.6 -33.4 4.09018e-015
    endloop
  endfacet
  facet normal -0 1.22461e-016 1
    outer loop
      vertex -36.6 -35.4 4.33511e-015
      vertex -27.6 -35.4 4.33511e-015
      vertex -36.6 -33.4 4.09018e-015
    endloop
  endfacet
  facet normal -0 1.22461e-016 1
    outer loop
      vertex -27.6 -33.4 4.09018e-015
      vertex -24 -35.4 4.33511e-015
      vertex -24 -33.4 4.09018e-015
    endloop
  endfacet
  facet normal 0 1.22461e-016 1
    outer loop
      vertex -36.6 -37.4 4.58003e-015
      vertex -39.2 -49 6.00057e-015
      vertex -36.6 -39.4 4.82495e-015
    endloop
  endfacet
  facet normal -0 1.22461e-016 1
    outer loop
      vertex -27.6 -35.4 4.33511e-015
      vertex -24 -37.4 4.58003e-015
      vertex -24 -35.4 4.33511e-015
    endloop
  endfacet
  facet normal 0 1.22461e-016 1
    outer loop
      vertex -39.2 -49 6.00057e-015
      vertex -36.6 -41.4 5.06987e-015
      vertex -36.6 -39.4 4.82495e-015
    endloop
  endfacet
  facet normal -0 1.22461e-016 1
    outer loop
      vertex -36.6 -37.4 4.58003e-015
      vertex -27.6 -39.4 4.82495e-015
      vertex -27.6 -37.4 4.58003e-015
    endloop
  endfacet
  facet normal -0 1.22461e-016 1
    outer loop
      vertex -36.6 -39.4 4.82495e-015
      vertex -27.6 -39.4 4.82495e-015
      vertex -36.6 -37.4 4.58003e-015
    endloop
  endfacet
  facet normal -0 1.22461e-016 1
    outer loop
      vertex -27.6 -37.4 4.58003e-015
      vertex -24 -37.4 4.58003e-015
      vertex -27.6 -35.4 4.33511e-015
    endloop
  endfacet
  facet normal 0 1.22461e-016 1
    outer loop
      vertex -36.6 -41.4 5.06987e-015
      vertex -39.2 -49 6.00057e-015
      vertex -36.6 -43.4 5.31479e-015
    endloop
  endfacet
  facet normal 0 1.22461e-016 1
    outer loop
      vertex -24 -39.4 4.82495e-015
      vertex -24 -37.4 4.58003e-015
      vertex -27.6 -37.4 4.58003e-015
    endloop
  endfacet
  facet normal 0 1.22461e-016 1
    outer loop
      vertex -39.2 -49 6.00057e-015
      vertex -36.6 -45.4 5.55971e-015
      vertex -36.6 -43.4 5.31479e-015
    endloop
  endfacet
  facet normal -0 1.22461e-016 1
    outer loop
      vertex -36.6 -41.4 5.06987e-015
      vertex -27.6 -43.4 5.31479e-015
      vertex -27.6 -41.4 5.06987e-015
    endloop
  endfacet
  facet normal -0 1.22461e-016 1
    outer loop
      vertex -36.6 -43.4 5.31479e-015
      vertex -27.6 -43.4 5.31479e-015
      vertex -36.6 -41.4 5.06987e-015
    endloop
  endfacet
  facet normal -0 1.22461e-016 1
    outer loop
      vertex -27.6 -41.4 5.06987e-015
      vertex -24 -41.4 5.06987e-015
      vertex -27.6 -39.4 4.82495e-015
    endloop
  endfacet
  facet normal -0 1.22461e-016 1
    outer loop
      vertex -36.6 -45.4 5.55971e-015
      vertex -39.2 -49 6.00057e-015
      vertex -27.6 -45.4 5.55971e-015
    endloop
  endfacet
  facet normal 0 1.22461e-016 1
    outer loop
      vertex -24 -43.4 5.31479e-015
      vertex -24 -41.4 5.06987e-015
      vertex -27.6 -41.4 5.06987e-015
    endloop
  endfacet
  facet normal -0 1.22461e-016 1
    outer loop
      vertex -27.6 -45.4 5.55971e-015
      vertex -39.2 -49 6.00057e-015
      vertex -24 -45.4 5.55971e-015
    endloop
  endfacet
  facet normal 0 1.22461e-016 1
    outer loop
      vertex -13 -5.39999 6.61287e-016
      vertex -24 -5.39999 6.61287e-016
      vertex -13 -7.39999 9.06208e-016
    endloop
  endfacet
  facet normal 0 1.22461e-016 1
    outer loop
      vertex -13 -7.39999 9.06208e-016
      vertex -24 -5.39999 6.61287e-016
      vertex -24 -7.39999 9.06208e-016
    endloop
  endfacet
  facet normal 0 1.22461e-016 1
    outer loop
      vertex -24 -5.39999 6.61287e-016
      vertex -24 -3.39999 4.16365e-016
      vertex -34.854 -10.5774 1.29532e-015
    endloop
  endfacet
  facet normal 0 1.22461e-016 1
    outer loop
      vertex -24 -3.39999 4.16365e-016
      vertex -22.5 -0.799988 9.7967e-017
      vertex -39.2 -0.799988 9.7967e-017
    endloop
  endfacet
  facet normal -0 1.22461e-016 1
    outer loop
      vertex -15.5 -0.799988 9.7967e-017
      vertex -13 -3.39999 4.16365e-016
      vertex -9.40001 -0.799988 9.7967e-017
    endloop
  endfacet
  facet normal 0 1.22461e-016 1
    outer loop
      vertex -13 -31.4 3.84526e-015
      vertex -9.40001 -49 6.00057e-015
      vertex -13 -28.4 3.47788e-015
    endloop
  endfacet
  facet normal 0 1.22461e-016 1
    outer loop
      vertex -9.40001 -0.799988 9.7967e-017
      vertex -13 -5.39999 6.61287e-016
      vertex -13 -7.39999 9.06208e-016
    endloop
  endfacet
  facet normal 0 1.22461e-016 1
    outer loop
      vertex -13 -13.4 1.64097e-015
      vertex -24 -13.4 1.64097e-015
      vertex -13 -15.4 1.88589e-015
    endloop
  endfacet
  facet normal 0 1.22461e-016 1
    outer loop
      vertex -15.5 -0.799988 9.7967e-017
      vertex -24 -3.39999 4.16365e-016
      vertex -13 -3.39999 4.16365e-016
    endloop
  endfacet
  facet normal -0 1.22461e-016 1
    outer loop
      vertex -22.5 -0.799988 9.7967e-017
      vertex -24 -3.39999 4.16365e-016
      vertex -15.5 -0.799988 9.7967e-017
    endloop
  endfacet
  facet normal 0 1.22461e-016 1
    outer loop
      vertex -9.40001 -0.799988 9.7967e-017
      vertex -13 -7.39999 9.06208e-016
      vertex -13 -9.39999 1.15113e-015
    endloop
  endfacet
  facet normal 0 1.22461e-016 1
    outer loop
      vertex -24 -13.4 1.64097e-015
      vertex -24 -15.4 1.88589e-015
      vertex -13 -15.4 1.88589e-015
    endloop
  endfacet
  facet normal 0 1.22461e-016 1
    outer loop
      vertex -9.40001 -0.799988 9.7967e-017
      vertex -13 -9.39999 1.15113e-015
      vertex -13 -11.4 1.39605e-015
    endloop
  endfacet
  facet normal 0 1.22461e-016 1
    outer loop
      vertex -20 -21.4 2.62066e-015
      vertex -24 -17.4 2.13081e-015
      vertex -27.6 -21.4 2.62066e-015
    endloop
  endfacet
  facet normal -0 1.22461e-016 1
    outer loop
      vertex -24 -11.4 1.39605e-015
      vertex -13 -11.4 1.39605e-015
      vertex -24 -9.39999 1.15113e-015
    endloop
  endfacet
  facet normal -0 1.22461e-016 1
    outer loop
      vertex -24 -9.39999 1.15113e-015
      vertex -13 -11.4 1.39605e-015
      vertex -13 -9.39999 1.15113e-015
    endloop
  endfacet
  facet normal 0 1.22461e-016 1
    outer loop
      vertex -24 -11.4 1.39605e-015
      vertex -34.25 -11.9 1.45728e-015
      vertex -24 -13.4 1.64097e-015
    endloop
  endfacet
  facet normal 0 1.22461e-016 1
    outer loop
      vertex -9.40001 -0.799988 9.7967e-017
      vertex -13 -11.4 1.39605e-015
      vertex -13 -13.4 1.64097e-015
    endloop
  endfacet
  facet normal 0 1.22461e-016 1
    outer loop
      vertex -9.40001 -0.799988 9.7967e-017
      vertex -13 -13.4 1.64097e-015
      vertex -13 -15.4 1.88589e-015
    endloop
  endfacet
  facet normal 0 1.22461e-016 1
    outer loop
      vertex -24 -17.4 2.13081e-015
      vertex -27.6 -19.4 2.37574e-015
      vertex -27.6 -21.4 2.62066e-015
    endloop
  endfacet
  facet normal 0 1.22461e-016 1
    outer loop
      vertex -24 -17.4 2.13081e-015
      vertex -24 -15.4 1.88589e-015
      vertex -27.6 -19.4 2.37574e-015
    endloop
  endfacet
  facet normal 0 1.22461e-016 1
    outer loop
      vertex -24 -15.4 1.88589e-015
      vertex -24 -13.4 1.64097e-015
      vertex -27.6 -19.4 2.37574e-015
    endloop
  endfacet
  facet normal 0 1.22461e-016 1
    outer loop
      vertex -9.40001 -0.799988 9.7967e-017
      vertex -13 -15.4 1.88589e-015
      vertex -13 -17.4 2.13081e-015
    endloop
  endfacet
  facet normal 0 1.22461e-016 1
    outer loop
      vertex -27.6 -27.4 3.35542e-015
      vertex -20 -28.4 3.47788e-015
      vertex -27.6 -25.4 3.1105e-015
    endloop
  endfacet
  facet normal 0 1.22461e-016 1
    outer loop
      vertex -9.40001 -0.799988 9.7967e-017
      vertex -13 -21.4 2.62066e-015
      vertex -9.40001 -49 6.00057e-015
    endloop
  endfacet
  facet normal 0 1.22461e-016 1
    outer loop
      vertex -27.6 -27.4 3.35542e-015
      vertex -27.6 -29.4 3.60034e-015
      vertex -24 -31.4 3.84526e-015
    endloop
  endfacet
  facet normal 0 1.22461e-016 1
    outer loop
      vertex -24 -33.4 4.09018e-015
      vertex -24 -35.4 4.33511e-015
      vertex -13 -35.4 4.33511e-015
    endloop
  endfacet
  facet normal 0 1.22461e-016 1
    outer loop
      vertex -24 -33.4 4.09018e-015
      vertex -27.6 -31.4 3.84526e-015
      vertex -27.6 -33.4 4.09018e-015
    endloop
  endfacet
  facet normal 0 1.22461e-016 1
    outer loop
      vertex -27.6 -27.4 3.35542e-015
      vertex -24 -31.4 3.84526e-015
      vertex -20 -28.4 3.47788e-015
    endloop
  endfacet
  facet normal 0 1.22461e-016 1
    outer loop
      vertex -24 -31.4 3.84526e-015
      vertex -27.6 -31.4 3.84526e-015
      vertex -24 -33.4 4.09018e-015
    endloop
  endfacet
  facet normal 0 1.22461e-016 1
    outer loop
      vertex -9.40001 -49 6.00057e-015
      vertex -13 -31.4 3.84526e-015
      vertex -13 -33.4 4.09018e-015
    endloop
  endfacet
  facet normal 0 1.22461e-016 1
    outer loop
      vertex -24 -37.4 4.58003e-015
      vertex -24 -39.4 4.82495e-015
      vertex -13 -39.4 4.82495e-015
    endloop
  endfacet
  facet normal 0 1.22461e-016 1
    outer loop
      vertex -27.6 -37.4 4.58003e-015
      vertex -27.6 -39.4 4.82495e-015
      vertex -24 -39.4 4.82495e-015
    endloop
  endfacet
  facet normal -0 1.22461e-016 1
    outer loop
      vertex -27.6 -35.4 4.33511e-015
      vertex -24 -35.4 4.33511e-015
      vertex -27.6 -33.4 4.09018e-015
    endloop
  endfacet
  facet normal 0 1.22461e-016 1
    outer loop
      vertex -13 -35.4 4.33511e-015
      vertex -13 -33.4 4.09018e-015
      vertex -24 -33.4 4.09018e-015
    endloop
  endfacet
  facet normal 0 1.22461e-016 1
    outer loop
      vertex -13 -33.4 4.09018e-015
      vertex -13 -35.4 4.33511e-015
      vertex -9.40001 -49 6.00057e-015
    endloop
  endfacet
  facet normal 0 1.22461e-016 1
    outer loop
      vertex -13 -35.4 4.33511e-015
      vertex -13 -37.4 4.58003e-015
      vertex -9.40001 -49 6.00057e-015
    endloop
  endfacet
  facet normal 0 1.22461e-016 1
    outer loop
      vertex -27.6 -43.4 5.31479e-015
      vertex -27.6 -45.4 5.55971e-015
      vertex -24 -45.4 5.55971e-015
    endloop
  endfacet
  facet normal 0 1.22461e-016 1
    outer loop
      vertex -27.6 -41.4 5.06987e-015
      vertex -27.6 -43.4 5.31479e-015
      vertex -24 -43.4 5.31479e-015
    endloop
  endfacet
  facet normal -0 1.22461e-016 1
    outer loop
      vertex -24 -37.4 4.58003e-015
      vertex -13 -39.4 4.82495e-015
      vertex -13 -37.4 4.58003e-015
    endloop
  endfacet
  facet normal 0 1.22461e-016 1
    outer loop
      vertex -24 -39.4 4.82495e-015
      vertex -27.6 -39.4 4.82495e-015
      vertex -24 -41.4 5.06987e-015
    endloop
  endfacet
  facet normal 0 1.22461e-016 1
    outer loop
      vertex -13 -37.4 4.58003e-015
      vertex -13 -39.4 4.82495e-015
      vertex -9.40001 -49 6.00057e-015
    endloop
  endfacet
  facet normal 0 1.22461e-016 1
    outer loop
      vertex -13 -39.4 4.82495e-015
      vertex -13 -41.4 5.06987e-015
      vertex -9.40001 -49 6.00057e-015
    endloop
  endfacet
  facet normal -0 1.22461e-016 1
    outer loop
      vertex -24 -43.4 5.31479e-015
      vertex -13 -43.4 5.31479e-015
      vertex -24 -41.4 5.06987e-015
    endloop
  endfacet
  facet normal 0 1.22461e-016 1
    outer loop
      vertex -24 -45.4 5.55971e-015
      vertex -39.2 -49 6.00057e-015
      vertex -9.40001 -49 6.00057e-015
    endloop
  endfacet
  facet normal -0 1.22461e-016 1
    outer loop
      vertex -24 -41.4 5.06987e-015
      vertex -13 -43.4 5.31479e-015
      vertex -13 -41.4 5.06987e-015
    endloop
  endfacet
  facet normal 0 1.22461e-016 1
    outer loop
      vertex -24 -43.4 5.31479e-015
      vertex -27.6 -43.4 5.31479e-015
      vertex -24 -45.4 5.55971e-015
    endloop
  endfacet
  facet normal 0 1.22461e-016 1
    outer loop
      vertex -13 -41.4 5.06987e-015
      vertex -13 -43.4 5.31479e-015
      vertex -9.40001 -49 6.00057e-015
    endloop
  endfacet
  facet normal 0 1.22461e-016 1
    outer loop
      vertex -13 -43.4 5.31479e-015
      vertex -13 -45.4 5.55971e-015
      vertex -9.40001 -49 6.00057e-015
    endloop
  endfacet
  facet normal 0 1.22461e-016 1
    outer loop
      vertex -13 -45.4 5.55971e-015
      vertex -24 -45.4 5.55971e-015
      vertex -9.40001 -49 6.00057e-015
    endloop
  endfacet
  facet normal 0 1.22461e-016 1
    outer loop
      vertex -27.6 -25.4 3.1105e-015
      vertex -20 -28.4 3.47788e-015
      vertex -20 -21.4 2.62066e-015
    endloop
  endfacet
  facet normal 0 1.22461e-016 1
    outer loop
      vertex -20 -28.4 3.47788e-015
      vertex -24 -31.4 3.84526e-015
      vertex -13 -31.4 3.84526e-015
    endloop
  endfacet
  facet normal -0 1.22461e-016 1
    outer loop
      vertex -24 -17.4 2.13081e-015
      vertex -20 -21.4 2.62066e-015
      vertex -13 -17.4 2.13081e-015
    endloop
  endfacet
  facet normal -0 1.22461e-016 1
    outer loop
      vertex -20 -28.4 3.47788e-015
      vertex -13 -31.4 3.84526e-015
      vertex -13 -28.4 3.47788e-015
    endloop
  endfacet
  facet normal -0 1.22461e-016 1
    outer loop
      vertex -20 -21.4 2.62066e-015
      vertex -13 -21.4 2.62066e-015
      vertex -13 -17.4 2.13081e-015
    endloop
  endfacet
  facet normal 0 1.22461e-016 1
    outer loop
      vertex -13 -21.4 2.62066e-015
      vertex -9.40001 -0.799988 9.7967e-017
      vertex -13 -17.4 2.13081e-015
    endloop
  endfacet
  facet normal 0 1.22461e-016 1
    outer loop
      vertex -13 -28.4 3.47788e-015
      vertex -9.40001 -49 6.00057e-015
      vertex -13 -21.4 2.62066e-015
    endloop
  endfacet
  facet normal 0 -1.07833e-016 -1
    outer loop
      vertex -34.854 -13.2225 -2
      vertex -27.6 -19.4 -2
      vertex -36.6 -19.4 -2
    endloop
  endfacet
  facet normal 3.92431e-016 -5.64155e-017 -1
    outer loop
      vertex -37.6791 -11.407 -2
      vertex -37.75 -11.9 -2
      vertex -40 -2.44921e-016 -2
    endloop
  endfacet
  facet normal 3.05177e-017 -1.24844e-016 -1
    outer loop
      vertex -37.75 -11.9 -2
      vertex -40 -49.8 -2
      vertex -40 -2.44921e-016 -2
    endloop
  endfacet
  facet normal -6.05697e-016 -8.70744e-017 -1
    outer loop
      vertex -37.6791 -12.393 -2
      vertex -40 -49.8 -2
      vertex -37.75 -11.9 -2
    endloop
  endfacet
  facet normal 1.20028e-015 5.80935e-017 -1
    outer loop
      vertex -37.6791 -12.393 -2
      vertex -37.4722 -12.8461 -2
      vertex -36.6 -19.4 -2
    endloop
  endfacet
  facet normal 8.217e-017 -1.29752e-016 -1
    outer loop
      vertex -36.6 -25.4 -2
      vertex -40 -49.8 -2
      vertex -37.6791 -12.393 -2
    endloop
  endfacet
  facet normal -1.3858e-016 -1.20082e-016 -1
    outer loop
      vertex -37.4722 -12.8461 -2
      vertex -37.146 -13.2225 -2
      vertex -36.6 -19.4 -2
    endloop
  endfacet
  facet normal -7.34776e-017 -1.14328e-016 -1
    outer loop
      vertex -37.146 -13.2225 -2
      vertex -36.727 -13.4919 -2
      vertex -36.6 -19.4 -2
    endloop
  endfacet
  facet normal -3.33163e-017 -1.13465e-016 -1
    outer loop
      vertex -36.727 -13.4919 -2
      vertex -36.2491 -13.6322 -2
      vertex -36.6 -19.4 -2
    endloop
  endfacet
  facet normal 3.54435e-017 -1.20709e-016 -1
    outer loop
      vertex -36.6 -19.4 -2
      vertex -35.751 -13.6322 -2
      vertex -35.273 -13.4919 -2
    endloop
  endfacet
  facet normal 8.46873e-017 -1.31769e-016 -1
    outer loop
      vertex -35.273 -13.4919 -2
      vertex -34.854 -13.2225 -2
      vertex -36.6 -19.4 -2
    endloop
  endfacet
  facet normal 5.2839e-017 -4.57859e-017 -1
    outer loop
      vertex -34.5278 -12.8461 -2
      vertex -27.6 -19.4 -2
      vertex -34.854 -13.2225 -2
    endloop
  endfacet
  facet normal -2.56597e-016 -3.72877e-016 -1
    outer loop
      vertex -34.3209 -12.393 -2
      vertex -27.6 -19.4 -2
      vertex -34.5278 -12.8461 -2
    endloop
  endfacet
  facet normal 1.00913e-017 -1.17077e-016 -1
    outer loop
      vertex -24 -13.4 -2
      vertex -27.6 -19.4 -2
      vertex -34.3209 -12.393 -2
    endloop
  endfacet
  facet normal 2.06407e-016 -9.42641e-017 -1
    outer loop
      vertex -37.6791 -11.407 -2
      vertex -40 -2.44921e-016 -2
      vertex -37.4722 -10.9539 -2
    endloop
  endfacet
  facet normal 0 0 -1
    outer loop
      vertex -34.3209 -11.407 -2
      vertex -24 -11.4 -2
      vertex -34.25 -11.9 -2
    endloop
  endfacet
  facet normal 3.22656e-019 -1.29096e-016 -1
    outer loop
      vertex -35.273 -10.3081 -2
      vertex -40 -2.44921e-016 -2
      vertex -24 -3.39999 -2
    endloop
  endfacet
  facet normal -1.97593e-017 -9.02392e-018 -1
    outer loop
      vertex -24 -9.39999 -2
      vertex -34.3209 -11.407 -2
      vertex -34.5278 -10.9539 -2
    endloop
  endfacet
  facet normal -4.03307e-017 -6.27562e-017 -1
    outer loop
      vertex -35.273 -10.3081 -2
      vertex -24 -3.39999 -2
      vertex -34.854 -10.5774 -2
    endloop
  endfacet
  facet normal -4.38546e-017 -1.49355e-016 -1
    outer loop
      vertex -35.751 -10.1678 -2
      vertex -40 -2.44921e-016 -2
      vertex -35.273 -10.3081 -2
    endloop
  endfacet
  facet normal 0 -1.31028e-016 -1
    outer loop
      vertex -36.2491 -10.1678 -2
      vertex -40 -2.44921e-016 -2
      vertex -35.751 -10.1678 -2
    endloop
  endfacet
  facet normal 3.47133e-017 -1.18222e-016 -1
    outer loop
      vertex -36.727 -10.3081 -2
      vertex -40 -2.44921e-016 -2
      vertex -36.2491 -10.1678 -2
    endloop
  endfacet
  facet normal 6.89834e-017 -1.07341e-016 -1
    outer loop
      vertex -37.146 -10.5774 -2
      vertex -40 -2.44921e-016 -2
      vertex -36.727 -10.3081 -2
    endloop
  endfacet
  facet normal -4.08241e-016 -2.36105e-016 -1
    outer loop
      vertex -37.4722 -10.9539 -2
      vertex -40 -2.44921e-016 -2
      vertex -37.146 -10.5774 -2
    endloop
  endfacet
  facet normal 1.02165e-016 -1.11022e-016 -1
    outer loop
      vertex -37.6791 -12.393 -2
      vertex -36.6 -19.4 -2
      vertex -36.6 -21.4 -2
    endloop
  endfacet
  facet normal 0 -1.15492e-016 -1
    outer loop
      vertex -36.6 -19.4 -2
      vertex -36.2491 -13.6322 -2
      vertex -35.751 -13.6322 -2
    endloop
  endfacet
  facet normal 0 -1.11022e-016 -1
    outer loop
      vertex -36.6 -21.4 -2
      vertex -27.6 -23.4 -2
      vertex -36.6 -23.4 -2
    endloop
  endfacet
  facet normal 0 -1.30615e-016 -1
    outer loop
      vertex -24 -3.39999 -2
      vertex -8.60001 -2.44921e-016 -2
      vertex -13 -3.39999 -2
    endloop
  endfacet
  facet normal 2.12164e-017 -3.05071e-018 -1
    outer loop
      vertex -24 -13.4 -2
      vertex -34.3209 -12.393 -2
      vertex -34.25 -11.9 -2
    endloop
  endfacet
  facet normal -1.46082e-017 -1.11022e-016 -1
    outer loop
      vertex -27.6 -25.4 -2
      vertex -20 -28.4 -2
      vertex -27.6 -27.4 -2
    endloop
  endfacet
  facet normal 1.02165e-016 -1.11022e-016 -1
    outer loop
      vertex -36.6 -21.4 -2
      vertex -36.6 -23.4 -2
      vertex -37.6791 -12.393 -2
    endloop
  endfacet
  facet normal -1.03026e-015 -2.22045e-016 -1
    outer loop
      vertex -36.6 -23.4 -2
      vertex -36.6 -25.4 -2
      vertex -37.6791 -12.393 -2
    endloop
  endfacet
  facet normal 0 -1.11022e-016 -1
    outer loop
      vertex -36.6 -25.4 -2
      vertex -27.6 -27.4 -2
      vertex -36.6 -27.4 -2
    endloop
  endfacet
  facet normal 1.21115e-016 -2.22045e-016 -1
    outer loop
      vertex -13 -5.39999 -2
      vertex -8.60001 -2.44921e-016 -2
      vertex -13 -7.39999 -2
    endloop
  endfacet
  facet normal -0 -1.11022e-016 -1
    outer loop
      vertex -27.6 -21.4 -2
      vertex -27.6 -23.4 -2
      vertex -36.6 -21.4 -2
    endloop
  endfacet
  facet normal 2.92164e-017 -2.22045e-016 -1
    outer loop
      vertex -27.6 -25.4 -2
      vertex -27.6 -23.4 -2
      vertex -20 -21.4 -2
    endloop
  endfacet
  facet normal -5.22461e-017 -1.11022e-016 -1
    outer loop
      vertex -36.6 -25.4 -2
      vertex -36.6 -27.4 -2
      vertex -40 -49.8 -2
    endloop
  endfacet
  facet normal -5.22461e-017 -1.11022e-016 -1
    outer loop
      vertex -36.6 -27.4 -2
      vertex -36.6 -29.4 -2
      vertex -40 -49.8 -2
    endloop
  endfacet
  facet normal 0 -1.11022e-016 -1
    outer loop
      vertex -36.6 -29.4 -2
      vertex -27.6 -31.4 -2
      vertex -36.6 -31.4 -2
    endloop
  endfacet
  facet normal 0 -1.11022e-016 -1
    outer loop
      vertex -36.6 -25.4 -2
      vertex -27.6 -25.4 -2
      vertex -27.6 -27.4 -2
    endloop
  endfacet
  facet normal -5.22461e-017 -1.11022e-016 -1
    outer loop
      vertex -36.6 -29.4 -2
      vertex -36.6 -31.4 -2
      vertex -40 -49.8 -2
    endloop
  endfacet
  facet normal -5.22461e-017 -1.11022e-016 -1
    outer loop
      vertex -36.6 -31.4 -2
      vertex -36.6 -33.4 -2
      vertex -40 -49.8 -2
    endloop
  endfacet
  facet normal 0 -1.11022e-016 -1
    outer loop
      vertex -36.6 -33.4 -2
      vertex -27.6 -35.4 -2
      vertex -36.6 -35.4 -2
    endloop
  endfacet
  facet normal 0 -1.11022e-016 -1
    outer loop
      vertex -36.6 -29.4 -2
      vertex -27.6 -29.4 -2
      vertex -27.6 -31.4 -2
    endloop
  endfacet
  facet normal -0 -1.4803e-016 -1
    outer loop
      vertex -13 -28.4 -2
      vertex -13 -31.4 -2
      vertex -20 -28.4 -2
    endloop
  endfacet
  facet normal -5.22461e-017 -1.11022e-016 -1
    outer loop
      vertex -36.6 -33.4 -2
      vertex -36.6 -35.4 -2
      vertex -40 -49.8 -2
    endloop
  endfacet
  facet normal -5.22461e-017 -1.11022e-016 -1
    outer loop
      vertex -36.6 -35.4 -2
      vertex -36.6 -37.4 -2
      vertex -40 -49.8 -2
    endloop
  endfacet
  facet normal 0 -1.11022e-016 -1
    outer loop
      vertex -36.6 -37.4 -2
      vertex -27.6 -39.4 -2
      vertex -36.6 -39.4 -2
    endloop
  endfacet
  facet normal 0 -1.11022e-016 -1
    outer loop
      vertex -36.6 -33.4 -2
      vertex -27.6 -33.4 -2
      vertex -27.6 -35.4 -2
    endloop
  endfacet
  facet normal 0 -1.11022e-016 -1
    outer loop
      vertex -27.6 -37.4 -2
      vertex -24 -39.4 -2
      vertex -27.6 -39.4 -2
    endloop
  endfacet
  facet normal 0 -1.11022e-016 -1
    outer loop
      vertex -27.6 -35.4 -2
      vertex -24 -37.4 -2
      vertex -27.6 -37.4 -2
    endloop
  endfacet
  facet normal -5.22461e-017 -1.11022e-016 -1
    outer loop
      vertex -36.6 -37.4 -2
      vertex -36.6 -39.4 -2
      vertex -40 -49.8 -2
    endloop
  endfacet
  facet normal -5.22461e-017 -1.11022e-016 -1
    outer loop
      vertex -36.6 -39.4 -2
      vertex -36.6 -41.4 -2
      vertex -40 -49.8 -2
    endloop
  endfacet
  facet normal 0 -1.11022e-016 -1
    outer loop
      vertex -36.6 -41.4 -2
      vertex -27.6 -43.4 -2
      vertex -36.6 -43.4 -2
    endloop
  endfacet
  facet normal 0 -1.11022e-016 -1
    outer loop
      vertex -36.6 -37.4 -2
      vertex -27.6 -37.4 -2
      vertex -27.6 -39.4 -2
    endloop
  endfacet
  facet normal 4.0372e-017 -1.11022e-016 -1
    outer loop
      vertex -13 -33.4 -2
      vertex -8.60001 -49.8 -2
      vertex -13 -35.4 -2
    endloop
  endfacet
  facet normal 0 -1.11022e-016 -1
    outer loop
      vertex -27.6 -31.4 -2
      vertex -24 -31.4 -2
      vertex -24 -33.4 -2
    endloop
  endfacet
  facet normal -5.22461e-017 -1.11022e-016 -1
    outer loop
      vertex -36.6 -41.4 -2
      vertex -36.6 -43.4 -2
      vertex -40 -49.8 -2
    endloop
  endfacet
  facet normal 1.56737e-016 -2.22045e-016 -1
    outer loop
      vertex -36.6 -43.4 -2
      vertex -36.6 -45.4 -2
      vertex -40 -49.8 -2
    endloop
  endfacet
  facet normal 0 -1.0093e-016 -1
    outer loop
      vertex -36.6 -45.4 -2
      vertex -27.6 -45.4 -2
      vertex -40 -49.8 -2
    endloop
  endfacet
  facet normal 0 -1.0093e-016 -1
    outer loop
      vertex -40 -49.8 -2
      vertex -24 -45.4 -2
      vertex -8.60001 -49.8 -2
    endloop
  endfacet
  facet normal 0 -1.11022e-016 -1
    outer loop
      vertex -36.6 -41.4 -2
      vertex -27.6 -41.4 -2
      vertex -27.6 -43.4 -2
    endloop
  endfacet
  facet normal 1.21416e-016 -4.84634e-016 -1
    outer loop
      vertex -34.854 -10.5774 -2
      vertex -24 -7.39999 -2
      vertex -34.5278 -10.9539 -2
    endloop
  endfacet
  facet normal 0 -1.30615e-016 -1
    outer loop
      vertex -24 -3.39999 -2
      vertex -40 -2.44921e-016 -2
      vertex -8.60001 -2.44921e-016 -2
    endloop
  endfacet
  facet normal -8.41383e-018 -1.11022e-016 -1
    outer loop
      vertex -24 -3.39999 -2
      vertex -24 -5.39999 -2
      vertex -34.854 -10.5774 -2
    endloop
  endfacet
  facet normal 0 -2.22045e-016 -1
    outer loop
      vertex -24 -5.39999 -2
      vertex -13 -7.39999 -2
      vertex -24 -7.39999 -2
    endloop
  endfacet
  facet normal 0 -1.11022e-016 -1
    outer loop
      vertex -24 -13.4 -2
      vertex -13 -15.4 -2
      vertex -24 -15.4 -2
    endloop
  endfacet
  facet normal -1.65705e-017 -1.25936e-016 -1
    outer loop
      vertex -27.6 -27.4 -2
      vertex -20 -28.4 -2
      vertex -24 -31.4 -2
    endloop
  endfacet
  facet normal -1.51396e-017 -1.11022e-016 -1
    outer loop
      vertex -13 -3.39999 -2
      vertex -8.60001 -2.44921e-016 -2
      vertex -13 -5.39999 -2
    endloop
  endfacet
  facet normal 4.45445e-017 -2.22045e-016 -1
    outer loop
      vertex -24 -5.39999 -2
      vertex -24 -7.39999 -2
      vertex -34.854 -10.5774 -2
    endloop
  endfacet
  facet normal -4.70462e-018 -1.11022e-016 -1
    outer loop
      vertex -24 -7.39999 -2
      vertex -24 -9.39999 -2
      vertex -34.5278 -10.9539 -2
    endloop
  endfacet
  facet normal 0 -1.11022e-016 -1
    outer loop
      vertex -24 -9.39999 -2
      vertex -13 -11.4 -2
      vertex -24 -11.4 -2
    endloop
  endfacet
  facet normal 0 -1.11022e-016 -1
    outer loop
      vertex -27.6 -27.4 -2
      vertex -24 -31.4 -2
      vertex -27.6 -29.4 -2
    endloop
  endfacet
  facet normal -6.56043e-017 -1.11022e-016 -1
    outer loop
      vertex -13 -9.39999 -2
      vertex -8.60001 -2.44921e-016 -2
      vertex -13 -11.4 -2
    endloop
  endfacet
  facet normal -0 -2.22045e-016 -1
    outer loop
      vertex -13 -5.39999 -2
      vertex -13 -7.39999 -2
      vertex -24 -5.39999 -2
    endloop
  endfacet
  facet normal -6.56043e-017 -1.11022e-016 -1
    outer loop
      vertex -13 -7.39999 -2
      vertex -8.60001 -2.44921e-016 -2
      vertex -13 -9.39999 -2
    endloop
  endfacet
  facet normal 7.50117e-020 -1.11022e-016 -1
    outer loop
      vertex -24 -9.39999 -2
      vertex -24 -11.4 -2
      vertex -34.3209 -11.407 -2
    endloop
  endfacet
  facet normal 5.41572e-018 -1.11022e-016 -1
    outer loop
      vertex -24 -11.4 -2
      vertex -24 -13.4 -2
      vertex -34.25 -11.9 -2
    endloop
  endfacet
  facet normal 0 -1.11022e-016 -1
    outer loop
      vertex -24 -17.4 -2
      vertex -27.6 -21.4 -2
      vertex -27.6 -19.4 -2
    endloop
  endfacet
  facet normal 0 -1.11022e-016 -1
    outer loop
      vertex -27.6 -29.4 -2
      vertex -24 -31.4 -2
      vertex -27.6 -31.4 -2
    endloop
  endfacet
  facet normal -6.56043e-017 -1.11022e-016 -1
    outer loop
      vertex -13 -13.4 -2
      vertex -8.60001 -2.44921e-016 -2
      vertex -13 -15.4 -2
    endloop
  endfacet
  facet normal -0 -1.11022e-016 -1
    outer loop
      vertex -13 -9.39999 -2
      vertex -13 -11.4 -2
      vertex -24 -9.39999 -2
    endloop
  endfacet
  facet normal -6.56043e-017 -1.11022e-016 -1
    outer loop
      vertex -13 -11.4 -2
      vertex -8.60001 -2.44921e-016 -2
      vertex -13 -13.4 -2
    endloop
  endfacet
  facet normal 0 -1.11022e-016 -1
    outer loop
      vertex -24 -13.4 -2
      vertex -24 -15.4 -2
      vertex -27.6 -19.4 -2
    endloop
  endfacet
  facet normal -0 -1.11022e-016 -1
    outer loop
      vertex -20 -21.4 -2
      vertex -27.6 -23.4 -2
      vertex -27.6 -21.4 -2
    endloop
  endfacet
  facet normal 0 -1.11022e-016 -1
    outer loop
      vertex -24 -17.4 -2
      vertex -27.6 -19.4 -2
      vertex -24 -15.4 -2
    endloop
  endfacet
  facet normal 0 -1.11022e-016 -1
    outer loop
      vertex -27.6 -31.4 -2
      vertex -24 -33.4 -2
      vertex -27.6 -33.4 -2
    endloop
  endfacet
  facet normal -6.56043e-017 -1.11022e-016 -1
    outer loop
      vertex -13 -17.4 -2
      vertex -8.60001 -2.44921e-016 -2
      vertex -13 -21.4 -2
    endloop
  endfacet
  facet normal -0 -1.11022e-016 -1
    outer loop
      vertex -13 -13.4 -2
      vertex -13 -15.4 -2
      vertex -24 -13.4 -2
    endloop
  endfacet
  facet normal -6.56043e-017 -1.11022e-016 -1
    outer loop
      vertex -13 -15.4 -2
      vertex -8.60001 -2.44921e-016 -2
      vertex -13 -17.4 -2
    endloop
  endfacet
  facet normal 0 -1.11022e-016 -1
    outer loop
      vertex -27.6 -33.4 -2
      vertex -24 -35.4 -2
      vertex -27.6 -35.4 -2
    endloop
  endfacet
  facet normal 0 -1.11022e-016 -1
    outer loop
      vertex -27.6 -39.4 -2
      vertex -24 -41.4 -2
      vertex -27.6 -41.4 -2
    endloop
  endfacet
  facet normal 0 -1.11022e-016 -1
    outer loop
      vertex -24 -33.4 -2
      vertex -13 -35.4 -2
      vertex -24 -35.4 -2
    endloop
  endfacet
  facet normal 0 -1.11022e-016 -1
    outer loop
      vertex -24 -17.4 -2
      vertex -13 -17.4 -2
      vertex -20 -21.4 -2
    endloop
  endfacet
  facet normal 4.0372e-017 -1.11022e-016 -1
    outer loop
      vertex -13 -33.4 -2
      vertex -13 -31.4 -2
      vertex -8.60001 -49.8 -2
    endloop
  endfacet
  facet normal 1.62133e-018 -1.24844e-016 -1
    outer loop
      vertex -13 -21.4 -2
      vertex -8.60001 -2.44921e-016 -2
      vertex -8.60001 -49.8 -2
    endloop
  endfacet
  facet normal -0 -1.11022e-016 -1
    outer loop
      vertex -24 -33.4 -2
      vertex -24 -35.4 -2
      vertex -27.6 -33.4 -2
    endloop
  endfacet
  facet normal -0 -1.11022e-016 -1
    outer loop
      vertex -24 -43.4 -2
      vertex -27.6 -43.4 -2
      vertex -27.6 -41.4 -2
    endloop
  endfacet
  facet normal -0 -1.11022e-016 -1
    outer loop
      vertex -24 -35.4 -2
      vertex -24 -37.4 -2
      vertex -27.6 -35.4 -2
    endloop
  endfacet
  facet normal -0 -2.22045e-016 -1
    outer loop
      vertex -24 -45.4 -2
      vertex -27.6 -45.4 -2
      vertex -27.6 -43.4 -2
    endloop
  endfacet
  facet normal 0 -1.0093e-016 -1
    outer loop
      vertex -40 -49.8 -2
      vertex -27.6 -45.4 -2
      vertex -24 -45.4 -2
    endloop
  endfacet
  facet normal -0 -1.11022e-016 -1
    outer loop
      vertex -13 -33.4 -2
      vertex -13 -35.4 -2
      vertex -24 -33.4 -2
    endloop
  endfacet
  facet normal 4.0372e-017 -1.11022e-016 -1
    outer loop
      vertex -13 -35.4 -2
      vertex -8.60001 -49.8 -2
      vertex -13 -37.4 -2
    endloop
  endfacet
  facet normal -0 -1.11022e-016 -1
    outer loop
      vertex -13 -39.4 -2
      vertex -24 -39.4 -2
      vertex -24 -37.4 -2
    endloop
  endfacet
  facet normal 0 -1.11022e-016 -1
    outer loop
      vertex -24 -39.4 -2
      vertex -27.6 -37.4 -2
      vertex -24 -37.4 -2
    endloop
  endfacet
  facet normal 0 -1.11022e-016 -1
    outer loop
      vertex -24 -43.4 -2
      vertex -24 -41.4 -2
      vertex -13 -43.4 -2
    endloop
  endfacet
  facet normal 0 -1.11022e-016 -1
    outer loop
      vertex -24 -41.4 -2
      vertex -27.6 -39.4 -2
      vertex -24 -39.4 -2
    endloop
  endfacet
  facet normal 4.0372e-017 -1.11022e-016 -1
    outer loop
      vertex -8.60001 -49.8 -2
      vertex -13 -41.4 -2
      vertex -13 -39.4 -2
    endloop
  endfacet
  facet normal 4.0372e-017 -1.11022e-016 -1
    outer loop
      vertex -8.60001 -49.8 -2
      vertex -13 -39.4 -2
      vertex -13 -37.4 -2
    endloop
  endfacet
  facet normal 0 -1.11022e-016 -1
    outer loop
      vertex -13 -39.4 -2
      vertex -24 -37.4 -2
      vertex -13 -37.4 -2
    endloop
  endfacet
  facet normal 0 -1.11022e-016 -1
    outer loop
      vertex -24 -43.4 -2
      vertex -27.6 -41.4 -2
      vertex -24 -41.4 -2
    endloop
  endfacet
  facet normal 0 -1.0093e-016 -1
    outer loop
      vertex -8.60001 -49.8 -2
      vertex -24 -45.4 -2
      vertex -13 -45.4 -2
    endloop
  endfacet
  facet normal 0 -2.22045e-016 -1
    outer loop
      vertex -24 -45.4 -2
      vertex -27.6 -43.4 -2
      vertex -24 -43.4 -2
    endloop
  endfacet
  facet normal -1.21115e-016 -2.22045e-016 -1
    outer loop
      vertex -8.60001 -49.8 -2
      vertex -13 -45.4 -2
      vertex -13 -43.4 -2
    endloop
  endfacet
  facet normal 4.0372e-017 -1.11022e-016 -1
    outer loop
      vertex -8.60001 -49.8 -2
      vertex -13 -43.4 -2
      vertex -13 -41.4 -2
    endloop
  endfacet
  facet normal 0 -1.11022e-016 -1
    outer loop
      vertex -13 -43.4 -2
      vertex -24 -41.4 -2
      vertex -13 -41.4 -2
    endloop
  endfacet
  facet normal 0 -1.11022e-016 -1
    outer loop
      vertex -24 -17.4 -2
      vertex -20 -21.4 -2
      vertex -27.6 -21.4 -2
    endloop
  endfacet
  facet normal -2.08688e-017 -1.26883e-016 -1
    outer loop
      vertex -20 -21.4 -2
      vertex -20 -28.4 -2
      vertex -27.6 -25.4 -2
    endloop
  endfacet
  facet normal 0 -1.4803e-016 -1
    outer loop
      vertex -20 -28.4 -2
      vertex -13 -31.4 -2
      vertex -24 -31.4 -2
    endloop
  endfacet
  facet normal -1.14387e-016 -1.4803e-016 -1
    outer loop
      vertex -13 -28.4 -2
      vertex -8.60001 -49.8 -2
      vertex -13 -31.4 -2
    endloop
  endfacet
  facet normal 0 -1.11022e-016 -1
    outer loop
      vertex -13 -17.4 -2
      vertex -13 -21.4 -2
      vertex -20 -21.4 -2
    endloop
  endfacet
  facet normal -1.15346e-017 -1.26883e-016 -1
    outer loop
      vertex -13 -21.4 -2
      vertex -8.60001 -49.8 -2
      vertex -13 -28.4 -2
    endloop
  endfacet
  facet normal 0 -1 1.42109e-015
    outer loop
      vertex -8.60001 -49.8 -2
      vertex -8.60001 -49.8 3
      vertex -40 -49.8 3
    endloop
  endfacet
  facet normal 0 -1 1.42109e-015
    outer loop
      vertex -40 -49.8 -2
      vertex -8.60001 -49.8 -2
      vertex -40 -49.8 3
    endloop
  endfacet
  facet normal -1 0 0
    outer loop
      vertex -40 -2.44921e-016 -2
      vertex -40 -49.8 3
      vertex -40 3.67382e-016 3
    endloop
  endfacet
  facet normal -1 0 0
    outer loop
      vertex -40 -2.44921e-016 -2
      vertex -40 -49.8 -2
      vertex -40 -49.8 3
    endloop
  endfacet
  facet normal 0 1 -1.22461e-016
    outer loop
      vertex -22.5 0 0
      vertex -40 -2.44921e-016 -2
      vertex -40 3.67382e-016 3
    endloop
  endfacet
  facet normal 0 1 -1.22461e-016
    outer loop
      vertex -22.5 3.67382e-016 3
      vertex -22.5 0 0
      vertex -40 3.67382e-016 3
    endloop
  endfacet
  facet normal 0 1 -1.22461e-016
    outer loop
      vertex -8.60001 -2.44921e-016 -2
      vertex -40 -2.44921e-016 -2
      vertex -22.5 0 0
    endloop
  endfacet
  facet normal 0 1 -1.22461e-016
    outer loop
      vertex -15.5 3.67382e-016 3
      vertex -8.60001 3.67382e-016 3
      vertex -15.5 0 0
    endloop
  endfacet
  facet normal 0 1 -1.22461e-016
    outer loop
      vertex -8.60001 3.67382e-016 3
      vertex -8.60001 -2.44921e-016 -2
      vertex -15.5 0 0
    endloop
  endfacet
  facet normal 0 1 -1.22461e-016
    outer loop
      vertex -8.60001 -2.44921e-016 -2
      vertex -22.5 0 0
      vertex -15.5 0 0
    endloop
  endfacet
  facet normal 1 -0 0
    outer loop
      vertex -8.60001 -49.8 -2
      vertex -8.60001 -2.44921e-016 -2
      vertex -8.60001 3.67382e-016 3
    endloop
  endfacet
  facet normal 1 0 0
    outer loop
      vertex -8.60001 -49.8 3
      vertex -8.60001 -49.8 -2
      vertex -8.60001 3.67382e-016 3
    endloop
  endfacet
  facet normal 1 -0 0
    outer loop
      vertex -24 -45.4 -2
      vertex -24 -43.4 -2
      vertex -24 -43.4 5.31479e-015
    endloop
  endfacet
  facet normal 1 0 0
    outer loop
      vertex -24 -45.4 5.55971e-015
      vertex -24 -45.4 -2
      vertex -24 -43.4 5.31479e-015
    endloop
  endfacet
  facet normal 0 1 0
    outer loop
      vertex -13 -45.4 -2
      vertex -24 -45.4 -2
      vertex -24 -45.4 5.55971e-015
    endloop
  endfacet
  facet normal 0 1 0
    outer loop
      vertex -13 -45.4 5.55971e-015
      vertex -13 -45.4 -2
      vertex -24 -45.4 5.55971e-015
    endloop
  endfacet
  facet normal -1 0 0
    outer loop
      vertex -13 -43.4 -2
      vertex -13 -45.4 5.55971e-015
      vertex -13 -43.4 5.31479e-015
    endloop
  endfacet
  facet normal -1 0 0
    outer loop
      vertex -13 -43.4 -2
      vertex -13 -45.4 -2
      vertex -13 -45.4 5.55971e-015
    endloop
  endfacet
  facet normal 0 -1 0
    outer loop
      vertex -13 -43.4 -2
      vertex -13 -43.4 5.31479e-015
      vertex -24 -43.4 5.31479e-015
    endloop
  endfacet
  facet normal 0 -1 0
    outer loop
      vertex -24 -43.4 -2
      vertex -13 -43.4 -2
      vertex -24 -43.4 5.31479e-015
    endloop
  endfacet
  facet normal 1 -0 0
    outer loop
      vertex -36.6 -45.4 -2
      vertex -36.6 -43.4 -2
      vertex -36.6 -43.4 5.31479e-015
    endloop
  endfacet
  facet normal 1 0 0
    outer loop
      vertex -36.6 -45.4 5.55971e-015
      vertex -36.6 -45.4 -2
      vertex -36.6 -43.4 5.31479e-015
    endloop
  endfacet
  facet normal 0 1 0
    outer loop
      vertex -27.6 -45.4 -2
      vertex -36.6 -45.4 -2
      vertex -36.6 -45.4 5.55971e-015
    endloop
  endfacet
  facet normal 0 1 0
    outer loop
      vertex -27.6 -45.4 5.55971e-015
      vertex -27.6 -45.4 -2
      vertex -36.6 -45.4 5.55971e-015
    endloop
  endfacet
  facet normal -1 0 0
    outer loop
      vertex -27.6 -43.4 -2
      vertex -27.6 -45.4 5.55971e-015
      vertex -27.6 -43.4 5.31479e-015
    endloop
  endfacet
  facet normal -1 0 0
    outer loop
      vertex -27.6 -43.4 -2
      vertex -27.6 -45.4 -2
      vertex -27.6 -45.4 5.55971e-015
    endloop
  endfacet
  facet normal 0 -1 0
    outer loop
      vertex -27.6 -43.4 -2
      vertex -27.6 -43.4 5.31479e-015
      vertex -36.6 -43.4 5.31479e-015
    endloop
  endfacet
  facet normal 0 -1 0
    outer loop
      vertex -36.6 -43.4 -2
      vertex -27.6 -43.4 -2
      vertex -36.6 -43.4 5.31479e-015
    endloop
  endfacet
  facet normal 1 -0 0
    outer loop
      vertex -24 -41.4 -2
      vertex -24 -39.4 -2
      vertex -24 -39.4 4.82495e-015
    endloop
  endfacet
  facet normal 1 0 0
    outer loop
      vertex -24 -41.4 5.06987e-015
      vertex -24 -41.4 -2
      vertex -24 -39.4 4.82495e-015
    endloop
  endfacet
  facet normal 0 1 0
    outer loop
      vertex -13 -41.4 -2
      vertex -24 -41.4 -2
      vertex -24 -41.4 5.06987e-015
    endloop
  endfacet
  facet normal 0 1 0
    outer loop
      vertex -13 -41.4 5.06987e-015
      vertex -13 -41.4 -2
      vertex -24 -41.4 5.06987e-015
    endloop
  endfacet
  facet normal -1 0 0
    outer loop
      vertex -13 -39.4 -2
      vertex -13 -41.4 5.06987e-015
      vertex -13 -39.4 4.82495e-015
    endloop
  endfacet
  facet normal -1 0 0
    outer loop
      vertex -13 -39.4 -2
      vertex -13 -41.4 -2
      vertex -13 -41.4 5.06987e-015
    endloop
  endfacet
  facet normal 0 -1 0
    outer loop
      vertex -13 -39.4 -2
      vertex -13 -39.4 4.82495e-015
      vertex -24 -39.4 4.82495e-015
    endloop
  endfacet
  facet normal 0 -1 0
    outer loop
      vertex -24 -39.4 -2
      vertex -13 -39.4 -2
      vertex -24 -39.4 4.82495e-015
    endloop
  endfacet
  facet normal 1 -0 0
    outer loop
      vertex -36.6 -41.4 -2
      vertex -36.6 -39.4 -2
      vertex -36.6 -39.4 4.82495e-015
    endloop
  endfacet
  facet normal 1 0 0
    outer loop
      vertex -36.6 -41.4 5.06987e-015
      vertex -36.6 -41.4 -2
      vertex -36.6 -39.4 4.82495e-015
    endloop
  endfacet
  facet normal 0 1 0
    outer loop
      vertex -27.6 -41.4 -2
      vertex -36.6 -41.4 -2
      vertex -36.6 -41.4 5.06987e-015
    endloop
  endfacet
  facet normal 0 1 0
    outer loop
      vertex -27.6 -41.4 5.06987e-015
      vertex -27.6 -41.4 -2
      vertex -36.6 -41.4 5.06987e-015
    endloop
  endfacet
  facet normal -1 0 0
    outer loop
      vertex -27.6 -39.4 -2
      vertex -27.6 -41.4 5.06987e-015
      vertex -27.6 -39.4 4.82495e-015
    endloop
  endfacet
  facet normal -1 0 0
    outer loop
      vertex -27.6 -39.4 -2
      vertex -27.6 -41.4 -2
      vertex -27.6 -41.4 5.06987e-015
    endloop
  endfacet
  facet normal 0 -1 0
    outer loop
      vertex -27.6 -39.4 -2
      vertex -27.6 -39.4 4.82495e-015
      vertex -36.6 -39.4 4.82495e-015
    endloop
  endfacet
  facet normal 0 -1 0
    outer loop
      vertex -36.6 -39.4 -2
      vertex -27.6 -39.4 -2
      vertex -36.6 -39.4 4.82495e-015
    endloop
  endfacet
  facet normal 1 -0 0
    outer loop
      vertex -24 -37.4 -2
      vertex -24 -35.4 -2
      vertex -24 -35.4 4.33511e-015
    endloop
  endfacet
  facet normal 1 0 0
    outer loop
      vertex -24 -37.4 4.58003e-015
      vertex -24 -37.4 -2
      vertex -24 -35.4 4.33511e-015
    endloop
  endfacet
  facet normal 0 1 0
    outer loop
      vertex -13 -37.4 -2
      vertex -24 -37.4 -2
      vertex -24 -37.4 4.58003e-015
    endloop
  endfacet
  facet normal 0 1 0
    outer loop
      vertex -13 -37.4 4.58003e-015
      vertex -13 -37.4 -2
      vertex -24 -37.4 4.58003e-015
    endloop
  endfacet
  facet normal -1 0 0
    outer loop
      vertex -13 -35.4 -2
      vertex -13 -37.4 4.58003e-015
      vertex -13 -35.4 4.33511e-015
    endloop
  endfacet
  facet normal -1 0 0
    outer loop
      vertex -13 -35.4 -2
      vertex -13 -37.4 -2
      vertex -13 -37.4 4.58003e-015
    endloop
  endfacet
  facet normal 0 -1 0
    outer loop
      vertex -13 -35.4 -2
      vertex -13 -35.4 4.33511e-015
      vertex -24 -35.4 4.33511e-015
    endloop
  endfacet
  facet normal 0 -1 0
    outer loop
      vertex -24 -35.4 -2
      vertex -13 -35.4 -2
      vertex -24 -35.4 4.33511e-015
    endloop
  endfacet
  facet normal 1 -0 0
    outer loop
      vertex -36.6 -37.4 -2
      vertex -36.6 -35.4 -2
      vertex -36.6 -35.4 4.33511e-015
    endloop
  endfacet
  facet normal 1 0 0
    outer loop
      vertex -36.6 -37.4 4.58003e-015
      vertex -36.6 -37.4 -2
      vertex -36.6 -35.4 4.33511e-015
    endloop
  endfacet
  facet normal 0 1 0
    outer loop
      vertex -27.6 -37.4 -2
      vertex -36.6 -37.4 -2
      vertex -36.6 -37.4 4.58003e-015
    endloop
  endfacet
  facet normal 0 1 0
    outer loop
      vertex -27.6 -37.4 4.58003e-015
      vertex -27.6 -37.4 -2
      vertex -36.6 -37.4 4.58003e-015
    endloop
  endfacet
  facet normal -1 0 0
    outer loop
      vertex -27.6 -35.4 -2
      vertex -27.6 -37.4 4.58003e-015
      vertex -27.6 -35.4 4.33511e-015
    endloop
  endfacet
  facet normal -1 0 0
    outer loop
      vertex -27.6 -35.4 -2
      vertex -27.6 -37.4 -2
      vertex -27.6 -37.4 4.58003e-015
    endloop
  endfacet
  facet normal 0 -1 0
    outer loop
      vertex -27.6 -35.4 -2
      vertex -27.6 -35.4 4.33511e-015
      vertex -36.6 -35.4 4.33511e-015
    endloop
  endfacet
  facet normal 0 -1 0
    outer loop
      vertex -36.6 -35.4 -2
      vertex -27.6 -35.4 -2
      vertex -36.6 -35.4 4.33511e-015
    endloop
  endfacet
  facet normal 1 -0 0
    outer loop
      vertex -24 -33.4 -2
      vertex -24 -31.4 -2
      vertex -24 -31.4 3.84526e-015
    endloop
  endfacet
  facet normal 1 0 0
    outer loop
      vertex -24 -33.4 4.09018e-015
      vertex -24 -33.4 -2
      vertex -24 -31.4 3.84526e-015
    endloop
  endfacet
  facet normal 0 1 0
    outer loop
      vertex -13 -33.4 -2
      vertex -24 -33.4 -2
      vertex -24 -33.4 4.09018e-015
    endloop
  endfacet
  facet normal 0 1 0
    outer loop
      vertex -13 -33.4 4.09018e-015
      vertex -13 -33.4 -2
      vertex -24 -33.4 4.09018e-015
    endloop
  endfacet
  facet normal -1 0 0
    outer loop
      vertex -13 -31.4 -2
      vertex -13 -33.4 4.09018e-015
      vertex -13 -31.4 3.84526e-015
    endloop
  endfacet
  facet normal -1 0 0
    outer loop
      vertex -13 -31.4 -2
      vertex -13 -33.4 -2
      vertex -13 -33.4 4.09018e-015
    endloop
  endfacet
  facet normal 0 -1 0
    outer loop
      vertex -13 -31.4 -2
      vertex -13 -31.4 3.84526e-015
      vertex -24 -31.4 3.84526e-015
    endloop
  endfacet
  facet normal 0 -1 0
    outer loop
      vertex -24 -31.4 -2
      vertex -13 -31.4 -2
      vertex -24 -31.4 3.84526e-015
    endloop
  endfacet
  facet normal 1 -0 0
    outer loop
      vertex -36.6 -33.4 -2
      vertex -36.6 -31.4 -2
      vertex -36.6 -31.4 3.84526e-015
    endloop
  endfacet
  facet normal 1 0 0
    outer loop
      vertex -36.6 -33.4 4.09018e-015
      vertex -36.6 -33.4 -2
      vertex -36.6 -31.4 3.84526e-015
    endloop
  endfacet
  facet normal 0 1 0
    outer loop
      vertex -27.6 -33.4 -2
      vertex -36.6 -33.4 -2
      vertex -36.6 -33.4 4.09018e-015
    endloop
  endfacet
  facet normal 0 1 0
    outer loop
      vertex -27.6 -33.4 4.09018e-015
      vertex -27.6 -33.4 -2
      vertex -36.6 -33.4 4.09018e-015
    endloop
  endfacet
  facet normal -1 0 0
    outer loop
      vertex -27.6 -31.4 -2
      vertex -27.6 -33.4 4.09018e-015
      vertex -27.6 -31.4 3.84526e-015
    endloop
  endfacet
  facet normal -1 0 0
    outer loop
      vertex -27.6 -31.4 -2
      vertex -27.6 -33.4 -2
      vertex -27.6 -33.4 4.09018e-015
    endloop
  endfacet
  facet normal 0 -1 0
    outer loop
      vertex -27.6 -31.4 -2
      vertex -27.6 -31.4 3.84526e-015
      vertex -36.6 -31.4 3.84526e-015
    endloop
  endfacet
  facet normal 0 -1 0
    outer loop
      vertex -36.6 -31.4 -2
      vertex -27.6 -31.4 -2
      vertex -36.6 -31.4 3.84526e-015
    endloop
  endfacet
  facet normal 1 -0 0
    outer loop
      vertex -36.6 -29.4 -2
      vertex -36.6 -27.4 -2
      vertex -36.6 -27.4 3.35542e-015
    endloop
  endfacet
  facet normal 1 0 0
    outer loop
      vertex -36.6 -29.4 3.60034e-015
      vertex -36.6 -29.4 -2
      vertex -36.6 -27.4 3.35542e-015
    endloop
  endfacet
  facet normal 0 1 0
    outer loop
      vertex -27.6 -29.4 -2
      vertex -36.6 -29.4 -2
      vertex -36.6 -29.4 3.60034e-015
    endloop
  endfacet
  facet normal 0 1 0
    outer loop
      vertex -27.6 -29.4 3.60034e-015
      vertex -27.6 -29.4 -2
      vertex -36.6 -29.4 3.60034e-015
    endloop
  endfacet
  facet normal -1 0 0
    outer loop
      vertex -27.6 -27.4 -2
      vertex -27.6 -29.4 3.60034e-015
      vertex -27.6 -27.4 3.35542e-015
    endloop
  endfacet
  facet normal -1 0 0
    outer loop
      vertex -27.6 -27.4 -2
      vertex -27.6 -29.4 -2
      vertex -27.6 -29.4 3.60034e-015
    endloop
  endfacet
  facet normal 0 -1 0
    outer loop
      vertex -27.6 -27.4 -2
      vertex -27.6 -27.4 3.35542e-015
      vertex -36.6 -27.4 3.35542e-015
    endloop
  endfacet
  facet normal 0 -1 0
    outer loop
      vertex -36.6 -27.4 -2
      vertex -27.6 -27.4 -2
      vertex -36.6 -27.4 3.35542e-015
    endloop
  endfacet
  facet normal 1 -0 0
    outer loop
      vertex -20 -28.4 -2
      vertex -20 -21.4 -2
      vertex -20 -21.4 2.62066e-015
    endloop
  endfacet
  facet normal 1 0 0
    outer loop
      vertex -20 -28.4 3.47788e-015
      vertex -20 -28.4 -2
      vertex -20 -21.4 2.62066e-015
    endloop
  endfacet
  facet normal 0 1 0
    outer loop
      vertex -13 -28.4 -2
      vertex -20 -28.4 -2
      vertex -20 -28.4 3.47788e-015
    endloop
  endfacet
  facet normal 0 1 0
    outer loop
      vertex -13 -28.4 3.47788e-015
      vertex -13 -28.4 -2
      vertex -20 -28.4 3.47788e-015
    endloop
  endfacet
  facet normal -1 0 0
    outer loop
      vertex -13 -21.4 -2
      vertex -13 -28.4 3.47788e-015
      vertex -13 -21.4 2.62066e-015
    endloop
  endfacet
  facet normal -1 0 0
    outer loop
      vertex -13 -21.4 -2
      vertex -13 -28.4 -2
      vertex -13 -28.4 3.47788e-015
    endloop
  endfacet
  facet normal 0 -1 0
    outer loop
      vertex -13 -21.4 -2
      vertex -13 -21.4 2.62066e-015
      vertex -20 -21.4 2.62066e-015
    endloop
  endfacet
  facet normal 0 -1 0
    outer loop
      vertex -20 -21.4 -2
      vertex -13 -21.4 -2
      vertex -20 -21.4 2.62066e-015
    endloop
  endfacet
  facet normal 1 -0 0
    outer loop
      vertex -36.6 -25.4 -2
      vertex -36.6 -23.4 -2
      vertex -36.6 -23.4 2.86558e-015
    endloop
  endfacet
  facet normal 1 0 0
    outer loop
      vertex -36.6 -25.4 3.1105e-015
      vertex -36.6 -25.4 -2
      vertex -36.6 -23.4 2.86558e-015
    endloop
  endfacet
  facet normal 0 1 0
    outer loop
      vertex -27.6 -25.4 -2
      vertex -36.6 -25.4 -2
      vertex -36.6 -25.4 3.1105e-015
    endloop
  endfacet
  facet normal 0 1 0
    outer loop
      vertex -27.6 -25.4 3.1105e-015
      vertex -27.6 -25.4 -2
      vertex -36.6 -25.4 3.1105e-015
    endloop
  endfacet
  facet normal -1 0 0
    outer loop
      vertex -27.6 -23.4 -2
      vertex -27.6 -25.4 3.1105e-015
      vertex -27.6 -23.4 2.86558e-015
    endloop
  endfacet
  facet normal -1 0 0
    outer loop
      vertex -27.6 -23.4 -2
      vertex -27.6 -25.4 -2
      vertex -27.6 -25.4 3.1105e-015
    endloop
  endfacet
  facet normal 0 -1 0
    outer loop
      vertex -27.6 -23.4 -2
      vertex -27.6 -23.4 2.86558e-015
      vertex -36.6 -23.4 2.86558e-015
    endloop
  endfacet
  facet normal 0 -1 0
    outer loop
      vertex -36.6 -23.4 -2
      vertex -27.6 -23.4 -2
      vertex -36.6 -23.4 2.86558e-015
    endloop
  endfacet
  facet normal 1 -0 0
    outer loop
      vertex -36.6 -21.4 -2
      vertex -36.6 -19.4 -2
      vertex -36.6 -19.4 2.37574e-015
    endloop
  endfacet
  facet normal 1 0 0
    outer loop
      vertex -36.6 -21.4 2.62066e-015
      vertex -36.6 -21.4 -2
      vertex -36.6 -19.4 2.37574e-015
    endloop
  endfacet
  facet normal 0 1 0
    outer loop
      vertex -27.6 -21.4 -2
      vertex -36.6 -21.4 -2
      vertex -36.6 -21.4 2.62066e-015
    endloop
  endfacet
  facet normal 0 1 0
    outer loop
      vertex -27.6 -21.4 2.62066e-015
      vertex -27.6 -21.4 -2
      vertex -36.6 -21.4 2.62066e-015
    endloop
  endfacet
  facet normal -1 0 0
    outer loop
      vertex -27.6 -19.4 -2
      vertex -27.6 -21.4 2.62066e-015
      vertex -27.6 -19.4 2.37574e-015
    endloop
  endfacet
  facet normal -1 0 0
    outer loop
      vertex -27.6 -19.4 -2
      vertex -27.6 -21.4 -2
      vertex -27.6 -21.4 2.62066e-015
    endloop
  endfacet
  facet normal 0 -1 0
    outer loop
      vertex -27.6 -19.4 -2
      vertex -27.6 -19.4 2.37574e-015
      vertex -36.6 -19.4 2.37574e-015
    endloop
  endfacet
  facet normal 0 -1 0
    outer loop
      vertex -36.6 -19.4 -2
      vertex -27.6 -19.4 -2
      vertex -36.6 -19.4 2.37574e-015
    endloop
  endfacet
  facet normal 1 -0 0
    outer loop
      vertex -24 -17.4 -2
      vertex -24 -15.4 -2
      vertex -24 -15.4 1.88589e-015
    endloop
  endfacet
  facet normal 1 0 0
    outer loop
      vertex -24 -17.4 2.13081e-015
      vertex -24 -17.4 -2
      vertex -24 -15.4 1.88589e-015
    endloop
  endfacet
  facet normal 0 1 0
    outer loop
      vertex -13 -17.4 -2
      vertex -24 -17.4 -2
      vertex -24 -17.4 2.13081e-015
    endloop
  endfacet
  facet normal 0 1 0
    outer loop
      vertex -13 -17.4 2.13081e-015
      vertex -13 -17.4 -2
      vertex -24 -17.4 2.13081e-015
    endloop
  endfacet
  facet normal -1 0 0
    outer loop
      vertex -13 -15.4 -2
      vertex -13 -17.4 2.13081e-015
      vertex -13 -15.4 1.88589e-015
    endloop
  endfacet
  facet normal -1 0 0
    outer loop
      vertex -13 -15.4 -2
      vertex -13 -17.4 -2
      vertex -13 -17.4 2.13081e-015
    endloop
  endfacet
  facet normal 0 -1 0
    outer loop
      vertex -13 -15.4 -2
      vertex -13 -15.4 1.88589e-015
      vertex -24 -15.4 1.88589e-015
    endloop
  endfacet
  facet normal 0 -1 0
    outer loop
      vertex -24 -15.4 -2
      vertex -13 -15.4 -2
      vertex -24 -15.4 1.88589e-015
    endloop
  endfacet
  facet normal 0.281733 -0.959493 0
    outer loop
      vertex -36.727 -10.3081 -2
      vertex -36.2491 -10.1678 1.24516e-015
      vertex -36.727 -10.3081 1.26234e-015
    endloop
  endfacet
  facet normal 0.281733 -0.959493 0
    outer loop
      vertex -36.727 -10.3081 -2
      vertex -36.2491 -10.1678 -2
      vertex -36.2491 -10.1678 1.24516e-015
    endloop
  endfacet
  facet normal 0.540638 -0.841255 0
    outer loop
      vertex -37.146 -10.5774 -2
      vertex -36.727 -10.3081 1.26234e-015
      vertex -37.146 -10.5774 1.29532e-015
    endloop
  endfacet
  facet normal 0.540638 -0.841255 0
    outer loop
      vertex -37.146 -10.5774 -2
      vertex -36.727 -10.3081 -2
      vertex -36.727 -10.3081 1.26234e-015
    endloop
  endfacet
  facet normal 0.755758 -0.654851 0
    outer loop
      vertex -37.4722 -10.9539 -2
      vertex -37.146 -10.5774 1.29532e-015
      vertex -37.4722 -10.9539 1.34142e-015
    endloop
  endfacet
  facet normal 0.755758 -0.654851 0
    outer loop
      vertex -37.4722 -10.9539 -2
      vertex -37.146 -10.5774 -2
      vertex -37.146 -10.5774 1.29532e-015
    endloop
  endfacet
  facet normal 0.90963 -0.41542 0
    outer loop
      vertex -37.6791 -11.407 -2
      vertex -37.4722 -10.9539 1.34142e-015
      vertex -37.6791 -11.407 1.3969e-015
    endloop
  endfacet
  facet normal 0.90963 -0.41542 0
    outer loop
      vertex -37.6791 -11.407 -2
      vertex -37.4722 -10.9539 -2
      vertex -37.4722 -10.9539 1.34142e-015
    endloop
  endfacet
  facet normal 0.989824 -0.142296 0
    outer loop
      vertex -37.75 -11.9 -2
      vertex -37.6791 -11.407 1.3969e-015
      vertex -37.75 -11.9 1.45728e-015
    endloop
  endfacet
  facet normal 0.989824 -0.142296 0
    outer loop
      vertex -37.75 -11.9 -2
      vertex -37.6791 -11.407 -2
      vertex -37.6791 -11.407 1.3969e-015
    endloop
  endfacet
  facet normal 0.989824 0.142296 0
    outer loop
      vertex -37.6791 -12.393 -2
      vertex -37.75 -11.9 -2
      vertex -37.75 -11.9 1.45728e-015
    endloop
  endfacet
  facet normal 0.989824 0.142296 0
    outer loop
      vertex -37.6791 -12.393 1.51766e-015
      vertex -37.6791 -12.393 -2
      vertex -37.75 -11.9 1.45728e-015
    endloop
  endfacet
  facet normal 0.90963 0.41542 0
    outer loop
      vertex -37.4722 -12.8461 -2
      vertex -37.6791 -12.393 -2
      vertex -37.6791 -12.393 1.51766e-015
    endloop
  endfacet
  facet normal 0.90963 0.41542 0
    outer loop
      vertex -37.4722 -12.8461 1.57314e-015
      vertex -37.4722 -12.8461 -2
      vertex -37.6791 -12.393 1.51766e-015
    endloop
  endfacet
  facet normal 0.755745 0.654866 0
    outer loop
      vertex -37.146 -13.2225 -2
      vertex -37.4722 -12.8461 -2
      vertex -37.4722 -12.8461 1.57314e-015
    endloop
  endfacet
  facet normal 0.755745 0.654866 0
    outer loop
      vertex -37.146 -13.2225 1.61924e-015
      vertex -37.146 -13.2225 -2
      vertex -37.4722 -12.8461 1.57314e-015
    endloop
  endfacet
  facet normal 0.54066 0.841241 0
    outer loop
      vertex -36.727 -13.4919 -2
      vertex -37.146 -13.2225 -2
      vertex -37.146 -13.2225 1.61924e-015
    endloop
  endfacet
  facet normal 0.54066 0.841241 0
    outer loop
      vertex -36.727 -13.4919 1.65222e-015
      vertex -36.727 -13.4919 -2
      vertex -37.146 -13.2225 1.61924e-015
    endloop
  endfacet
  facet normal 0.281733 0.959493 0
    outer loop
      vertex -36.2491 -13.6322 -2
      vertex -36.727 -13.4919 -2
      vertex -36.727 -13.4919 1.65222e-015
    endloop
  endfacet
  facet normal 0.281733 0.959493 0
    outer loop
      vertex -36.2491 -13.6322 1.66941e-015
      vertex -36.2491 -13.6322 -2
      vertex -36.727 -13.4919 1.65222e-015
    endloop
  endfacet
  facet normal 0 1 0
    outer loop
      vertex -35.751 -13.6322 -2
      vertex -36.2491 -13.6322 -2
      vertex -36.2491 -13.6322 1.66941e-015
    endloop
  endfacet
  facet normal 0 1 0
    outer loop
      vertex -35.751 -13.6322 1.66941e-015
      vertex -35.751 -13.6322 -2
      vertex -36.2491 -13.6322 1.66941e-015
    endloop
  endfacet
  facet normal -0.281733 0.959493 0
    outer loop
      vertex -35.273 -13.4919 1.65222e-015
      vertex -35.751 -13.6322 -2
      vertex -35.751 -13.6322 1.66941e-015
    endloop
  endfacet
  facet normal -0.281733 0.959493 0
    outer loop
      vertex -35.273 -13.4919 1.65222e-015
      vertex -35.273 -13.4919 -2
      vertex -35.751 -13.6322 -2
    endloop
  endfacet
  facet normal -0.54066 0.841241 0
    outer loop
      vertex -34.854 -13.2225 1.61924e-015
      vertex -35.273 -13.4919 -2
      vertex -35.273 -13.4919 1.65222e-015
    endloop
  endfacet
  facet normal -0.54066 0.841241 0
    outer loop
      vertex -34.854 -13.2225 1.61924e-015
      vertex -34.854 -13.2225 -2
      vertex -35.273 -13.4919 -2
    endloop
  endfacet
  facet normal -0.755745 0.654866 0
    outer loop
      vertex -34.5278 -12.8461 -2
      vertex -34.854 -13.2225 -2
      vertex -34.854 -13.2225 1.61924e-015
    endloop
  endfacet
  facet normal -0.755745 0.654866 0
    outer loop
      vertex -34.5278 -12.8461 1.57314e-015
      vertex -34.5278 -12.8461 -2
      vertex -34.854 -13.2225 1.61924e-015
    endloop
  endfacet
  facet normal -0.90963 0.41542 0
    outer loop
      vertex -34.3209 -12.393 -2
      vertex -34.5278 -12.8461 -2
      vertex -34.5278 -12.8461 1.57314e-015
    endloop
  endfacet
  facet normal -0.90963 0.41542 0
    outer loop
      vertex -34.3209 -12.393 1.51766e-015
      vertex -34.3209 -12.393 -2
      vertex -34.5278 -12.8461 1.57314e-015
    endloop
  endfacet
  facet normal -0.98982 0.142326 0
    outer loop
      vertex -34.25 -11.9 -2
      vertex -34.3209 -12.393 -2
      vertex -34.3209 -12.393 1.51766e-015
    endloop
  endfacet
  facet normal -0.98982 0.142326 0
    outer loop
      vertex -34.25 -11.9 1.45728e-015
      vertex -34.25 -11.9 -2
      vertex -34.3209 -12.393 1.51766e-015
    endloop
  endfacet
  facet normal -0.98982 -0.142326 0
    outer loop
      vertex -34.3209 -11.407 -2
      vertex -34.25 -11.9 1.45728e-015
      vertex -34.3209 -11.407 1.3969e-015
    endloop
  endfacet
  facet normal -0.98982 -0.142326 0
    outer loop
      vertex -34.3209 -11.407 -2
      vertex -34.25 -11.9 -2
      vertex -34.25 -11.9 1.45728e-015
    endloop
  endfacet
  facet normal -0.90963 -0.41542 0
    outer loop
      vertex -34.5278 -10.9539 -2
      vertex -34.3209 -11.407 1.3969e-015
      vertex -34.5278 -10.9539 1.34142e-015
    endloop
  endfacet
  facet normal -0.90963 -0.41542 0
    outer loop
      vertex -34.5278 -10.9539 -2
      vertex -34.3209 -11.407 -2
      vertex -34.3209 -11.407 1.3969e-015
    endloop
  endfacet
  facet normal -0.755758 -0.654851 0
    outer loop
      vertex -34.854 -10.5774 -2
      vertex -34.5278 -10.9539 1.34142e-015
      vertex -34.854 -10.5774 1.29532e-015
    endloop
  endfacet
  facet normal -0.755758 -0.654851 0
    outer loop
      vertex -34.854 -10.5774 -2
      vertex -34.5278 -10.9539 -2
      vertex -34.5278 -10.9539 1.34142e-015
    endloop
  endfacet
  facet normal -0.540638 -0.841255 0
    outer loop
      vertex -34.854 -10.5774 -2
      vertex -34.854 -10.5774 1.29532e-015
      vertex -35.273 -10.3081 1.26234e-015
    endloop
  endfacet
  facet normal -0.540638 -0.841255 0
    outer loop
      vertex -35.273 -10.3081 -2
      vertex -34.854 -10.5774 -2
      vertex -35.273 -10.3081 1.26234e-015
    endloop
  endfacet
  facet normal -0.281733 -0.959493 0
    outer loop
      vertex -35.273 -10.3081 -2
      vertex -35.273 -10.3081 1.26234e-015
      vertex -35.751 -10.1678 1.24516e-015
    endloop
  endfacet
  facet normal -0.281733 -0.959493 0
    outer loop
      vertex -35.751 -10.1678 -2
      vertex -35.273 -10.3081 -2
      vertex -35.751 -10.1678 1.24516e-015
    endloop
  endfacet
  facet normal 0 -1 0
    outer loop
      vertex -35.751 -10.1678 -2
      vertex -35.751 -10.1678 1.24516e-015
      vertex -36.2491 -10.1678 1.24516e-015
    endloop
  endfacet
  facet normal 0 -1 0
    outer loop
      vertex -36.2491 -10.1678 -2
      vertex -35.751 -10.1678 -2
      vertex -36.2491 -10.1678 1.24516e-015
    endloop
  endfacet
  facet normal 1 -0 0
    outer loop
      vertex -24 -13.4 -2
      vertex -24 -11.4 -2
      vertex -24 -11.4 1.39605e-015
    endloop
  endfacet
  facet normal 1 0 0
    outer loop
      vertex -24 -13.4 1.64097e-015
      vertex -24 -13.4 -2
      vertex -24 -11.4 1.39605e-015
    endloop
  endfacet
  facet normal 0 1 0
    outer loop
      vertex -13 -13.4 -2
      vertex -24 -13.4 -2
      vertex -24 -13.4 1.64097e-015
    endloop
  endfacet
  facet normal 0 1 0
    outer loop
      vertex -13 -13.4 1.64097e-015
      vertex -13 -13.4 -2
      vertex -24 -13.4 1.64097e-015
    endloop
  endfacet
  facet normal -1 0 0
    outer loop
      vertex -13 -11.4 -2
      vertex -13 -13.4 1.64097e-015
      vertex -13 -11.4 1.39605e-015
    endloop
  endfacet
  facet normal -1 0 0
    outer loop
      vertex -13 -11.4 -2
      vertex -13 -13.4 -2
      vertex -13 -13.4 1.64097e-015
    endloop
  endfacet
  facet normal 0 -1 0
    outer loop
      vertex -13 -11.4 -2
      vertex -13 -11.4 1.39605e-015
      vertex -24 -11.4 1.39605e-015
    endloop
  endfacet
  facet normal 0 -1 0
    outer loop
      vertex -24 -11.4 -2
      vertex -13 -11.4 -2
      vertex -24 -11.4 1.39605e-015
    endloop
  endfacet
  facet normal 1 -0 0
    outer loop
      vertex -24 -9.39999 -2
      vertex -24 -7.39999 -2
      vertex -24 -7.39999 9.06208e-016
    endloop
  endfacet
  facet normal 1 0 0
    outer loop
      vertex -24 -9.39999 1.15113e-015
      vertex -24 -9.39999 -2
      vertex -24 -7.39999 9.06208e-016
    endloop
  endfacet
  facet normal 0 1 0
    outer loop
      vertex -13 -9.39999 -2
      vertex -24 -9.39999 -2
      vertex -24 -9.39999 1.15113e-015
    endloop
  endfacet
  facet normal 0 1 0
    outer loop
      vertex -13 -9.39999 1.15113e-015
      vertex -13 -9.39999 -2
      vertex -24 -9.39999 1.15113e-015
    endloop
  endfacet
  facet normal -1 0 0
    outer loop
      vertex -13 -7.39999 -2
      vertex -13 -9.39999 1.15113e-015
      vertex -13 -7.39999 9.06208e-016
    endloop
  endfacet
  facet normal -1 0 0
    outer loop
      vertex -13 -7.39999 -2
      vertex -13 -9.39999 -2
      vertex -13 -9.39999 1.15113e-015
    endloop
  endfacet
  facet normal 0 -1 0
    outer loop
      vertex -13 -7.39999 -2
      vertex -13 -7.39999 9.06208e-016
      vertex -24 -7.39999 9.06208e-016
    endloop
  endfacet
  facet normal 0 -1 0
    outer loop
      vertex -24 -7.39999 -2
      vertex -13 -7.39999 -2
      vertex -24 -7.39999 9.06208e-016
    endloop
  endfacet
  facet normal 1 -0 0
    outer loop
      vertex -24 -5.39999 -2
      vertex -24 -3.39999 -2
      vertex -24 -3.39999 4.16365e-016
    endloop
  endfacet
  facet normal 1 0 0
    outer loop
      vertex -24 -5.39999 6.61287e-016
      vertex -24 -5.39999 -2
      vertex -24 -3.39999 4.16365e-016
    endloop
  endfacet
  facet normal 0 1 0
    outer loop
      vertex -13 -5.39999 -2
      vertex -24 -5.39999 -2
      vertex -24 -5.39999 6.61287e-016
    endloop
  endfacet
  facet normal 0 1 0
    outer loop
      vertex -13 -5.39999 6.61287e-016
      vertex -13 -5.39999 -2
      vertex -24 -5.39999 6.61287e-016
    endloop
  endfacet
  facet normal -1 0 0
    outer loop
      vertex -13 -3.39999 -2
      vertex -13 -5.39999 6.61287e-016
      vertex -13 -3.39999 4.16365e-016
    endloop
  endfacet
  facet normal -1 0 0
    outer loop
      vertex -13 -3.39999 -2
      vertex -13 -5.39999 -2
      vertex -13 -5.39999 6.61287e-016
    endloop
  endfacet
  facet normal 0 -1 0
    outer loop
      vertex -13 -3.39999 -2
      vertex -13 -3.39999 4.16365e-016
      vertex -24 -3.39999 4.16365e-016
    endloop
  endfacet
  facet normal 0 -1 0
    outer loop
      vertex -24 -3.39999 -2
      vertex -13 -3.39999 -2
      vertex -24 -3.39999 4.16365e-016
    endloop
  endfacet
  facet normal 0 -0 1
    outer loop
      vertex -22.5 -0.799988 3
      vertex -22.5 3.67382e-016 3
      vertex -39.2 -0.799988 3
    endloop
  endfacet
  facet normal 0 0 1
    outer loop
      vertex -40 -49.8 3
      vertex -8.60001 -49.8 3
      vertex -9.40001 -49 3
    endloop
  endfacet
  facet normal -1.15925e-016 1.15927e-016 1
    outer loop
      vertex -8.60001 -49.8 3
      vertex -8.60001 3.67382e-016 3
      vertex -9.40001 -0.799988 3
    endloop
  endfacet
  facet normal 0 0 1
    outer loop
      vertex -8.60001 3.67382e-016 3
      vertex -15.5 3.67382e-016 3
      vertex -9.40001 -0.799988 3
    endloop
  endfacet
  facet normal 1.19773e-016 1.19775e-016 1
    outer loop
      vertex -8.60001 -49.8 3
      vertex -9.40001 -0.799988 3
      vertex -9.40001 -49 3
    endloop
  endfacet
  facet normal 0 0 1
    outer loop
      vertex -9.40001 -0.799988 3
      vertex -15.5 3.67382e-016 3
      vertex -15.5 -0.799988 3
    endloop
  endfacet
  facet normal 0 0 1
    outer loop
      vertex -40 -49.8 3
      vertex -9.40001 -49 3
      vertex -39.2 -49 3
    endloop
  endfacet
  facet normal 1.15927e-016 1.15927e-016 1
    outer loop
      vertex -40 -49.8 3
      vertex -39.2 -0.799988 3
      vertex -40 3.67382e-016 3
    endloop
  endfacet
  facet normal -1.19775e-016 1.19775e-016 1
    outer loop
      vertex -39.2 -49 3
      vertex -39.2 -0.799988 3
      vertex -40 -49.8 3
    endloop
  endfacet
  facet normal 0 -0 1
    outer loop
      vertex -39.2 -0.799988 3
      vertex -22.5 3.67382e-016 3
      vertex -40 3.67382e-016 3
    endloop
  endfacet
  facet normal 1 -0 0
    outer loop
      vertex -22.5 -0.799988 9.7967e-017
      vertex -22.5 0 0
      vertex -22.5 3.67382e-016 3
    endloop
  endfacet
  facet normal 1 -0 0
    outer loop
      vertex -22.5 -0.799988 3
      vertex -22.5 -0.799988 9.7967e-017
      vertex -22.5 3.67382e-016 3
    endloop
  endfacet
  facet normal 0 -1 1.4803e-016
    outer loop
      vertex -22.5 -0.799988 9.7967e-017
      vertex -22.5 -0.799988 3
      vertex -39.2 -0.799988 3
    endloop
  endfacet
  facet normal 0 -1 1.4803e-016
    outer loop
      vertex -39.2 -0.799988 9.7967e-017
      vertex -22.5 -0.799988 9.7967e-017
      vertex -39.2 -0.799988 3
    endloop
  endfacet
  facet normal 1 -0 0
    outer loop
      vertex -39.2 -49 6.00057e-015
      vertex -39.2 -0.799988 9.7967e-017
      vertex -39.2 -0.799988 3
    endloop
  endfacet
  facet normal 1 0 0
    outer loop
      vertex -39.2 -49 3
      vertex -39.2 -49 6.00057e-015
      vertex -39.2 -0.799988 3
    endloop
  endfacet
  facet normal 0 1 -2.36848e-015
    outer loop
      vertex -9.40001 -49 6.00057e-015
      vertex -39.2 -49 6.00057e-015
      vertex -39.2 -49 3
    endloop
  endfacet
  facet normal 0 1 -2.36848e-015
    outer loop
      vertex -9.40001 -49 3
      vertex -9.40001 -49 6.00057e-015
      vertex -39.2 -49 3
    endloop
  endfacet
  facet normal -1 0 0
    outer loop
      vertex -9.40001 -0.799988 9.7967e-017
      vertex -9.40001 -49 3
      vertex -9.40001 -0.799988 3
    endloop
  endfacet
  facet normal -1 0 0
    outer loop
      vertex -9.40001 -0.799988 9.7967e-017
      vertex -9.40001 -49 6.00057e-015
      vertex -9.40001 -49 3
    endloop
  endfacet
  facet normal 0 -1 1.4803e-016
    outer loop
      vertex -9.40001 -0.799988 9.7967e-017
      vertex -9.40001 -0.799988 3
      vertex -15.5 -0.799988 3
    endloop
  endfacet
  facet normal 0 -1 1.4803e-016
    outer loop
      vertex -15.5 -0.799988 9.7967e-017
      vertex -9.40001 -0.799988 9.7967e-017
      vertex -15.5 -0.799988 3
    endloop
  endfacet
  facet normal -1 0 0
    outer loop
      vertex -15.5 0 0
      vertex -15.5 -0.799988 3
      vertex -15.5 3.67382e-016 3
    endloop
  endfacet
  facet normal -1 0 0
    outer loop
      vertex -15.5 0 0
      vertex -15.5 -0.799988 9.7967e-017
      vertex -15.5 -0.799988 3
    endloop
  endfacet
endsolid OpenSCAD_Model
